<?xml version="1.0" standalone="no"?>
<!DOCTYPE svg PUBLIC "-//W3C//DTD SVG 1.1//EN" "http://www.w3.org/Graphics/SVG/1.1/DTD/svg11.dtd">
<svg xmlns="http://www.w3.org/2000/svg"><metadata>This SVG WebFont was generated by YouWorkForThem.
Â© 2016 Connary Fagen</metadata><defs><font horiz-adv-x="618" id="ywftsvg"><font-face ascent="800" bbox="-177 -347 1115 955" cap-height="700" descent="-200" font-family="" font-stretch="normal" font-weight="800" panose-1="0 0 9 0 0 0 0 0 0 0" underline-position="0" underline-thickness="0" unicode-range="U+0020-FB02" units-per-em="1000" x-height="490"/><missing-glyph d="M406 800v-990h-314v990h314zM330 734h-164v-33h65v-37h-66v-32h165v32h-66v37h66v33zM264 606h-99v-103h165v34h-66v69zM231 572v-35h-33v35h33zM330 476h-165v-32h66v-37h-66v-33h99v70h66v32zM330 417h-33v-65h-132v-34h165v99zM330 296h-99v-55h33v22h33v-46h-99v79 h-33v-112h165v112zM330 125h-165v-112h165v112zM297 92v-46h-99v46h99zM330 -10h-165v-32h70l-70 -47v-33h165v33h-101l69 47h32v32z" horiz-adv-x="495"/><glyph d="M534 576q-34 0 -57 23.5t-23 56.5q0 34 23 57.5t57 23.5t57 -23.5t23 -57.5q0 -33 -23 -56.5t-57 -23.5zM375 719q10 -6 10 -18v-106q0 -9 -5.5 -12t-12.5 2q-27 16 -59 16t-41.5 -14t-9.5 -44v-53h104q15 0 15 -15v-91q0 -15 -15 -15h-104v-354q0 -15 -15 -15h-120 q-15 0 -15 15v354h-58q-15 0 -15 15v91q0 15 15 15h58v73q0 86 48.5 129.5t131.5 43.5q58 0 88 -17zM594 490q15 0 15 -15v-460q0 -15 -15 -15h-120q-15 0 -15 15v460q0 15 15 15h120z" glyph-name="uniFB01" horiz-adv-x="655" unicode="fi"/><glyph d="M375 719q10 -6 10 -18v-106q0 -9 -5.5 -12t-12.5 2q-27 16 -59 16t-41.5 -14t-9.5 -44v-53h104q15 0 15 -15v-91q0 -15 -15 -15h-104v-354q0 -15 -15 -15h-120q-15 0 -15 15v354h-58q-15 0 -15 15v91q0 15 15 15h58v73q0 86 48.5 129.5t131.5 43.5q58 0 88 -17zM594 730 q15 0 15 -15v-700q0 -15 -15 -15h-120q-15 0 -15 15v700q0 15 15 15h120z" glyph-name="uniFB02" horiz-adv-x="657" unicode="fl"/><glyph d="M406 800v-990h-314v990h314zM330 734h-164v-33h65v-37h-66v-32h165v32h-66v37h66v33zM264 606h-99v-103h165v34h-66v69zM231 572v-35h-33v35h33zM330 476h-165v-32h66v-37h-66v-33h99v70h66v32zM330 417h-33v-65h-132v-34h165v99zM330 296h-99v-55h33v22h33v-46h-99v79 h-33v-112h165v112zM330 125h-165v-112h165v112zM297 92v-46h-99v46h99zM330 -10h-165v-32h70l-70 -47v-33h165v33h-101l69 47h32v32z" glyph-name=".notdef" horiz-adv-x="495"/><glyph glyph-name="glyph1" horiz-adv-x="0"/><glyph glyph-name="glyph2" horiz-adv-x="333"/><glyph glyph-name="space" horiz-adv-x="280" unicode=" "/><glyph d="M242 614l-38 -385q-1 -14 -15 -14h-53q-14 0 -15 14l-39 385q-4 42 19.5 68t60.5 26t60.5 -26t19.5 -68zM162 -13q-34 0 -57.5 23.5t-23.5 57.5q0 33 23.5 56.5t57.5 23.5q33 0 56.5 -23.5t23.5 -56.5q0 -34 -23.5 -57.5t-56.5 -23.5z" glyph-name="exclam" horiz-adv-x="324" unicode="!"/><glyph d="M158 700q7 0 11.5 -4t3.5 -11l-13 -196q-2 -15 -15 -15h-78q-12 0 -15 15l-12 196q-1 7 3.5 11t11.5 4h103zM329 700q7 0 11.5 -4t3.5 -11l-13 -196q-2 -15 -15 -15h-78q-12 0 -15 15l-12 196q-1 7 3.5 11t11.5 4h103z" glyph-name="quotedbl" horiz-adv-x="383" unicode="&quot;"/><glyph d="M574 460h-64v-140h64q14 0 14 -15v-79q0 -15 -14 -15h-64v-116q0 -15 -15 -15h-108q-15 0 -15 15v116h-90v-116q0 -15 -15 -15h-108q-15 0 -15 15v116h-64q-15 0 -15 15v79q0 15 15 15h64v140h-64q-15 0 -15 15v79q0 15 15 15h64v116q0 15 15 15h108q15 0 15 -15v-116h90 v116q0 15 15 15h108q15 0 15 -15v-116h64q14 0 14 -15v-79q0 -15 -14 -15zM372 320v140h-90v-140h90z" glyph-name="numbersign" horiz-adv-x="653" unicode="#"/><glyph d="M536 200q0 -85 -55.5 -138.5t-137.5 -68.5v-68q0 -15 -15 -15h-85q-15 0 -15 15v69q-57 12 -105 40.5t-75 63.5q-8 11 1 21l69 77q9 13 22 2q78 -64 154 -64q38 0 64 18.5t26 50.5q0 22 -17.5 39t-45.5 29t-61.5 24.5t-67.5 29.5t-62 39.5t-45.5 58.5t-17.5 83 q0 75 45 126.5t116 68.5v74q0 15 15 15h85q15 0 15 -15v-72q92 -15 165 -88q11 -9 2 -21l-65 -79q-9 -13 -21 -4q-73 51 -129 51q-36 0 -56 -17t-20 -42t23.5 -43.5t58.5 -29.5t76.5 -28.5t76.5 -39t58.5 -63.5t23.5 -99z" glyph-name="dollar" horiz-adv-x="570" unicode="$"/><glyph d="M186 705q57 0 97 -39t40 -96t-40 -96.5t-97 -39.5t-96.5 39.5t-39.5 96.5t39.5 96t96.5 39zM537 695l83 -52l-429 -638l-83 52zM186 610q-16 0 -27.5 -11.5t-11.5 -28.5t11.5 -29t27.5 -12q17 0 29 12t12 29t-12 28.5t-29 11.5zM542 266q58 0 97 -39.5t39 -96.5t-39 -96 t-97 -39q-57 0 -97 39t-40 96t40 96.5t97 39.5zM542 171q-17 0 -28.5 -12t-11.5 -29t11.5 -28.5t28.5 -11.5q16 0 28 11.5t12 28.5t-12 29t-28 12z" glyph-name="percent" horiz-adv-x="728" unicode="%"/><glyph d="M583 157l80 -76q11 -11 0 -23l-62 -62q-11 -12 -22 -1l-81 78q-102 -82 -213 -82q-93 0 -164.5 55.5t-71.5 150.5q0 107 125 188q-75 77 -75 148q0 72 55.5 123.5t137.5 51.5q79 0 137 -52t58 -123q0 -100 -112 -177l120 -115q27 33 73 102q9 14 21 5l76 -55q10 -7 2 -21 q-45 -70 -84 -115zM233 529q0 -33 47 -82q36 23 54 41.5t18 40.5t-17 38t-43 16t-42.5 -16t-16.5 -38zM303 127q52 0 105 33l-136 130q-71 -45 -71 -89q0 -29 27 -51.5t75 -22.5z" glyph-name="ampersand" horiz-adv-x="698" unicode="&amp;"/><glyph d="M158 700q7 0 11.5 -4t3.5 -11l-13 -196q-2 -15 -15 -15h-78q-12 0 -15 15l-12 196q-1 7 3.5 11t11.5 4h103z" glyph-name="quotesingle" horiz-adv-x="211" unicode="'"/><glyph d="M303 745q20 0 9 -18q-97 -180 -97 -407q0 -240 99 -432q8 -18 -11 -18h-118q-12 0 -18 10q-107 192 -107 440q0 239 107 415q6 10 18 10h118z" glyph-name="parenleft" horiz-adv-x="376" unicode="("/><glyph d="M73 745h118q12 0 18 -10q107 -176 107 -415q0 -248 -107 -440q-6 -10 -18 -10h-118q-19 0 -11 18q99 192 99 432q0 227 -97 407q-11 18 9 18z" glyph-name="parenright" horiz-adv-x="376" unicode=")"/><glyph d="M447 550l-98 -27l67 -89l-89 -55l-61 86l-61 -86l-89 55l67 89l-98 27l25 104l108 -32l-4 113h102l-1 -113l107 32z" glyph-name="asterisk" horiz-adv-x="532" unicode="*"/><glyph d="M414 340q15 0 15 -15v-79q0 -15 -15 -15h-112v-113q0 -15 -15 -15h-79q-15 0 -15 15v113h-113q-15 0 -15 15v79q0 15 15 15h113v113q0 15 15 15h79q15 0 15 -15v-113h112z" glyph-name="plus" horiz-adv-x="494" unicode="+"/><glyph d="M129 148q36 0 59 -26t23 -71q0 -104 -103 -212l-37 22q36 55 44 125q-30 5 -50 28t-20 53q0 34 24.5 57.5t59.5 23.5z" glyph-name="comma" horiz-adv-x="256" unicode=","/><glyph d="M371 336q15 0 15 -15v-91q0 -15 -15 -15h-301q-15 0 -15 15v91q0 15 15 15h301z" glyph-name="hyphen" horiz-adv-x="416" unicode="-"/><glyph d="M126 -13q-34 0 -57.5 23.5t-23.5 57.5q0 33 23.5 56.5t57.5 23.5q33 0 56.5 -23.5t23.5 -56.5q0 -34 -23.5 -57.5t-56.5 -23.5z" glyph-name="period" horiz-adv-x="251" unicode="."/><glyph d="M495 745q18 0 12 -17l-328 -846q-4 -12 -18 -12h-127q-18 0 -12 17l328 846q4 12 18 12h127z" glyph-name="slash" horiz-adv-x="529" unicode="/"/><glyph d="M331 708q118 0 202.5 -94.5t84.5 -266.5t-84 -266t-203 -94q-118 0 -202.5 94t-84.5 266t84.5 266.5t202.5 94.5zM331 569q-70 0 -106.5 -64.5t-36.5 -157.5t36.5 -157t106.5 -64t106 64t36 157t-36 157.5t-106 64.5z" glyph-name="zero" horiz-adv-x="662" unicode="0"/><glyph d="M318 700q15 0 15 -15v-670q0 -15 -15 -15h-120q-15 0 -15 15v564h-117q-16 0 -16 15v91q0 15 16 15h252z" glyph-name="one" horiz-adv-x="398" unicode="1"/><glyph d="M489 121q15 0 15 -15v-91q0 -15 -15 -15h-416q-15 0 -15 15v106l97 104q30 32 70 72t58.5 59.5t38.5 43.5t27 42.5t7 38.5q0 41 -28 66.5t-69 25.5q-34 0 -66.5 -18.5t-54.5 -46.5q-10 -14 -22 -2l-72 70q-9 9 -1 21q32 48 90 79.5t131 31.5q101 0 168 -63t67 -158 q0 -32 -9 -59.5t-32.5 -59.5t-42.5 -53.5t-62.5 -66.5t-68.5 -73l-47 -54h252z" glyph-name="two" horiz-adv-x="548" unicode="2"/><glyph d="M407 368q106 -57 106 -165q0 -93 -66.5 -154.5t-178.5 -61.5q-70 0 -130.5 27t-93.5 76q-8 12 1 21l73 69q12 12 22 0q47 -56 118 -56q51 0 79 26t28 64q0 33 -28 59t-95 28q-15 0 -15 15v83q0 15 17 15q113 3 113 83q0 33 -27.5 53.5t-60.5 20.5q-68 0 -108 -54 q-9 -13 -22 0l-73 69q-10 10 -1 21q34 46 91 73.5t120 27.5q88 0 150.5 -55t62.5 -140t-82 -145z" glyph-name="three" horiz-adv-x="558" unicode="3"/><glyph d="M544 252q15 0 15 -15v-92q0 -15 -15 -15h-60v-115q0 -15 -15 -15h-120q-15 0 -15 15v115h-279q-15 0 -15 15v97q0 9 5 19l283 429q6 10 18 10h123q15 0 15 -15v-433h60zM334 252v227l-148 -227h148z" glyph-name="four" horiz-adv-x="604" unicode="4"/><glyph d="M276 475q99 0 165.5 -69.5t66.5 -166.5q0 -115 -71 -183t-184 -68q-71 0 -125.5 32t-79.5 77q-8 11 4 18l87 60q12 9 22 -1q35 -49 92 -49q48 0 78.5 34t30.5 80q0 43 -31 76t-77 33q-49 0 -81 -34q-9 -10 -20 -6l-94 29q-13 4 -10 18l88 332q3 13 16 13h302q15 0 15 -15 v-91q0 -15 -15 -15h-213l-30 -115q1 0 9 2.5t23.5 5.5t31.5 3z" glyph-name="five" horiz-adv-x="551" unicode="5"/><glyph d="M329 471q93 -16 153.5 -81t60.5 -159q0 -105 -72.5 -174.5t-179.5 -69.5q-106 0 -178.5 69.5t-72.5 174.5q0 103 90 212l220 269q10 12 21 3l83 -71q12 -11 3 -21zM291 126q46 0 76.5 30.5t30.5 74.5q0 47 -31 78.5t-76 31.5t-75.5 -31.5t-30.5 -78.5q0 -44 31 -74.5 t75 -30.5z" glyph-name="six" horiz-adv-x="583" unicode="6"/><glyph d="M491 700q15 0 12 -15l-262 -670q-5 -15 -17 -15h-117q-7 0 -11.5 4.5t-1.5 10.5l223 564h-263q-15 0 -15 15v91q0 15 15 15h437z" glyph-name="seven" horiz-adv-x="534" unicode="7"/><glyph d="M294 -13q-98 0 -173.5 61t-75.5 165q0 63 31 111.5t84 73.5q-69 50 -69 133q0 73 56 125t147 52t147 -52t56 -125q0 -82 -68 -133q52 -25 83 -73.5t31 -111.5q0 -104 -75.5 -165t-173.5 -61zM294 452q30 0 50 20t21 48q0 30 -20.5 50t-50.5 20t-50.5 -20t-19.5 -50 q0 -28 20 -48t50 -20zM294 124q43 0 71.5 25t28.5 69t-29.5 70t-70.5 26q-40 0 -69.5 -26t-29.5 -70t28 -69t71 -25z" glyph-name="eight" horiz-adv-x="588" unicode="8"/><glyph d="M279 708q106 0 178.5 -69.5t72.5 -174.5q0 -103 -90 -212l-220 -269q-10 -12 -21 -3l-83 71q-12 11 -3 21l128 152q-93 16 -153.5 81t-60.5 159q0 105 72.5 174.5t179.5 69.5zM279 354q45 0 75.5 31.5t30.5 78.5q0 44 -31 74.5t-75 30.5q-46 0 -76.5 -30.5t-30.5 -74.5 q0 -47 31 -78.5t76 -31.5z" glyph-name="nine" horiz-adv-x="570" unicode="9"/><glyph d="M126 334q-34 0 -57.5 23.5t-23.5 57.5q0 33 23.5 56.5t57.5 23.5q33 0 56.5 -23.5t23.5 -56.5q0 -34 -23.5 -57.5t-56.5 -23.5zM126 -13q-34 0 -57.5 23.5t-23.5 57.5q0 33 23.5 56.5t57.5 23.5q33 0 56.5 -23.5t23.5 -56.5q0 -34 -23.5 -57.5t-56.5 -23.5z" glyph-name="colon" horiz-adv-x="251" unicode=":"/><glyph d="M127 334q-34 0 -57.5 23.5t-23.5 57.5q0 33 23.5 56.5t57.5 23.5q33 0 56.5 -23.5t23.5 -56.5q0 -34 -23.5 -57.5t-56.5 -23.5zM129 148q36 0 59 -26t23 -71q0 -104 -103 -212l-37 22q36 55 44 125q-30 5 -50 28t-20 53q0 34 24.5 57.5t59.5 23.5z" glyph-name="semicolon" horiz-adv-x="252" unicode=";"/><glyph d="M439 481q7 4 12.5 0.5t5.5 -11.5v-96q0 -12 -11 -17l-249 -108l249 -108q11 -5 11 -17v-96q0 -8 -5.5 -11.5t-12.5 0.5l-368 180q-11 6 -11 16v72q0 10 11 16z" glyph-name="less" horiz-adv-x="507" unicode="&lt;"/><glyph d="M434 424q15 0 15 -15v-79q0 -15 -15 -15h-354q-15 0 -15 15v79q0 15 15 15h354zM434 256q15 0 15 -15v-79q0 -15 -15 -15h-354q-15 0 -15 15v79q0 15 15 15h354z" glyph-name="equal" horiz-adv-x="514" unicode="="/><glyph d="M88 481l368 -180q11 -6 11 -16v-72q0 -10 -11 -16l-368 -180q-8 -4 -13 -0.5t-5 11.5v96q0 12 11 17l249 108l-249 108q-11 5 -11 17v96q0 8 5 11.5t13 -0.5z" glyph-name="greater" horiz-adv-x="527" unicode=">"/><glyph d="M272 708q91 0 160 -54t69 -138q0 -68 -37.5 -113t-132.5 -94l-8 -79q-2 -15 -15 -15h-93q-13 0 -15 15l-10 140q-1 12 13 17q81 25 110 50t29 56q0 30 -25.5 47t-56.5 17q-64 0 -128 -57q-18 -16 -31 0l-59 72q-12 16 -1 30q87 106 231 106zM263 148q33 0 56.5 -23.5 t23.5 -56.5q0 -34 -23.5 -57.5t-56.5 -23.5q-34 0 -57.5 23.5t-23.5 57.5q0 33 23.5 56.5t57.5 23.5z" glyph-name="question" horiz-adv-x="546" unicode="?"/><glyph d="M577 501l-17 -178q-6 -53 33 -53q50 0 50 99t-67.5 163.5t-162.5 64.5q-104 0 -177 -70t-73 -182q0 -106 72 -174t172 -68q66 0 122 34l94 -62q-37 -37 -93.5 -60t-116.5 -23q-149 0 -259 98t-110 255q0 110 53.5 194.5t136.5 126.5t179 42q145 0 247 -95t102 -245 q0 -94 -50.5 -149t-128.5 -55q-58 0 -92 31q-36 -25 -86 -25q-76 0 -125.5 51t-49.5 126q0 74 49.5 125t125.5 51q60 0 100 -35l12 13h60zM405 271q32 0 52.5 21.5t20.5 54.5q0 32 -20.5 53.5t-52.5 21.5t-53 -21.5t-21 -53.5t21 -54t53 -22z" glyph-name="at" horiz-adv-x="806" unicode="@"/><glyph d="M670 17q7 -17 -12 -17h-130q-13 0 -17 12l-35 108h-247l-35 -108q-4 -12 -17 -12h-130q-19 0 -12 17l242 671q5 12 17 12h115q15 0 19 -12zM271 245h164l-82 251z" glyph-name="A" horiz-adv-x="705" unicode="A"/><glyph d="M454 374q56 -15 96.5 -61t40.5 -111q0 -202 -261 -202h-246q-15 0 -15 15v670q0 15 15 15h245q99 0 154.5 -51.5t55.5 -129.5q0 -52 -24.5 -91t-60.5 -54zM394 499q0 64 -79 64h-91v-134h91q79 0 79 70zM336 137q46 0 73 21t27 63q0 80 -100 80h-112v-164h112z" glyph-name="B" horiz-adv-x="630" unicode="B"/><glyph d="M581 194l77 -83q10 -11 0 -21q-98 -103 -247 -103q-151 0 -256.5 104.5t-105.5 255.5t105.5 256t256.5 105q148 0 247 -102q9 -10 0 -21l-77 -84q-9 -11 -21 -1q-66 56 -150 56q-85 0 -143 -60t-58 -149q0 -88 58 -148t143 -60q84 0 150 56q12 10 21 -1z" glyph-name="C" horiz-adv-x="707" unicode="C"/><glyph d="M293 700q174 0 271 -99t97 -251t-97 -251t-271 -99h-209q-15 0 -15 15v670q0 15 15 15h209zM293 137q104 0 157 55t53 158t-53 158t-157 55h-69v-426h69z" glyph-name="D" horiz-adv-x="704" unicode="D"/><glyph d="M460 137q15 0 15 -15v-107q0 -15 -15 -15h-376q-15 0 -15 15v670q0 15 15 15h375q15 0 15 -15v-107q0 -15 -15 -15h-235v-137h221q15 0 15 -15v-107q0 -15 -15 -15h-221v-152h236z" glyph-name="E" horiz-adv-x="540" unicode="E"/><glyph d="M450 700q15 0 15 -15v-107q0 -15 -15 -15h-226v-137h213q15 0 15 -15v-107q0 -15 -15 -15h-213v-274q0 -15 -15 -15h-125q-15 0 -15 15v670q0 15 15 15h366z" glyph-name="F" horiz-adv-x="525" unicode="F"/><glyph d="M721 401q15 0 15 -15v-68q0 -141 -87.5 -236t-232.5 -95q-154 0 -260.5 105.5t-106.5 257.5q0 149 105.5 253.5t256.5 104.5q148 0 247 -102q9 -10 0 -21l-77 -84q-9 -11 -21 -1q-66 56 -150 56q-85 0 -143 -59.5t-58 -146.5q0 -91 56.5 -151t148.5 -60q78 0 123.5 38.5 t48.5 94.5h-168q-15 0 -15 15v99q0 15 15 15h303z" glyph-name="G" horiz-adv-x="780" unicode="G"/><glyph d="M608 700q15 0 15 -15v-670q0 -15 -15 -15h-125q-15 0 -15 15v260h-244v-260q0 -15 -15 -15h-125q-15 0 -15 15v670q0 15 15 15h125q15 0 15 -15v-273h244v273q0 15 15 15h125z" glyph-name="H" horiz-adv-x="692" unicode="H"/><glyph d="M69 685q0 15 15 15h125q15 0 15 -15v-670q0 -15 -15 -15h-125q-15 0 -15 15v670z" glyph-name="I" horiz-adv-x="293" unicode="I"/><glyph d="M114 175q8 11 22 1q1 -1 7.5 -5t9 -5.5t9.5 -5.5t11.5 -5.5t12 -4.5t14.5 -4.5t15.5 -2.5t17.5 -1q101 0 101 129v414q0 15 15 15h125q15 0 15 -15v-419q0 -140 -67 -207.5t-184 -67.5q-125 0 -188 74q-7 8 0 21z" glyph-name="J" horiz-adv-x="558" unicode="J"/><glyph d="M646 18q5 -8 2.5 -13t-11.5 -5h-148q-12 0 -18 9l-194 271l-53 -61v-204q0 -15 -15 -15h-125q-15 0 -15 15v670q0 15 15 15h125q15 0 15 -15v-260l219 267q7 8 18 8h156q9 0 11.5 -5.5t-3.5 -12.5l-245 -283z" glyph-name="K" horiz-adv-x="684" unicode="K"/><glyph d="M440 137q15 0 15 -15v-107q0 -15 -15 -15h-356q-15 0 -15 15v670q0 15 15 15h125q15 0 15 -15v-548h216z" glyph-name="L" horiz-adv-x="504" unicode="L"/><glyph d="M805 700q15 0 15 -15v-670q0 -15 -15 -15h-125q-15 0 -15 15v395l-13 -47l-134 -351q-4 -12 -18 -12h-110q-14 0 -19 12l-134 351l-13 48v-396q0 -15 -15 -15h-125q-15 0 -15 15v670q0 15 15 15h137q14 0 18 -10l206 -510l204 510q4 10 18 10h138z" glyph-name="M" horiz-adv-x="889" unicode="M"/><glyph d="M630 700q15 0 15 -15v-670q0 -15 -15 -15h-142q-12 0 -18 10l-246 441v-436q0 -15 -15 -15h-125q-15 0 -15 15v670q0 15 15 15h141q12 0 18 -10l247 -442v437q0 15 15 15h125z" glyph-name="N" horiz-adv-x="714" unicode="N"/><glyph d="M409 -13q-149 0 -254.5 105t-105.5 255t105.5 255.5t254.5 105.5q150 0 255.5 -105.5t105.5 -255.5t-105.5 -255t-255.5 -105zM409 139q86 0 144.5 60t58.5 148q0 89 -58.5 149t-144.5 60t-144 -60t-58 -149q0 -88 58.5 -148t143.5 -60z" glyph-name="O" horiz-adv-x="819" unicode="O"/><glyph d="M297 700q123 0 191.5 -63.5t68.5 -168.5t-68.5 -168.5t-191.5 -63.5h-73v-221q0 -15 -15 -15h-125q-15 0 -15 15v670q0 15 15 15h213zM294 373q48 0 81.5 22t33.5 73t-33.5 73t-81.5 22h-70v-190h70z" glyph-name="P" horiz-adv-x="596" unicode="P"/><glyph d="M709 147l55 -55q10 -10 0 -21l-85 -85q-11 -10 -21 0l-56 57q-87 -56 -193 -56q-149 0 -254.5 105t-105.5 255t105.5 255.5t254.5 105.5q150 0 255.5 -105.5t105.5 -255.5q0 -111 -61 -200zM409 139q41 0 81 16l-74 75q-10 10 -1 21l86 84q11 10 21 0l73 -73q17 40 17 85 q0 89 -58.5 149t-144.5 60t-144 -60t-58 -149q0 -88 58.5 -148t143.5 -60z" glyph-name="Q" horiz-adv-x="819" unicode="Q"/><glyph d="M571 18q11 -18 -10 -18h-133q-12 0 -18 10l-145 226h-41v-221q0 -15 -15 -15h-125q-15 0 -15 15v670q0 15 15 15h213q123 0 191.5 -63.5t68.5 -168.5q0 -76 -36.5 -131.5t-105.5 -80.5zM224 563v-190h70q48 0 81.5 22t33.5 73t-33.5 73t-81.5 22h-70z" glyph-name="R" horiz-adv-x="623" unicode="R"/><glyph d="M219 503q0 -25 23.5 -43.5t58.5 -29.5t76.5 -28.5t76.5 -39t58.5 -63.5t23.5 -99q0 -99 -74 -155.5t-172 -56.5q-75 0 -141.5 32t-100.5 78q-8 11 1 21l69 77q9 13 22 2q78 -64 154 -64q38 0 64 18.5t26 50.5q0 22 -17.5 39t-45.5 29t-61.5 24.5t-67.5 29.5t-62 39.5 t-45.5 58.5t-17.5 83q0 92 66 147t157 55q123 0 218 -93q11 -9 2 -21l-65 -79q-9 -13 -21 -4q-73 51 -129 51q-36 0 -56 -17t-20 -42z" glyph-name="S" horiz-adv-x="580" unicode="S"/><glyph d="M517 700q15 0 15 -15v-107q0 -15 -15 -15h-149v-548q0 -15 -15 -15h-125q-15 0 -15 15v548h-149q-15 0 -15 15v107q0 15 15 15h453z" glyph-name="T" horiz-adv-x="581" unicode="T"/><glyph d="M588 700q15 0 15 -15v-413q0 -135 -74.5 -210t-194.5 -75q-121 0 -195.5 75t-74.5 210v413q0 15 15 15h125q15 0 15 -15v-413q0 -132 115 -132q56 0 85 34t29 98v413q0 15 15 15h125z" glyph-name="U" horiz-adv-x="667" unicode="U"/><glyph d="M521 688q4 12 17 12h130q19 0 12 -17l-242 -671q-4 -12 -19 -12h-115q-12 0 -17 12l-242 671q-7 17 12 17h130q13 0 17 -12l159 -484z" glyph-name="V" horiz-adv-x="725" unicode="V"/><glyph d="M1073 700q17 0 12 -17l-212 -671q-5 -12 -19 -12h-122q-14 0 -17 12l-151 455l-152 -455q-4 -12 -16 -12h-122q-16 0 -19 12l-210 671q-7 17 12 17h130q13 0 17 -12l133 -482l151 482q1 7 8 10q4 2 8 2h120q5 0 9 -2q4 -3 7 -10l151 -482l134 482q3 12 17 12h131z" glyph-name="W" horiz-adv-x="1130" unicode="W"/><glyph d="M619 18q10 -18 -10 -18h-132q-12 0 -18 10l-126 211l-126 -211q-6 -10 -18 -10h-132q-20 0 -10 18l204 340l-194 324q-10 18 10 18h132q12 0 18 -10l116 -194l116 194q6 10 18 10h132q20 0 10 -18l-194 -324z" glyph-name="X" horiz-adv-x="666" unicode="X"/><glyph d="M601 700q20 0 10 -18l-204 -360v-307q0 -15 -15 -15h-126q-15 0 -15 15v310l-204 357q-10 18 10 18h132q12 0 18 -10l122 -220l122 220q6 10 18 10h132z" glyph-name="Y" horiz-adv-x="658" unicode="Y"/><glyph d="M540 137q15 0 15 -15v-107q0 -15 -15 -15h-471q-15 0 -15 15v112q0 9 6 18l317 418h-298q-15 0 -15 15v107q0 15 15 15h451q15 0 15 -15v-112q0 -9 -6 -18l-318 -418h319z" glyph-name="Z" horiz-adv-x="608" unicode="Z"/><glyph d="M278 745q15 0 15 -15v-91q0 -15 -15 -15h-62v-633h62q15 0 15 -15v-91q0 -15 -15 -15h-203q-15 0 -15 15v845q0 15 15 15h203z" glyph-name="bracketleft" horiz-adv-x="353" unicode="["/><glyph d="M34 745h127q13 0 18 -12l328 -846q6 -17 -12 -17h-127q-14 0 -18 12l-328 846q-6 17 12 17z" glyph-name="backslash" horiz-adv-x="529" unicode="\"/><glyph d="M75 745h203q15 0 15 -15v-845q0 -15 -15 -15h-203q-15 0 -15 15v91q0 15 15 15h62v633h-62q-15 0 -15 15v91q0 15 15 15z" glyph-name="bracketright" horiz-adv-x="353" unicode="]"/><glyph d="M526 321q4 -7 0.5 -12.5t-11.5 -5.5h-96q-12 0 -17 11l-108 249l-108 -249q-5 -11 -17 -11h-96q-8 0 -11.5 5.5t0.5 12.5l180 368q6 11 16 11h72q10 0 16 -11z" glyph-name="asciicircum" horiz-adv-x="588" unicode="^"/><glyph d="M545 0q15 0 15 -15v-91q0 -15 -15 -15h-470q-15 0 -15 15v91q0 15 15 15h470z" glyph-name="underscore" horiz-adv-x="620" unicode="_"/><glyph d="M52 728h108q12 0 17 -12l60 -126q8 -17 -12 -17h-108q-12 0 -17 12l-60 126q-8 17 12 17z" glyph-name="grave" horiz-adv-x="254" unicode="`"/><glyph d="M544 490q15 0 15 -15v-460q0 -15 -15 -15h-102q-13 0 -15 15l-6 42q-52 -64 -140 -64q-102 0 -169.5 72.5t-67.5 178.5q0 108 67.5 182t169.5 74q86 0 141 -70l5 45q2 15 15 15h102zM299 130q49 0 79.5 32t30.5 83q0 50 -30.5 84t-79.5 34q-48 0 -79.5 -33t-31.5 -85 q0 -51 31.5 -83t79.5 -32z" glyph-name="a" unicode="a"/><glyph d="M337 500q102 0 169.5 -74t67.5 -182q0 -106 -67.5 -178.5t-169.5 -72.5q-88 0 -140 64l-6 -42q-2 -15 -15 -15h-102q-15 0 -15 15v700q0 15 15 15h120q15 0 15 -15v-270q52 55 128 55zM319 130q48 0 79.5 32t31.5 83q0 52 -31.5 85t-79.5 33q-49 0 -79.5 -34t-30.5 -84 q0 -51 30.5 -83t79.5 -32z" glyph-name="b" unicode="b"/><glyph d="M299 132q49 0 93 38q12 10 22 0l72 -69q10 -10 1 -21q-76 -87 -192 -87q-106 0 -178.5 74t-72.5 181q0 105 73 178.5t178 73.5q113 0 189 -87q9 -11 -1 -21l-72 -70q-10 -10 -22 1q-43 38 -90 38q-48 0 -79.5 -32.5t-31.5 -80.5q0 -49 31.5 -82.5t79.5 -33.5z" glyph-name="c" horiz-adv-x="530" unicode="c"/><glyph d="M544 730q15 0 15 -15v-700q0 -15 -15 -15h-102q-13 0 -15 15l-6 42q-52 -64 -140 -64q-102 0 -169.5 72.5t-67.5 178.5q0 108 67.5 182t169.5 74q76 0 128 -55v270q0 15 15 15h120zM299 130q49 0 79.5 32t30.5 83q0 50 -30.5 84t-79.5 34q-48 0 -79.5 -33t-31.5 -85 q0 -51 31.5 -83t79.5 -32z" glyph-name="d" unicode="d"/><glyph d="M526 256q0 -33 -7 -47.5t-29 -14.5h-297q23 -81 126 -81q49 0 95 29q12 8 22 -2l52 -50q9 -11 -2 -22q-75 -75 -182 -75q-114 0 -187 73.5t-73 180.5t71 180t178 73q104 0 168.5 -71t64.5 -173zM294 373q-39 0 -67 -21.5t-36 -62.5h202q-7 41 -34 62.5t-65 21.5z" glyph-name="e" horiz-adv-x="570" unicode="e"/><glyph d="M462 650q7 -7 -1 -15l-60 -58q-7 -7 -14 -2q-43 26 -77 26q-32 0 -42.5 -14.5t-10.5 -43.5v-53h99q15 0 15 -15v-91q0 -15 -15 -15h-99v-354q0 -15 -15 -15h-120q-15 0 -15 15v354h-58q-15 0 -15 15v91q0 15 15 15h58v73q0 86 49 129.5t133 43.5q102 0 173 -86z" glyph-name="f" horiz-adv-x="453" unicode="f"/><glyph d="M547 490q15 0 15 -15v-471q0 -56 -24.5 -97.5t-64.5 -63t-83 -31.5t-89 -10q-130 0 -218 64q-10 7 -4 20l39 70q9 12 20 6q65 -38 151 -38q51 0 93 21.5t42 71.5v46q-58 -66 -144 -66q-101 0 -168.5 73.5t-67.5 178.5t67.5 178.5t168.5 73.5q82 0 140 -65l3 39 q2 15 15 15h109zM299 134q46 0 78 35t32 81t-32 80.5t-78 34.5q-47 0 -79 -33.5t-32 -81.5q0 -49 31.5 -82.5t79.5 -33.5z" glyph-name="g" horiz-adv-x="621" unicode="g"/><glyph d="M360 501q76 0 127 -57.5t51 -153.5v-275q0 -15 -15 -15h-120q-15 0 -15 15v245q0 54 -24.5 78t-59.5 24q-44 0 -69.5 -32t-25.5 -58v-257q0 -15 -15 -15h-120q-15 0 -15 15v700q0 15 15 15h120q15 0 15 -15v-302q53 88 151 88z" glyph-name="h" horiz-adv-x="597" unicode="h"/><glyph d="M139 576q-34 0 -57 23.5t-23 56.5q0 34 23 57.5t57 23.5t57 -23.5t23 -57.5q0 -33 -23 -56.5t-57 -23.5zM64 475q0 15 15 15h120q15 0 15 -15v-460q0 -15 -15 -15h-120q-15 0 -15 15v460z" glyph-name="i" horiz-adv-x="278" unicode="i"/><glyph d="M205 576q-33 0 -56.5 23.5t-23.5 56.5q0 34 23.5 57.5t56.5 23.5q34 0 57.5 -23.5t23.5 -57.5q0 -33 -23.5 -56.5t-57.5 -23.5zM147 490h120q15 0 15 -15v-464q0 -100 -57 -153t-154 -56q-10 0 -12 8l-38 122q-4 11 7 11q42 3 73 26.5t31 71.5v434q0 15 15 15z" glyph-name="j" horiz-adv-x="345" unicode="j"/><glyph d="M560 18q5 -8 2.5 -13t-11.5 -5h-129q-12 0 -18 9l-136 181l-59 -64v-111q0 -15 -15 -15h-120q-15 0 -15 15v700q0 15 15 15h120q15 0 15 -15v-407l160 174q7 8 17 8h136q10 0 12.5 -5.5t-4.5 -12.5l-171 -184z" glyph-name="k" horiz-adv-x="594" unicode="k"/><glyph d="M59 715q0 15 15 15h120q15 0 15 -15v-700q0 -15 -15 -15h-120q-15 0 -15 15v700z" glyph-name="l" horiz-adv-x="268" unicode="l"/><glyph d="M679 501q83 0 135.5 -57t52.5 -154v-275q0 -15 -15 -15h-120q-15 0 -15 15v245q0 54 -24.5 78t-59.5 24q-43 0 -69 -27.5t-26 -55.5v-264q0 -15 -15 -15h-120q-15 0 -15 15v245q0 54 -24.5 78t-59.5 24q-44 0 -69.5 -32t-25.5 -58v-257q0 -15 -15 -15h-120q-15 0 -15 15 v460q0 15 15 15h116q13 0 15 -15l4 -62q53 88 151 88q48 0 87 -23t62 -66q60 89 170 89z" glyph-name="m" horiz-adv-x="926" unicode="m"/><glyph d="M360 501q76 0 127 -57.5t51 -153.5v-275q0 -15 -15 -15h-120q-15 0 -15 15v245q0 54 -24.5 78t-59.5 24q-44 0 -69.5 -32t-25.5 -58v-257q0 -15 -15 -15h-120q-15 0 -15 15v460q0 15 15 15h116q13 0 15 -15l4 -62q53 88 151 88z" glyph-name="n" horiz-adv-x="597" unicode="n"/><glyph d="M299 -10q-106 0 -180.5 74.5t-74.5 180.5q0 107 74.5 181.5t180.5 74.5q107 0 181.5 -74.5t74.5 -181.5q0 -106 -74.5 -180.5t-181.5 -74.5zM299 129q47 0 79 33t32 83q0 51 -32 84t-79 33q-46 0 -78.5 -33.5t-32.5 -83.5t32.5 -83t78.5 -33z" glyph-name="o" horiz-adv-x="599" unicode="o"/><glyph d="M337 500q102 0 169.5 -74t67.5 -182q0 -106 -67.5 -178.5t-169.5 -72.5q-79 0 -128 51v-219q0 -15 -15 -15h-120q-15 0 -15 15v650q0 15 15 15h102q13 0 15 -15l5 -45q55 70 141 70zM319 130q48 0 79.5 32t31.5 83q0 52 -31.5 85t-79.5 33q-49 0 -79.5 -34t-30.5 -84 q0 -51 30.5 -83t79.5 -32z" glyph-name="p" unicode="p"/><glyph d="M544 490q15 0 15 -15v-650q0 -15 -15 -15h-120q-15 0 -15 15v219q-49 -51 -128 -51q-102 0 -169.5 72.5t-67.5 178.5q0 108 67.5 182t169.5 74q86 0 141 -70l5 45q2 15 15 15h102zM299 130q49 0 79.5 32t30.5 83q0 50 -30.5 84t-79.5 34q-48 0 -79.5 -33t-31.5 -85 q0 -51 31.5 -83t79.5 -32z" glyph-name="q" unicode="q"/><glyph d="M402 476q10 -9 5 -22l-33 -86q-5 -16 -25 -11q-27 8 -41 8q-45 0 -72 -30t-27 -76v-244q0 -15 -15 -15h-120q-15 0 -15 15v460q0 15 15 15h115q13 0 15 -15l4 -57q43 83 126 83q41 0 68 -25z" glyph-name="r" horiz-adv-x="422" unicode="r"/><glyph d="M196 348q0 -18 23.5 -29.5t57 -20.5t67 -23t57 -47t23.5 -83q0 -71 -59.5 -113t-133.5 -42q-59 0 -109 24t-79 58q-7 9 0 20l44 64q7 9 23 0q66 -41 116 -41q52 0 52 32q0 18 -23.5 30t-56.5 22t-66 24.5t-56.5 46t-23.5 77.5q0 71 51.5 112.5t121.5 41.5q109 0 172 -74 q8 -10 -1 -21l-45 -59q-7 -9 -22 1q-59 34 -89 34q-21 0 -32.5 -10t-11.5 -24z" glyph-name="s" horiz-adv-x="462" unicode="s"/><glyph d="M359 490q15 0 15 -15v-91q0 -15 -15 -15h-80v-354q0 -15 -15 -15h-120q-15 0 -15 15v354h-80q-15 0 -15 15v91q0 15 15 15h80v135q0 15 15 15h120q15 0 15 -15v-135h80z" glyph-name="t" horiz-adv-x="408" unicode="t"/><glyph d="M518 490q15 0 15 -15v-460q0 -15 -15 -15h-116q-13 0 -15 15l-4 53q-57 -81 -142 -81q-83 0 -135 57t-52 154v277q0 15 15 15h120q15 0 15 -15v-247q0 -54 25.5 -77.5t60.5 -23.5q44 0 68.5 27.5t24.5 59.5v261q0 15 15 15h120z" glyph-name="u" horiz-adv-x="592" unicode="u"/><glyph d="M407 478q5 12 18 12h121q18 0 12 -17l-184 -461q-4 -12 -18 -12h-118q-14 0 -18 12l-184 461q-6 17 12 17h121q13 0 18 -12l110 -302z" glyph-name="v" horiz-adv-x="594" unicode="v"/><glyph d="M883 490q18 0 12 -17l-170 -461q-5 -12 -18 -12h-116q-13 0 -18 12l-108 284l-108 -284q-5 -12 -18 -12h-115q-13 0 -18 12l-170 461q-6 17 12 17h118q14 0 18 -12l102 -302l106 302q3 9 10 10q4 2 8 2h111q4 0 8 -2q7 -1 10 -10l107 -302l101 302q5 12 18 12h118z" glyph-name="w" horiz-adv-x="931" unicode="w"/><glyph d="M544 18q5 -8 2 -13t-12 -5h-136q-11 0 -18 10l-83 129l-84 -129q-7 -10 -18 -10h-136q-9 0 -12 5t2 13l161 233l-153 221q-5 8 -2 13t12 5h136q11 0 18 -10l76 -116l75 116q7 10 18 10h136q9 0 12 -5t-2 -13l-153 -221z" glyph-name="x" horiz-adv-x="593" unicode="x"/><glyph d="M548 490q18 0 12 -17l-259 -651q-5 -12 -18 -12h-117q-21 0 -12 17l71 172l-189 474q-6 17 12 17h121q13 0 18 -12l110 -302l110 302q5 12 18 12h123z" glyph-name="y" horiz-adv-x="596" unicode="y"/><glyph d="M459 475v-95q0 -12 -7 -19l-233 -239h225q15 0 15 -15v-92q0 -15 -15 -15h-390q-15 0 -15 15v96q0 12 7 19l232 239h-224q-15 0 -15 15v91q0 15 15 15h390q15 0 15 -15z" glyph-name="z" horiz-adv-x="498" unicode="z"/><glyph d="M313 745q15 0 15 -15v-91q0 -15 -15 -15h-20q-35 0 -35 -31v-209q0 -10 -7 -18l-37 -49q-10 -10 0 -21l37 -48q7 -10 7 -18v-207q0 -32 35 -32h20q15 0 15 -15v-91q0 -15 -15 -15h-107q-41 0 -72.5 24t-31.5 81v250q0 11 -5 19l-33 52q-6 11 -1 20l34 54q5 9 5 19v251 q0 57 31.5 81t72.5 24h107z" glyph-name="braceleft" horiz-adv-x="388" unicode="{"/><glyph d="M64 785q0 15 15 15h125q15 0 15 -15v-960q0 -15 -15 -15h-125q-15 0 -15 15v960z" glyph-name="bar" horiz-adv-x="283" unicode="|"/><glyph d="M47 745h107q41 0 72.5 -24t31.5 -81v-251q0 -10 5 -19l34 -54q5 -9 -1 -20l-33 -52q-5 -8 -5 -19v-250q0 -57 -31.5 -81t-72.5 -24h-107q-15 0 -15 15v91q0 15 15 15h20q35 0 35 32v207q0 8 7 18l37 48q10 11 0 21l-37 49q-7 8 -7 18v209q0 31 -35 31h-20q-15 0 -15 15 v91q0 15 15 15z" glyph-name="braceright" horiz-adv-x="360" unicode="}"/><glyph d="M182 370q38 0 72 -19.5t62 -39t53 -19.5q18 0 31.5 9t18.5 21q6 9 12 9h37q11 0 11 -11q2 -59 -33 -89.5t-89 -30.5q-38 0 -71.5 19.5t-61.5 39t-52 19.5q-18 0 -32.5 -9t-19.5 -21q-3 -9 -12 -9h-37q-13 0 -11 14q7 58 39.5 87.5t82.5 29.5z" glyph-name="asciitilde" horiz-adv-x="539" unicode="~"/><glyph d="M162 533q33 0 56.5 -23.5t23.5 -57.5q0 -33 -23.5 -56.5t-56.5 -23.5q-34 0 -57.5 23.5t-23.5 56.5q0 34 23.5 57.5t57.5 23.5zM242 -94q4 -42 -19.5 -68t-60.5 -26t-60.5 26t-19.5 68l39 385q1 14 15 14h53q14 0 15 -14z" glyph-name="exclamdown" horiz-adv-x="274" unicode="¡"/><glyph d="M486 174q10 -10 1 -21q-58 -66 -145 -81v-97q0 -15 -15 -15h-68q-15 0 -15 15v98q-88 17 -144 85.5t-56 159.5q0 90 56.5 157.5t143.5 84.5v125q0 15 15 15h68q15 0 15 -15v-124q86 -17 142 -81q9 -11 -1 -21l-72 -68q-10 -10 -22 1q-23 20 -47 29v-210q26 10 50 31 q12 9 22 0zM188 318q0 -69 56 -100v197q-56 -30 -56 -97z" glyph-name="cent" horiz-adv-x="520" unicode="¢"/><glyph d="M328 556q-34 0 -55.5 -19t-21.5 -55q0 -18 6 -35t11 -25.5t18 -26.5h207q15 0 15 -15v-107q0 -15 -15 -15h-165q-5 -64 -61 -121h245q15 0 15 -15v-107q0 -15 -15 -15h-433q-15 0 -15 15v122q46 22 74 48.5t34 72.5h-97q-15 0 -15 15v107q0 15 15 15h41q-24 48 -24 108 q0 89 65.5 147t155.5 58q67 0 118.5 -27t102.5 -77q12 -11 -1 -29l-54 -72q-9 -14 -31 2q-38 30 -63 40.5t-57 10.5z" glyph-name="sterling" horiz-adv-x="600" unicode="£"/><glyph d="M531 476q0 -52 -24 -102l46 -46l-78 -77l-41 41q-58 -40 -127 -40q-68 0 -125 38l-39 -39l-78 77l44 44q-26 47 -26 104t27 108l-45 45l78 77l42 -42q55 36 122 36q69 0 124 -38l44 44l78 -77l-48 -48q26 -47 26 -105zM307 354q60 0 92 39.5t32 82.5q0 42 -32 82t-92 40 q-59 0 -90.5 -40t-31.5 -82q0 -43 31 -82.5t91 -39.5z" glyph-name="currency" unicode="¤"/><glyph d="M601 700q20 0 10 -18l-202 -357h72q15 0 15 -15v-79q0 -15 -15 -15h-74v-40h74q15 0 15 -15v-79q0 -15 -15 -15h-74v-52q0 -15 -15 -15h-126q-15 0 -15 15v52h-84q-15 0 -15 15v79q0 15 15 15h84v40h-84q-15 0 -15 15v79q0 15 15 15h84l-204 357q-10 18 10 18h132 q12 0 18 -10l122 -220l122 220q6 10 18 10h132z" glyph-name="yen" horiz-adv-x="648" unicode="¥"/><glyph d="M204 800q15 0 15 -15v-280q0 -15 -15 -15h-125q-15 0 -15 15v280q0 15 15 15h125zM204 120q15 0 15 -15v-280q0 -15 -15 -15h-125q-15 0 -15 15v280q0 15 15 15h125z" glyph-name="brokenbar" horiz-adv-x="283" unicode="¦"/><glyph d="M673 297q0 -121 -112 -179q-7 -92 -82.5 -144t-174.5 -52q-85 0 -153 33t-106 82q-12 14 0 28l54 74q10 16 31 1q97 -68 176 -68q45 0 71 16.5t26 47.5q0 26 -25.5 45t-63.5 29t-82.5 26.5t-82.5 36t-63.5 60t-25.5 96.5q0 127 112 182q7 89 74 139t160 50 q128 0 239 -104q11 -11 -1 -29l-54 -72q-9 -13 -31 2q-47 29 -79.5 41.5t-69.5 12.5q-40 0 -60 -17t-20 -41t19 -40.5t49 -27t67 -20.5t73.5 -25t66.5 -36t49 -59t19 -88zM219 431q0 -30 32 -50t74.5 -29.5t96 -30.5t85.5 -50q7 12 7 27q0 29 -32 49t-74.5 30.5t-95.5 32 t-85 49.5q-8 -14 -8 -28z" glyph-name="section" horiz-adv-x="712" unicode="§"/><glyph d="M89 556q-30 0 -52 21.5t-22 53.5q0 31 22 52.5t52 21.5t52 -21.5t22 -52.5q0 -32 -22 -53.5t-52 -21.5zM316 556q-30 0 -52 21.5t-22 53.5q0 31 22 52.5t52 21.5t52 -21.5t22 -52.5q0 -32 -22 -53.5t-52 -21.5z" glyph-name="dieresis" horiz-adv-x="405" unicode="¨"/><glyph d="M332 136q-119 0 -203.5 84t-84.5 202t84.5 202t203.5 84t204 -84t85 -202t-85 -202t-204 -84zM332 220q83 0 141 59t58 143t-58 143t-141 59t-140.5 -59t-57.5 -143t57.5 -143t140.5 -59zM420 336q9 -12 -2 -21q-32 -29 -79 -29q-55 0 -95.5 40t-40.5 96q0 57 40.5 96.5 t95.5 39.5q45 0 81 -29q9 -8 0 -21l-28 -30q-7 -8 -20 -1q-14 7 -31 7q-25 0 -43 -18t-18 -44t18 -44t43 -18q10 0 31 7q14 6 20 -1z" glyph-name="copyright" horiz-adv-x="665" unicode="©"/><glyph d="M305 700h94v-359h-94l-8 24q-34 -24 -76 -24q-76 0 -129 53t-53 129t53 129t129 53q42 0 76 -24zM221 446q33 0 55.5 22t22.5 55t-22.5 56t-55.5 23t-55 -23t-22 -56t22 -55t55 -22z" glyph-name="ordfeminine" horiz-adv-x="438" unicode="ª"/><glyph d="M45 316q0 11 8 18l110 99q7 6 12.5 3t5.5 -13v-75q0 -11 -8 -18l-67 -57l67 -57q8 -7 8 -18v-75q0 -10 -5.5 -12.5t-12.5 3.5l-110 98q-8 7 -8 18v86zM218 316q0 11 8 18l110 99q7 6 12.5 3t5.5 -13v-75q0 -11 -8 -18l-67 -57l67 -57q8 -7 8 -18v-75q0 -10 -5.5 -12.5 t-12.5 3.5l-110 98q-8 7 -8 18v86z" glyph-name="guillemotleft" horiz-adv-x="399" unicode="«"/><glyph d="M480 315q15 0 15 -15v-162q0 -15 -15 -15h-117q-15 0 -15 15v55h-273q-15 0 -15 15v92q0 15 15 15h405z" glyph-name="logicalnot" horiz-adv-x="555" unicode="¬"/><glyph d="M371 336q15 0 15 -15v-91q0 -15 -15 -15h-301q-15 0 -15 15v91q0 15 15 15h301z" glyph-name="uni00AD" horiz-adv-x="410" unicode="­"/><glyph d="M332 708q119 0 204 -84t85 -202t-85 -202t-204 -84t-203.5 84t-84.5 202t84.5 202t203.5 84zM332 220q83 0 141 59t58 143t-58 143t-141 59t-140.5 -59t-57.5 -143t57.5 -143t140.5 -59zM403 374l67 -67q7 -9 -3 -9h-67q-7 0 -10 3l-66 68h-33v-64q0 -7 -7 -7h-59 q-8 0 -8 7v234q0 7 8 7h135q110 0 110 -88q0 -69 -67 -84zM361 487h-70v-58h70q32 0 32 29t-32 29z" glyph-name="registered" horiz-adv-x="665" unicode="®"/><glyph d="M340 700q15 0 15 -15v-86q0 -15 -15 -15h-310q-15 0 -15 15v86q0 15 15 15h310z" glyph-name="macron" horiz-adv-x="370" unicode="¯"/><glyph d="M209 719q61 0 104.5 -43t43.5 -103q0 -61 -43.5 -104.5t-104.5 -43.5t-105 43.5t-44 104.5q0 60 44 103t105 43zM209 630q-29 0 -43 -18.5t-14 -38.5q0 -22 14 -40.5t43 -18.5q28 0 42.5 19t14.5 40q0 19 -14.5 38t-42.5 19z" glyph-name="degree" horiz-adv-x="417" unicode="°"/><glyph d="M90 270q-15 0 -15 15v79q0 15 15 15h113v113q0 15 15 15h79q15 0 15 -15v-113h112q15 0 15 -15v-79q0 -15 -15 -15h-112v-113q0 -15 -15 -15h-79q-15 0 -15 15v113h-113zM434 109q15 0 15 -15v-79q0 -15 -15 -15h-354q-15 0 -15 15v79q0 15 15 15h354z" glyph-name="plusminus" horiz-adv-x="514" unicode="±"/><glyph d="M109 704q34 0 59 -22.5t25 -52.5q0 -26 -14.5 -47t-53.5 -61l-47 -49h118v-32h-168v32l68 69q28 29 36.5 38.5t15.5 22.5t7 27q0 18 -14 31t-32 13q-19 0 -33 -13t-14 -37v-14h-37v14q0 35 24.5 58t59.5 23z" glyph-name="uni00B2" horiz-adv-x="240" unicode="²"/><glyph d="M137 703q32 0 56 -20.5t24 -47.5q0 -32 -30 -53q42 -18 42 -66q0 -34 -27.5 -57t-64.5 -23q-41 0 -67.5 27t-23.5 64h38q-5 -23 11.5 -41t41.5 -18q22 0 38 13.5t16 34.5q0 28 -20 39t-54 5v32q63 3 63 43q0 15 -12.5 26t-30.5 11q-22 0 -35 -15.5t-11 -41.5h-38 q-4 37 21 62.5t63 25.5z" glyph-name="uni00B3" horiz-adv-x="274" unicode="³"/><glyph d="M202 728q20 0 12 -17l-60 -126q-5 -12 -17 -12h-108q-20 0 -12 17l60 126q5 12 17 12h108z" glyph-name="acute" horiz-adv-x="231" unicode="´"/><glyph d="M518 490q15 0 15 -15v-460q0 -15 -15 -15h-116q-13 0 -15 15l-4 53q-57 -81 -142 -81q-25 0 -42 4v-166q0 -15 -15 -15h-120q-15 0 -15 15v558h5v92q0 15 15 15h120q15 0 15 -15v-247q0 -54 25.5 -77.5t60.5 -23.5q44 0 68.5 27.5t24.5 59.5v261q0 15 15 15h120z" glyph-name="uni00B5" horiz-adv-x="582" unicode="µ"/><glyph d="M299 700h213q15 0 15 -15v-670q0 -15 -15 -15h-125q-15 0 -15 15v221h-73q-123 0 -191.5 63.5t-68.5 168.5t68.5 168.5t191.5 63.5zM628 685q0 15 15 15h125q15 0 15 -15v-670q0 -15 -15 -15h-125q-15 0 -15 15v670zM302 373h70v190h-70q-48 0 -81.5 -22t-33.5 -73 t33.5 -73t81.5 -22z" glyph-name="paragraph" horiz-adv-x="842" unicode="¶"/><glyph d="M126 199q-34 0 -57.5 23.5t-23.5 57.5q0 33 23.5 56.5t57.5 23.5q33 0 56.5 -23.5t23.5 -56.5q0 -34 -23.5 -57.5t-56.5 -23.5z" glyph-name="periodcentered" horiz-adv-x="274" unicode="·"/><glyph d="M115 -32q37 -3 64 -25t27 -59q0 -64 -53.5 -89t-128.5 -14q-9 1 -9 11v52q0 10 11 10q82 -9 82 24q0 8 -10.5 13.5t-28.5 6.5t-42 -6q-12 -5 -12 7v54q0 9 5 12l38 35h94z" glyph-name="cedilla" horiz-adv-x="221" unicode="¸"/><glyph d="M103 701v-261h-37v225h-27v36h64z" glyph-name="uni00B9" horiz-adv-x="157" unicode="¹"/><glyph d="M221 341q-76 0 -129 53t-53 129t53 129t129 53t129 -53t53 -129t-53 -129t-129 -53zM221 446q33 0 55.5 22t22.5 55t-22.5 56t-55.5 23t-55 -23t-22 -56t22 -55t55 -22z" glyph-name="ordmasculine" horiz-adv-x="442" unicode="º"/><glyph d="M181 316v-86q0 -11 -8 -18l-110 -98q-7 -6 -12.5 -3.5t-5.5 12.5v75q0 11 8 18l67 57l-67 57q-8 7 -8 18v75q0 10 5.5 13t12.5 -3l110 -99q8 -7 8 -18zM354 316v-86q0 -11 -8 -18l-110 -98q-7 -6 -12.5 -3.5t-5.5 12.5v75q0 11 8 18l67 57l-67 57q-8 7 -8 18v75 q0 10 5.5 13t12.5 -3l110 -99q8 -7 8 -18z" glyph-name="guillemotright" horiz-adv-x="399" unicode="»"/><glyph d="M104 701v-261h-37v225h-27v36h64zM525 700l-430 -700h-48l436 700h42zM529 261v-154h27v-31h-27v-76h-37v76h-132l132 185h37zM492 207l-70 -100h70v100z" glyph-name="onequarter" horiz-adv-x="596" unicode="¼"/><glyph d="M104 701v-261h-37v225h-27v36h64zM525 700l-430 -700h-48l436 700h42zM444 264q34 0 59 -22.5t25 -52.5q0 -26 -14.5 -47t-53.5 -61l-47 -49h118v-32h-168v32l68 69q28 29 36.5 38.5t15.5 22.5t7 27q0 18 -14 31t-32 13q-19 0 -33 -13t-14 -37v-14h-37v14q0 35 24.5 58 t59.5 23z" glyph-name="onehalf" horiz-adv-x="571" unicode="½"/><glyph d="M131 703q32 0 56 -20.5t24 -47.5q0 -32 -30 -53q42 -18 42 -66q0 -34 -27.5 -57t-64.5 -23q-41 0 -67.5 27t-23.5 64h38q-5 -23 11.5 -41t41.5 -18q22 0 38 13.5t16 34.5q0 28 -20 39t-54 5v32q63 3 63 43q0 15 -12.5 26t-30.5 11q-22 0 -35 -15.5t-11 -41.5h-38 q-4 37 21 62.5t63 25.5zM556 700l-430 -700h-48l436 700h42zM550 261v-154h27v-31h-27v-76h-37v76h-132l132 185h37zM513 207l-70 -100h70v100z" glyph-name="threequarters" horiz-adv-x="617" unicode="¾"/><glyph d="M283 372q-33 0 -56.5 23.5t-23.5 56.5q0 34 23.5 57.5t56.5 23.5q34 0 57.5 -23.5t23.5 -57.5q0 -33 -23.5 -56.5t-57.5 -23.5zM504 -52q12 -16 1 -30q-87 -106 -231 -106q-91 0 -160 54t-69 138q0 68 37.5 113t132.5 94l8 79q2 15 15 15h93q13 0 15 -15l10 -140 q1 -12 -13 -17q-81 -25 -110 -50t-29 -56q0 -30 25.5 -47t56.5 -17q64 0 128 57q18 16 31 0z" glyph-name="questiondown" horiz-adv-x="546" unicode="¿"/><glyph d="M274 765l-60 126q-8 17 12 17h108q12 0 17 -12l60 -126q8 -17 -12 -17h-108q-12 0 -17 12zM670 17q7 -17 -12 -17h-130q-13 0 -17 12l-35 108h-247l-35 -108q-4 -12 -17 -12h-130q-19 0 -12 17l242 671q5 12 17 12h115q15 0 19 -12zM271 245h164l-82 251z" glyph-name="Agrave" horiz-adv-x="705" unicode="À"/><glyph d="M308 753q-20 0 -12 17l60 126q5 12 17 12h108q20 0 12 -17l-60 -126q-5 -12 -17 -12h-108zM670 17q7 -17 -12 -17h-130q-13 0 -17 12l-35 108h-247l-35 -108q-4 -12 -17 -12h-130q-19 0 -12 17l242 671q5 12 17 12h115q15 0 19 -12zM271 245h164l-82 251z" glyph-name="Aacute" horiz-adv-x="705" unicode="Á"/><glyph d="M208 772q-10 0 -12.5 5.5t3.5 12.5l98 110q7 8 18 8h86q11 0 18 -8l99 -110q6 -7 3 -12.5t-13 -5.5h-75q-11 0 -18 8l-57 67l-57 -67q-7 -8 -18 -8h-75zM670 17q7 -17 -12 -17h-130q-13 0 -17 12l-35 108h-247l-35 -108q-4 -12 -17 -12h-130q-19 0 -12 17l242 671 q5 12 17 12h115q15 0 19 -12zM271 245h164l-82 251z" glyph-name="Acircumflex" horiz-adv-x="705" unicode="Â"/><glyph d="M177 811q-10 0 -10 14q4 52 34 79t77 27q28 0 53.5 -11t41.5 -24.5t36 -24.5t38 -11q35 0 47 27q3 8 11 8h34q10 0 10 -10q-3 -54 -33.5 -82t-79.5 -28q-27 0 -52 11t-41 24.5t-36.5 24.5t-38.5 11q-34 0 -46 -27q-3 -8 -11 -8h-34zM670 17q7 -17 -12 -17h-130 q-13 0 -17 12l-35 108h-247l-35 -108q-4 -12 -17 -12h-130q-19 0 -12 17l242 671q5 12 17 12h115q15 0 19 -12zM271 245h164l-82 251z" glyph-name="Atilde" horiz-adv-x="705" unicode="Ã"/><glyph d="M244 766q-30 0 -52 21.5t-22 53.5q0 31 22 52.5t52 21.5t52 -21.5t22 -52.5q0 -32 -22 -53.5t-52 -21.5zM471 766q-30 0 -52 21.5t-22 53.5q0 31 22 52.5t52 21.5t52 -21.5t22 -52.5q0 -32 -22 -53.5t-52 -21.5zM670 17q7 -17 -12 -17h-130q-13 0 -17 12l-35 108h-247 l-35 -108q-4 -12 -17 -12h-130q-19 0 -12 17l242 671q5 12 17 12h115q15 0 19 -12zM271 245h164l-82 251z" glyph-name="Adieresis" horiz-adv-x="705" unicode="Ä"/><glyph d="M359 744q-45 0 -77 31t-32 74q0 44 31.5 75t77.5 31q42 0 73.5 -31.5t31.5 -74.5t-31.5 -74t-73.5 -31zM357 873q-9 0 -16 -6.5t-7 -16.5q0 -9 7 -16t16 -7q10 0 17 7t7 16q0 10 -7 16.5t-17 6.5zM670 17q7 -17 -12 -17h-130q-13 0 -17 12l-35 108h-247l-35 -108 q-4 -12 -17 -12h-130q-19 0 -12 17l242 671q5 12 17 12h115q15 0 19 -12zM271 245h164l-82 251z" glyph-name="Aring" horiz-adv-x="705" unicode="Å"/><glyph d="M797 137q15 0 15 -15v-107q0 -15 -15 -15h-376q-15 0 -15 15v121h-168l-48 -124q-5 -12 -17 -12h-131q-19 0 -12 17l282 671q4 12 17 12h467q15 0 15 -15v-107q0 -15 -15 -15h-235v-137h221q15 0 15 -15v-107q0 -15 -15 -15h-221v-152h236zM288 267h118v306z" glyph-name="AE" horiz-adv-x="867" unicode="Æ"/><glyph d="M581 194l77 -83q10 -11 0 -21q-87 -91 -218 -102l-23 -20q37 -3 64 -25t27 -59q0 -64 -53.5 -89t-128.5 -14q-9 1 -9 11v52q0 10 11 10q82 -9 82 24q0 8 -10.5 13.5t-28.5 6.5t-42 -6q-12 -5 -12 7v54q0 9 5 12l29 27q-130 21 -216 120.5t-86 234.5q0 151 105.5 256 t256.5 105q148 0 247 -102q9 -10 0 -21l-77 -84q-9 -11 -21 -1q-66 56 -150 56q-85 0 -143 -60t-58 -149q0 -88 58 -148t143 -60q84 0 150 56q12 10 21 -1z" glyph-name="Ccedilla" horiz-adv-x="707" unicode="Ç"/><glyph d="M144 908h108q12 0 17 -12l60 -126q8 -17 -12 -17h-108q-12 0 -17 12l-60 126q-8 17 12 17zM460 137q15 0 15 -15v-107q0 -15 -15 -15h-376q-15 0 -15 15v670q0 15 15 15h375q15 0 15 -15v-107q0 -15 -15 -15h-235v-137h221q15 0 15 -15v-107q0 -15 -15 -15h-221v-152h236 z" glyph-name="Egrave" horiz-adv-x="540" unicode="È"/><glyph d="M399 908q20 0 12 -17l-60 -126q-5 -12 -17 -12h-108q-20 0 -12 17l60 126q5 12 17 12h108zM460 137q15 0 15 -15v-107q0 -15 -15 -15h-376q-15 0 -15 15v670q0 15 15 15h375q15 0 15 -15v-107q0 -15 -15 -15h-235v-137h221q15 0 15 -15v-107q0 -15 -15 -15h-221v-152h236 z" glyph-name="Eacute" horiz-adv-x="540" unicode="É"/><glyph d="M319 908q11 0 18 -8l99 -110q6 -7 3 -12.5t-13 -5.5h-75q-11 0 -18 8l-57 67l-57 -67q-7 -8 -18 -8h-75q-10 0 -12.5 5.5t3.5 12.5l98 110q7 8 18 8h86zM460 137q15 0 15 -15v-107q0 -15 -15 -15h-376q-15 0 -15 15v670q0 15 15 15h375q15 0 15 -15v-107q0 -15 -15 -15 h-235v-137h221q15 0 15 -15v-107q0 -15 -15 -15h-221v-152h236z" glyph-name="Ecircumflex" horiz-adv-x="540" unicode="Ê"/><glyph d="M162 766q-30 0 -52 21.5t-22 53.5q0 31 22 52.5t52 21.5t52 -21.5t22 -52.5q0 -32 -22 -53.5t-52 -21.5zM389 766q-30 0 -52 21.5t-22 53.5q0 31 22 52.5t52 21.5t52 -21.5t22 -52.5q0 -32 -22 -53.5t-52 -21.5zM460 137q15 0 15 -15v-107q0 -15 -15 -15h-376 q-15 0 -15 15v670q0 15 15 15h375q15 0 15 -15v-107q0 -15 -15 -15h-235v-137h221q15 0 15 -15v-107q0 -15 -15 -15h-221v-152h236z" glyph-name="Edieresis" horiz-adv-x="540" unicode="Ë"/><glyph d="M15 908h108q12 0 17 -12l60 -126q8 -17 -12 -17h-108q-12 0 -17 12l-60 126q-8 17 12 17zM69 685q0 15 15 15h125q15 0 15 -15v-670q0 -15 -15 -15h-125q-15 0 -15 15v670z" glyph-name="Igrave" horiz-adv-x="293" unicode="Ì"/><glyph d="M270 908q20 0 12 -17l-60 -126q-5 -12 -17 -12h-108q-20 0 -12 17l60 126q5 12 17 12h108zM69 685q0 15 15 15h125q15 0 15 -15v-670q0 -15 -15 -15h-125q-15 0 -15 15v670z" glyph-name="Iacute" horiz-adv-x="293" unicode="Í"/><glyph d="M190 908q11 0 18 -8l99 -110q6 -7 3 -12.5t-13 -5.5h-75q-11 0 -18 8l-57 67l-57 -67q-7 -8 -18 -8h-75q-10 0 -12.5 5.5t3.5 12.5l98 110q7 8 18 8h86zM69 685q0 15 15 15h125q15 0 15 -15v-670q0 -15 -15 -15h-125q-15 0 -15 15v670z" glyph-name="Icircumflex" horiz-adv-x="293" unicode="Î"/><glyph d="M33 766q-30 0 -52 21.5t-22 53.5q0 31 22 52.5t52 21.5t52 -21.5t22 -52.5q0 -32 -22 -53.5t-52 -21.5zM260 766q-30 0 -52 21.5t-22 53.5q0 31 22 52.5t52 21.5t52 -21.5t22 -52.5q0 -32 -22 -53.5t-52 -21.5zM69 685q0 15 15 15h125q15 0 15 -15v-670q0 -15 -15 -15 h-125q-15 0 -15 15v670z" glyph-name="Idieresis" horiz-adv-x="293" unicode="Ï"/><glyph d="M301 700q174 0 271 -99t97 -251t-97 -251t-271 -99h-209q-15 0 -15 15v270h-37q-15 0 -15 15v86q0 15 15 15h37v284q0 15 15 15h209zM301 137q104 0 157 55t53 158t-53 158t-157 55h-69v-162h118q15 0 15 -15v-86q0 -15 -15 -15h-118v-148h69z" glyph-name="Eth" horiz-adv-x="712" unicode="Ð"/><glyph d="M176 811q-10 0 -10 14q4 52 34 79t77 27q28 0 53.5 -11t41.5 -24.5t36 -24.5t38 -11q35 0 47 27q3 8 11 8h34q10 0 10 -10q-3 -54 -33.5 -82t-79.5 -28q-27 0 -52 11t-41 24.5t-36.5 24.5t-38.5 11q-34 0 -46 -27q-3 -8 -11 -8h-34zM630 700q15 0 15 -15v-670 q0 -15 -15 -15h-142q-12 0 -18 10l-246 441v-436q0 -15 -15 -15h-125q-15 0 -15 15v670q0 15 15 15h141q12 0 18 -10l247 -442v437q0 15 15 15h125z" glyph-name="Ntilde" horiz-adv-x="714" unicode="Ñ"/><glyph d="M277 908h108q12 0 17 -12l60 -126q8 -17 -12 -17h-108q-12 0 -17 12l-60 126q-8 17 12 17zM409 -13q-149 0 -254.5 105t-105.5 255t105.5 255.5t254.5 105.5q150 0 255.5 -105.5t105.5 -255.5t-105.5 -255t-255.5 -105zM409 139q86 0 144.5 60t58.5 148q0 89 -58.5 149 t-144.5 60t-144 -60t-58 -149q0 -88 58.5 -148t143.5 -60z" glyph-name="Ograve" horiz-adv-x="819" unicode="Ò"/><glyph d="M532 908q20 0 12 -17l-60 -126q-5 -12 -17 -12h-108q-20 0 -12 17l60 126q5 12 17 12h108zM409 -13q-149 0 -254.5 105t-105.5 255t105.5 255.5t254.5 105.5q150 0 255.5 -105.5t105.5 -255.5t-105.5 -255t-255.5 -105zM409 139q86 0 144.5 60t58.5 148q0 89 -58.5 149 t-144.5 60t-144 -60t-58 -149q0 -88 58.5 -148t143.5 -60z" glyph-name="Oacute" horiz-adv-x="819" unicode="Ó"/><glyph d="M452 908q11 0 18 -8l99 -110q6 -7 3 -12.5t-13 -5.5h-75q-11 0 -18 8l-57 67l-57 -67q-7 -8 -18 -8h-75q-10 0 -12.5 5.5t3.5 12.5l98 110q7 8 18 8h86zM409 -13q-149 0 -254.5 105t-105.5 255t105.5 255.5t254.5 105.5q150 0 255.5 -105.5t105.5 -255.5t-105.5 -255 t-255.5 -105zM409 139q86 0 144.5 60t58.5 148q0 89 -58.5 149t-144.5 60t-144 -60t-58 -149q0 -88 58.5 -148t143.5 -60z" glyph-name="Ocircumflex" horiz-adv-x="819" unicode="Ô"/><glyph d="M329 931q45 0 95 -35.5t74 -35.5q35 0 47 27q3 8 11 8h34q10 0 10 -10q-3 -54 -33.5 -82t-79.5 -28q-27 0 -52 11t-41 24.5t-36.5 24.5t-38.5 11q-34 0 -46 -27q-3 -8 -11 -8h-34q-10 0 -10 14q4 52 34 79t77 27zM409 -13q-149 0 -254.5 105t-105.5 255t105.5 255.5 t254.5 105.5q150 0 255.5 -105.5t105.5 -255.5t-105.5 -255t-255.5 -105zM409 139q86 0 144.5 60t58.5 148q0 89 -58.5 149t-144.5 60t-144 -60t-58 -149q0 -88 58.5 -148t143.5 -60z" glyph-name="Otilde" horiz-adv-x="819" unicode="Õ"/><glyph d="M295 766q-30 0 -52 21.5t-22 53.5q0 31 22 52.5t52 21.5t52 -21.5t22 -52.5q0 -32 -22 -53.5t-52 -21.5zM522 766q-30 0 -52 21.5t-22 53.5q0 31 22 52.5t52 21.5t52 -21.5t22 -52.5q0 -32 -22 -53.5t-52 -21.5zM409 -13q-149 0 -254.5 105t-105.5 255t105.5 255.5 t254.5 105.5q150 0 255.5 -105.5t105.5 -255.5t-105.5 -255t-255.5 -105zM409 139q86 0 144.5 60t58.5 148q0 89 -58.5 149t-144.5 60t-144 -60t-58 -149q0 -88 58.5 -148t143.5 -60z" glyph-name="Odieresis" horiz-adv-x="819" unicode="Ö"/><glyph d="M304 286l79 -79q9 -11 0 -22l-56 -55q-11 -12 -21 0l-79 79l-80 -80q-11 -11 -21 0l-56 56q-10 11 0 21l80 80l-80 80q-10 10 0 21l56 56q10 11 21 0l80 -80l80 80q11 11 21 0l56 -56q10 -11 0 -21z" glyph-name="multiply" horiz-adv-x="453" unicode="×"/><glyph d="M617 643q71 -50 112 -128t41 -168q0 -150 -105.5 -255t-255.5 -105q-49 0 -94 12l-18 -38q-5 -11 -17 -11h-116q-19 0 -11 18l42 90q-68 50 -107 125.5t-39 163.5q0 150 105.5 255.5t254.5 105.5q46 0 85 -10l17 36q5 11 17 11h117q19 0 11 -18zM207 347q0 -85 55 -145 l165 353q-6 1 -18 1q-86 0 -144 -60t-58 -149zM409 139q86 0 144.5 60t58.5 148q0 91 -62 153l-169 -359q18 -2 28 -2z" glyph-name="Oslash" horiz-adv-x="809" unicode="Ø"/><glyph d="M202 908h108q12 0 17 -12l60 -126q8 -17 -12 -17h-108q-12 0 -17 12l-60 126q-8 17 12 17zM588 700q15 0 15 -15v-413q0 -135 -74.5 -210t-194.5 -75q-121 0 -195.5 75t-74.5 210v413q0 15 15 15h125q15 0 15 -15v-413q0 -132 115 -132q56 0 85 34t29 98v413q0 15 15 15 h125z" glyph-name="Ugrave" horiz-adv-x="667" unicode="Ù"/><glyph d="M457 908q20 0 12 -17l-60 -126q-5 -12 -17 -12h-108q-20 0 -12 17l60 126q5 12 17 12h108zM588 700q15 0 15 -15v-413q0 -135 -74.5 -210t-194.5 -75q-121 0 -195.5 75t-74.5 210v413q0 15 15 15h125q15 0 15 -15v-413q0 -132 115 -132q56 0 85 34t29 98v413q0 15 15 15 h125z" glyph-name="Uacute" horiz-adv-x="667" unicode="Ú"/><glyph d="M377 908q11 0 18 -8l99 -110q6 -7 3 -12.5t-13 -5.5h-75q-11 0 -18 8l-57 67l-57 -67q-7 -8 -18 -8h-75q-10 0 -12.5 5.5t3.5 12.5l98 110q7 8 18 8h86zM588 700q15 0 15 -15v-413q0 -135 -74.5 -210t-194.5 -75q-121 0 -195.5 75t-74.5 210v413q0 15 15 15h125 q15 0 15 -15v-413q0 -132 115 -132q56 0 85 34t29 98v413q0 15 15 15h125z" glyph-name="Ucircumflex" horiz-adv-x="667" unicode="Û"/><glyph d="M220 766q-30 0 -52 21.5t-22 53.5q0 31 22 52.5t52 21.5t52 -21.5t22 -52.5q0 -32 -22 -53.5t-52 -21.5zM447 766q-30 0 -52 21.5t-22 53.5q0 31 22 52.5t52 21.5t52 -21.5t22 -52.5q0 -32 -22 -53.5t-52 -21.5zM588 700q15 0 15 -15v-413q0 -135 -74.5 -210t-194.5 -75 q-121 0 -195.5 75t-74.5 210v413q0 15 15 15h125q15 0 15 -15v-413q0 -132 115 -132q56 0 85 34t29 98v413q0 15 15 15h125z" glyph-name="Udieresis" horiz-adv-x="667" unicode="Ü"/><glyph d="M279 753q-20 0 -12 17l60 126q5 12 17 12h108q20 0 12 -17l-60 -126q-5 -12 -17 -12h-108zM601 700q20 0 10 -18l-204 -360v-307q0 -15 -15 -15h-126q-15 0 -15 15v310l-204 357q-10 18 10 18h132q12 0 18 -10l122 -220l122 220q6 10 18 10h132z" glyph-name="Yacute" horiz-adv-x="658" unicode="Ý"/><glyph d="M301 582q126 0 193.5 -60t67.5 -172t-67.5 -172t-193.5 -60h-77v-103q0 -15 -15 -15h-125q-15 0 -15 15v670q0 15 15 15h125q15 0 15 -15v-103h77zM290 255q62 0 93 20.5t31 74.5t-31 74.5t-93 20.5h-66v-190h66z" glyph-name="Thorn" horiz-adv-x="596" unicode="Þ"/><glyph d="M444 360q65 -7 112 -48.5t47 -112.5q0 -107 -69 -153t-215 -46h-41q-15 0 -15 15v85q0 15 15 15h41q71 0 105 20.5t34 69.5q0 47 -37 63.5t-118 16.5h-25q-15 0 -15 15v85q0 15 15 15h25q115 0 115 91q0 35 -28 54t-74 19q-50 0 -76 -17.5t-26 -62.5v-469q0 -15 -15 -15 h-120q-15 0 -15 15v469q0 106 71.5 161t180.5 55q105 0 176 -49.5t71 -139.5q0 -67 -37.5 -108t-81.5 -43z" glyph-name="germandbls" horiz-adv-x="636" unicode="ß"/><glyph d="M215 555l-60 126q-8 17 12 17h108q12 0 17 -12l60 -126q8 -17 -12 -17h-108q-12 0 -17 12zM544 490q15 0 15 -15v-460q0 -15 -15 -15h-102q-13 0 -15 15l-6 42q-52 -64 -140 -64q-102 0 -169.5 72.5t-67.5 178.5q0 108 67.5 182t169.5 74q86 0 141 -70l5 45q2 15 15 15 h102zM299 130q49 0 79.5 32t30.5 83q0 50 -30.5 84t-79.5 34q-48 0 -79.5 -33t-31.5 -85q0 -51 31.5 -83t79.5 -32z" glyph-name="agrave" unicode="à"/><glyph d="M249 543q-20 0 -12 17l60 126q5 12 17 12h108q20 0 12 -17l-60 -126q-5 -12 -17 -12h-108zM544 490q15 0 15 -15v-460q0 -15 -15 -15h-102q-13 0 -15 15l-6 42q-52 -64 -140 -64q-102 0 -169.5 72.5t-67.5 178.5q0 108 67.5 182t169.5 74q86 0 141 -70l5 45q2 15 15 15 h102zM299 130q49 0 79.5 32t30.5 83q0 50 -30.5 84t-79.5 34q-48 0 -79.5 -33t-31.5 -85q0 -51 31.5 -83t79.5 -32z" glyph-name="aacute" unicode="á"/><glyph d="M149 562q-10 0 -12.5 5.5t3.5 12.5l98 110q7 8 18 8h86q11 0 18 -8l99 -110q6 -7 3 -12.5t-13 -5.5h-75q-11 0 -18 8l-57 67l-57 -67q-7 -8 -18 -8h-75zM544 490q15 0 15 -15v-460q0 -15 -15 -15h-102q-13 0 -15 15l-6 42q-52 -64 -140 -64q-102 0 -169.5 72.5 t-67.5 178.5q0 108 67.5 182t169.5 74q86 0 141 -70l5 45q2 15 15 15h102zM299 130q49 0 79.5 32t30.5 83q0 50 -30.5 84t-79.5 34q-48 0 -79.5 -33t-31.5 -85q0 -51 31.5 -83t79.5 -32z" glyph-name="acircumflex" unicode="â"/><glyph d="M118 601q-10 0 -10 14q4 52 34 79t77 27q45 0 95 -35.5t74 -35.5q35 0 47 27q3 8 11 8h34q10 0 10 -10q-3 -54 -33.5 -82t-79.5 -28q-27 0 -52 11t-41 24.5t-36.5 24.5t-38.5 11q-34 0 -46 -27q-3 -8 -11 -8h-34zM544 490q15 0 15 -15v-460q0 -15 -15 -15h-102 q-13 0 -15 15l-6 42q-52 -64 -140 -64q-102 0 -169.5 72.5t-67.5 178.5q0 108 67.5 182t169.5 74q86 0 141 -70l5 45q2 15 15 15h102zM299 130q49 0 79.5 32t30.5 83q0 50 -30.5 84t-79.5 34q-48 0 -79.5 -33t-31.5 -85q0 -51 31.5 -83t79.5 -32z" glyph-name="atilde" unicode="ã"/><glyph d="M185 556q-30 0 -52 21.5t-22 53.5q0 31 22 52.5t52 21.5t52 -21.5t22 -52.5q0 -32 -22 -53.5t-52 -21.5zM412 556q-30 0 -52 21.5t-22 53.5q0 31 22 52.5t52 21.5t52 -21.5t22 -52.5q0 -32 -22 -53.5t-52 -21.5zM544 490q15 0 15 -15v-460q0 -15 -15 -15h-102 q-13 0 -15 15l-6 42q-52 -64 -140 -64q-102 0 -169.5 72.5t-67.5 178.5q0 108 67.5 182t169.5 74q86 0 141 -70l5 45q2 15 15 15h102zM299 130q49 0 79.5 32t30.5 83q0 50 -30.5 84t-79.5 34q-48 0 -79.5 -33t-31.5 -85q0 -51 31.5 -83t79.5 -32z" glyph-name="adieresis" unicode="ä"/><glyph d="M300 534q-45 0 -77 31t-32 74q0 44 31.5 75t77.5 31q42 0 73.5 -31.5t31.5 -74.5t-31.5 -74t-73.5 -31zM298 663q-9 0 -16 -6.5t-7 -16.5q0 -9 7 -16t16 -7q10 0 17 7t7 16q0 10 -7 16.5t-17 6.5zM544 490q15 0 15 -15v-460q0 -15 -15 -15h-102q-13 0 -15 15l-6 42 q-52 -64 -140 -64q-102 0 -169.5 72.5t-67.5 178.5q0 108 67.5 182t169.5 74q86 0 141 -70l5 45q2 15 15 15h102zM299 130q49 0 79.5 32t30.5 83q0 50 -30.5 84t-79.5 34q-48 0 -79.5 -33t-31.5 -85q0 -51 31.5 -83t79.5 -32z" glyph-name="aring" unicode="å"/><glyph d="M896 256q0 -33 -7 -47.5t-29 -14.5h-297q23 -81 126 -81q49 0 95 29q12 8 22 -2l52 -50q9 -11 -2 -22q-75 -75 -182 -75q-61 0 -115 24v-2q0 -15 -15 -15h-102q-13 0 -15 15l-6 42q-52 -64 -140 -64q-102 0 -169.5 72.5t-67.5 178.5q0 108 67.5 182t169.5 74 q86 0 141 -70l5 45q2 15 15 15h102q13 0 15 -12q49 22 104 22q104 0 168.5 -71t64.5 -173zM664 373q-39 0 -67 -21.5t-36 -62.5h202q-7 41 -34 62.5t-65 21.5zM299 130q49 0 79.5 32t30.5 83q0 50 -30.5 84t-79.5 34q-48 0 -79.5 -33t-31.5 -85q0 -51 31.5 -83t79.5 -32z " glyph-name="ae" horiz-adv-x="930" unicode="æ"/><glyph d="M486 101q10 -10 1 -21q-67 -77 -170 -86l-30 -26q37 -3 64 -25t27 -59q0 -64 -53.5 -89t-128.5 -14q-9 1 -9 11v52q0 10 11 10q82 -9 82 24q0 8 -10.5 13.5t-28.5 6.5t-42 -6q-12 -5 -12 7v54q0 9 5 12l38 35h5q-84 20 -137.5 89t-53.5 159q0 105 73 178.5t178 73.5 q113 0 189 -87q9 -11 -1 -21l-72 -70q-10 -10 -22 1q-43 38 -90 38q-48 0 -79.5 -32.5t-31.5 -80.5q0 -49 31.5 -82.5t79.5 -33.5q49 0 93 38q12 10 22 0z" glyph-name="ccedilla" horiz-adv-x="577" unicode="ç"/><glyph d="M202 555l-60 126q-8 17 12 17h108q12 0 17 -12l60 -126q8 -17 -12 -17h-108q-12 0 -17 12zM526 256q0 -33 -7 -47.5t-29 -14.5h-297q23 -81 126 -81q49 0 95 29q12 8 22 -2l52 -50q9 -11 -2 -22q-75 -75 -182 -75q-114 0 -187 73.5t-73 180.5t71 180t178 73 q104 0 168.5 -71t64.5 -173zM294 373q-39 0 -67 -21.5t-36 -62.5h202q-7 41 -34 62.5t-65 21.5z" glyph-name="egrave" horiz-adv-x="570" unicode="è"/><glyph d="M236 543q-20 0 -12 17l60 126q5 12 17 12h108q20 0 12 -17l-60 -126q-5 -12 -17 -12h-108zM526 256q0 -33 -7 -47.5t-29 -14.5h-297q23 -81 126 -81q49 0 95 29q12 8 22 -2l52 -50q9 -11 -2 -22q-75 -75 -182 -75q-114 0 -187 73.5t-73 180.5t71 180t178 73 q104 0 168.5 -71t64.5 -173zM294 373q-39 0 -67 -21.5t-36 -62.5h202q-7 41 -34 62.5t-65 21.5z" glyph-name="eacute" horiz-adv-x="570" unicode="é"/><glyph d="M136 562q-10 0 -12.5 5.5t3.5 12.5l98 110q7 8 18 8h86q11 0 18 -8l99 -110q6 -7 3 -12.5t-13 -5.5h-75q-11 0 -18 8l-57 67l-57 -67q-7 -8 -18 -8h-75zM526 256q0 -33 -7 -47.5t-29 -14.5h-297q23 -81 126 -81q49 0 95 29q12 8 22 -2l52 -50q9 -11 -2 -22 q-75 -75 -182 -75q-114 0 -187 73.5t-73 180.5t71 180t178 73q104 0 168.5 -71t64.5 -173zM294 373q-39 0 -67 -21.5t-36 -62.5h202q-7 41 -34 62.5t-65 21.5z" glyph-name="ecircumflex" horiz-adv-x="570" unicode="ê"/><glyph d="M172 556q-30 0 -52 21.5t-22 53.5q0 31 22 52.5t52 21.5t52 -21.5t22 -52.5q0 -32 -22 -53.5t-52 -21.5zM399 556q-30 0 -52 21.5t-22 53.5q0 31 22 52.5t52 21.5t52 -21.5t22 -52.5q0 -32 -22 -53.5t-52 -21.5zM526 256q0 -33 -7 -47.5t-29 -14.5h-297q23 -81 126 -81 q49 0 95 29q12 8 22 -2l52 -50q9 -11 -2 -22q-75 -75 -182 -75q-114 0 -187 73.5t-73 180.5t71 180t178 73q104 0 168.5 -71t64.5 -173zM294 373q-39 0 -67 -21.5t-36 -62.5h202q-7 41 -34 62.5t-65 21.5z" glyph-name="edieresis" horiz-adv-x="570" unicode="ë"/><glyph d="M-3 698h108q12 0 17 -12l60 -126q8 -17 -12 -17h-108q-12 0 -17 12l-60 126q-8 17 12 17zM54 475q0 15 15 15h120q15 0 15 -15v-460q0 -15 -15 -15h-120q-15 0 -15 15v460z" glyph-name="igrave" horiz-adv-x="258" unicode="ì"/><glyph d="M252 698q20 0 12 -17l-60 -126q-5 -12 -17 -12h-108q-20 0 -12 17l60 126q5 12 17 12h108zM54 475q0 15 15 15h120q15 0 15 -15v-460q0 -15 -15 -15h-120q-15 0 -15 15v460z" glyph-name="iacute" horiz-adv-x="258" unicode="í"/><glyph d="M172 698q11 0 18 -8l99 -110q6 -7 3 -12.5t-13 -5.5h-75q-11 0 -18 8l-57 67l-57 -67q-7 -8 -18 -8h-75q-10 0 -12.5 5.5t3.5 12.5l98 110q7 8 18 8h86zM54 475q0 15 15 15h120q15 0 15 -15v-460q0 -15 -15 -15h-120q-15 0 -15 15v460z" glyph-name="icircumflex" horiz-adv-x="258" unicode="î"/><glyph d="M15 556q-30 0 -52 21.5t-22 53.5q0 31 22 52.5t52 21.5t52 -21.5t22 -52.5q0 -32 -22 -53.5t-52 -21.5zM242 556q-30 0 -52 21.5t-22 53.5q0 31 22 52.5t52 21.5t52 -21.5t22 -52.5q0 -32 -22 -53.5t-52 -21.5zM54 475q0 15 15 15h120q15 0 15 -15v-460q0 -15 -15 -15 h-120q-15 0 -15 15v460z" glyph-name="idieresis" horiz-adv-x="258" unicode="ï"/><glyph d="M564 657q16 2 16 -14v-76q0 -14 -14 -16l-7 -1v-535q0 -15 -15 -15h-102q-13 0 -15 15l-6 42q-52 -64 -140 -64q-102 0 -169.5 72.5t-67.5 178.5q0 108 67.5 182t169.5 74q76 0 128 -55v87l-72 -8q-16 -2 -16 14v76q0 14 14 16l74 9v76q0 15 15 15h120q15 0 15 -15v-59z M299 130q49 0 79.5 32t30.5 83q0 50 -30.5 84t-79.5 34q-48 0 -79.5 -33t-31.5 -85q0 -51 31.5 -83t79.5 -32z" glyph-name="eth" horiz-adv-x="595" unicode="ð"/><glyph d="M117 601q-10 0 -10 14q4 52 34 79t77 27q28 0 53.5 -11t41.5 -24.5t36 -24.5t38 -11q35 0 47 27q3 8 11 8h34q10 0 10 -10q-3 -54 -33.5 -82t-79.5 -28q-27 0 -52 11t-41 24.5t-36.5 24.5t-38.5 11q-34 0 -46 -27q-3 -8 -11 -8h-34zM360 501q76 0 127 -57.5t51 -153.5 v-275q0 -15 -15 -15h-120q-15 0 -15 15v245q0 54 -24.5 78t-59.5 24q-44 0 -69.5 -32t-25.5 -58v-257q0 -15 -15 -15h-120q-15 0 -15 15v460q0 15 15 15h116q13 0 15 -15l4 -62q53 88 151 88z" glyph-name="ntilde" horiz-adv-x="597" unicode="ñ"/><glyph d="M167 698h108q12 0 17 -12l60 -126q8 -17 -12 -17h-108q-12 0 -17 12l-60 126q-8 17 12 17zM299 -10q-106 0 -180.5 74.5t-74.5 180.5q0 107 74.5 181.5t180.5 74.5q107 0 181.5 -74.5t74.5 -181.5q0 -106 -74.5 -180.5t-181.5 -74.5zM299 129q47 0 79 33t32 83 q0 51 -32 84t-79 33q-46 0 -78.5 -33.5t-32.5 -83.5t32.5 -83t78.5 -33z" glyph-name="ograve" horiz-adv-x="599" unicode="ò"/><glyph d="M422 698q20 0 12 -17l-60 -126q-5 -12 -17 -12h-108q-20 0 -12 17l60 126q5 12 17 12h108zM299 -10q-106 0 -180.5 74.5t-74.5 180.5q0 107 74.5 181.5t180.5 74.5q107 0 181.5 -74.5t74.5 -181.5q0 -106 -74.5 -180.5t-181.5 -74.5zM299 129q47 0 79 33t32 83 q0 51 -32 84t-79 33q-46 0 -78.5 -33.5t-32.5 -83.5t32.5 -83t78.5 -33z" glyph-name="oacute" horiz-adv-x="599" unicode="ó"/><glyph d="M342 698q11 0 18 -8l99 -110q6 -7 3 -12.5t-13 -5.5h-75q-11 0 -18 8l-57 67l-57 -67q-7 -8 -18 -8h-75q-10 0 -12.5 5.5t3.5 12.5l98 110q7 8 18 8h86zM299 -10q-106 0 -180.5 74.5t-74.5 180.5q0 107 74.5 181.5t180.5 74.5q107 0 181.5 -74.5t74.5 -181.5 q0 -106 -74.5 -180.5t-181.5 -74.5zM299 129q47 0 79 33t32 83q0 51 -32 84t-79 33q-46 0 -78.5 -33.5t-32.5 -83.5t32.5 -83t78.5 -33z" glyph-name="ocircumflex" horiz-adv-x="599" unicode="ô"/><glyph d="M219 721q45 0 95 -35.5t74 -35.5q35 0 47 27q3 8 11 8h34q10 0 10 -10q-3 -54 -33.5 -82t-79.5 -28q-27 0 -52 11t-41 24.5t-36.5 24.5t-38.5 11q-34 0 -46 -27q-3 -8 -11 -8h-34q-10 0 -10 14q4 52 34 79t77 27zM299 -10q-106 0 -180.5 74.5t-74.5 180.5 q0 107 74.5 181.5t180.5 74.5q107 0 181.5 -74.5t74.5 -181.5q0 -106 -74.5 -180.5t-181.5 -74.5zM299 129q47 0 79 33t32 83q0 51 -32 84t-79 33q-46 0 -78.5 -33.5t-32.5 -83.5t32.5 -83t78.5 -33z" glyph-name="otilde" horiz-adv-x="599" unicode="õ"/><glyph d="M185 556q-30 0 -52 21.5t-22 53.5q0 31 22 52.5t52 21.5t52 -21.5t22 -52.5q0 -32 -22 -53.5t-52 -21.5zM412 556q-30 0 -52 21.5t-22 53.5q0 31 22 52.5t52 21.5t52 -21.5t22 -52.5q0 -32 -22 -53.5t-52 -21.5zM299 -10q-106 0 -180.5 74.5t-74.5 180.5 q0 107 74.5 181.5t180.5 74.5q107 0 181.5 -74.5t74.5 -181.5q0 -106 -74.5 -180.5t-181.5 -74.5zM299 129q47 0 79 33t32 83q0 51 -32 84t-79 33q-46 0 -78.5 -33.5t-32.5 -83.5t32.5 -83t78.5 -33z" glyph-name="odieresis" horiz-adv-x="599" unicode="ö"/><glyph d="M258 367q-34 0 -57.5 23.5t-23.5 57.5q0 33 23.5 56.5t57.5 23.5q33 0 56.5 -23.5t23.5 -56.5q0 -34 -23.5 -57.5t-56.5 -23.5zM434 340q15 0 15 -15v-79q0 -15 -15 -15h-354q-15 0 -15 15v79q0 15 15 15h354zM258 27q-34 0 -57.5 23.5t-23.5 57.5q0 33 23.5 56.5 t57.5 23.5q33 0 56.5 -23.5t23.5 -56.5q0 -34 -23.5 -57.5t-56.5 -23.5z" glyph-name="divide" horiz-adv-x="514" unicode="÷"/><glyph d="M449 453q49 -35 77.5 -90t28.5 -118q0 -106 -74.5 -180.5t-181.5 -74.5q-25 0 -53 5l-24 -54q-4 -11 -17 -11h-93q-19 0 -11 18l42 95q-46 35 -72.5 88t-26.5 114q0 107 74.5 181.5t180.5 74.5q27 0 47 -4l22 50q4 11 17 11h92q19 0 11 -18zM188 245q0 -35 17 -63l80 179 q-41 -5 -69 -37.5t-28 -78.5zM306 129q44 3 74 35.5t30 80.5q0 40 -21 71z" glyph-name="oslash" horiz-adv-x="589" unicode="ø"/><glyph d="M209 555l-60 126q-8 17 12 17h108q12 0 17 -12l60 -126q8 -17 -12 -17h-108q-12 0 -17 12zM518 490q15 0 15 -15v-460q0 -15 -15 -15h-116q-13 0 -15 15l-4 53q-57 -81 -142 -81q-83 0 -135 57t-52 154v277q0 15 15 15h120q15 0 15 -15v-247q0 -54 25.5 -77.5t60.5 -23.5 q44 0 68.5 27.5t24.5 59.5v261q0 15 15 15h120z" glyph-name="ugrave" horiz-adv-x="592" unicode="ù"/><glyph d="M243 543q-20 0 -12 17l60 126q5 12 17 12h108q20 0 12 -17l-60 -126q-5 -12 -17 -12h-108zM518 490q15 0 15 -15v-460q0 -15 -15 -15h-116q-13 0 -15 15l-4 53q-57 -81 -142 -81q-83 0 -135 57t-52 154v277q0 15 15 15h120q15 0 15 -15v-247q0 -54 25.5 -77.5t60.5 -23.5 q44 0 68.5 27.5t24.5 59.5v261q0 15 15 15h120z" glyph-name="uacute" horiz-adv-x="592" unicode="ú"/><glyph d="M143 562q-10 0 -12.5 5.5t3.5 12.5l98 110q7 8 18 8h86q11 0 18 -8l99 -110q6 -7 3 -12.5t-13 -5.5h-75q-11 0 -18 8l-57 67l-57 -67q-7 -8 -18 -8h-75zM518 490q15 0 15 -15v-460q0 -15 -15 -15h-116q-13 0 -15 15l-4 53q-57 -81 -142 -81q-83 0 -135 57t-52 154v277 q0 15 15 15h120q15 0 15 -15v-247q0 -54 25.5 -77.5t60.5 -23.5q44 0 68.5 27.5t24.5 59.5v261q0 15 15 15h120z" glyph-name="ucircumflex" horiz-adv-x="592" unicode="û"/><glyph d="M179 556q-30 0 -52 21.5t-22 53.5q0 31 22 52.5t52 21.5t52 -21.5t22 -52.5q0 -32 -22 -53.5t-52 -21.5zM406 556q-30 0 -52 21.5t-22 53.5q0 31 22 52.5t52 21.5t52 -21.5t22 -52.5q0 -32 -22 -53.5t-52 -21.5zM518 490q15 0 15 -15v-460q0 -15 -15 -15h-116 q-13 0 -15 15l-4 53q-57 -81 -142 -81q-83 0 -135 57t-52 154v277q0 15 15 15h120q15 0 15 -15v-247q0 -54 25.5 -77.5t60.5 -23.5q44 0 68.5 27.5t24.5 59.5v261q0 15 15 15h120z" glyph-name="udieresis" horiz-adv-x="592" unicode="ü"/><glyph d="M420 698q20 0 12 -17l-60 -126q-5 -12 -17 -12h-108q-20 0 -12 17l60 126q5 12 17 12h108zM548 490q18 0 12 -17l-259 -651q-5 -12 -18 -12h-117q-21 0 -12 17l71 172l-189 474q-6 17 12 17h121q13 0 18 -12l110 -302l110 302q5 12 18 12h123z" glyph-name="yacute" horiz-adv-x="596" unicode="ý"/><glyph d="M340 500q102 0 169.5 -74t67.5 -182q0 -106 -67.5 -178.5t-169.5 -72.5h-1h-2q-75 0 -125 48v-216q0 -15 -15 -15h-120q-15 0 -15 15v180q-3 5 -3 10v700q0 15 15 15h120q15 0 15 -15v-270q52 55 128 55h2h1zM212 245q0 -50 30 -82t78 -33q48 1 79 33t31 82 q0 51 -30.5 84t-78.5 34q-49 -1 -79 -34.5t-30 -83.5z" glyph-name="thorn" horiz-adv-x="614" unicode="þ"/><glyph d="M183 556q-30 0 -52 21.5t-22 53.5q0 31 22 52.5t52 21.5t52 -21.5t22 -52.5q0 -32 -22 -53.5t-52 -21.5zM410 556q-30 0 -52 21.5t-22 53.5q0 31 22 52.5t52 21.5t52 -21.5t22 -52.5q0 -32 -22 -53.5t-52 -21.5zM548 490q18 0 12 -17l-259 -651q-5 -12 -18 -12h-117 q-21 0 -12 17l71 172l-189 474q-6 17 12 17h121q13 0 18 -12l110 -302l110 302q5 12 18 12h123z" glyph-name="ydieresis" horiz-adv-x="596" unicode="ÿ"/><glyph d="M203 792q-15 0 -15 15v86q0 15 15 15h310q15 0 15 -15v-86q0 -15 -15 -15h-310zM670 17q7 -17 -12 -17h-130q-13 0 -17 12l-35 108h-247l-35 -108q-4 -12 -17 -12h-130q-19 0 -12 17l242 671q5 12 17 12h115q15 0 19 -12zM271 245h164l-82 251z" glyph-name="Amacron" horiz-adv-x="705" unicode="Ā"/><glyph d="M144 582q-15 0 -15 15v86q0 15 15 15h310q15 0 15 -15v-86q0 -15 -15 -15h-310zM544 490q15 0 15 -15v-460q0 -15 -15 -15h-102q-13 0 -15 15l-6 42q-52 -64 -140 -64q-102 0 -169.5 72.5t-67.5 178.5q0 108 67.5 182t169.5 74q86 0 141 -70l5 45q2 15 15 15h102z M299 130q49 0 79.5 32t30.5 83q0 50 -30.5 84t-79.5 34q-48 0 -79.5 -33t-31.5 -85q0 -51 31.5 -83t79.5 -32z" glyph-name="amacron" unicode="ā"/><glyph d="M358 764q-70 0 -112.5 37t-48.5 93q-1 15 14 15h60q13 0 16 -14q5 -19 23.5 -33.5t47.5 -14.5q56 0 71 48q3 14 16 14h60q15 0 14 -15q-5 -56 -48.5 -93t-112.5 -37zM670 17q7 -17 -12 -17h-130q-13 0 -17 12l-35 108h-247l-35 -108q-4 -12 -17 -12h-130q-19 0 -12 17 l242 671q5 12 17 12h115q15 0 19 -12zM271 245h164l-82 251z" glyph-name="Abreve" horiz-adv-x="705" unicode="Ă"/><glyph d="M299 554q-70 0 -112.5 37t-48.5 93q-2 15 14 15h60q13 0 16 -14q5 -19 23.5 -33.5t47.5 -14.5q56 0 71 48q3 14 16 14h60q16 0 14 -15q-5 -56 -48.5 -93t-112.5 -37zM544 490q15 0 15 -15v-460q0 -15 -15 -15h-102q-13 0 -15 15l-6 42q-52 -64 -140 -64 q-102 0 -169.5 72.5t-67.5 178.5q0 108 67.5 182t169.5 74q86 0 141 -70l5 45q2 15 15 15h102zM299 130q49 0 79.5 32t30.5 83q0 50 -30.5 84t-79.5 34q-48 0 -79.5 -33t-31.5 -85q0 -51 31.5 -83t79.5 -32z" glyph-name="abreve" unicode="ă"/><glyph d="M670 17q7 -17 -12 -17h-2q-40 0 -62.5 -22.5t-22.5 -49.5q0 -18 14.5 -29.5t46.5 -5.5v-91q-23 -10 -53.5 -10.5t-59.5 8.5t-49 34.5t-20 63.5q0 64 63 109l-2 5l-35 108h-247l-35 -108q-4 -12 -17 -12h-130q-19 0 -12 17l242 671q5 12 17 12h115q15 0 19 -12l228 -631 v-1zM271 245h164l-82 251z" glyph-name="Aogonek" horiz-adv-x="705" unicode="Ą"/><glyph d="M544 490q15 0 15 -15v-460q0 -15 -15 -15h-19q-39 0 -62 -22.5t-23 -49.5q0 -18 14.5 -29.5t46.5 -5.5v-91q-23 -10 -53.5 -10.5t-59.5 8.5t-49 34.5t-20 63.5q0 86 106 134l-4 25q-52 -64 -140 -64q-102 0 -169.5 72.5t-67.5 178.5q0 108 67.5 182t169.5 74 q86 0 141 -70l5 45q2 15 15 15h102zM299 130q49 0 79.5 32t30.5 83q0 50 -30.5 84t-79.5 34q-48 0 -79.5 -33t-31.5 -85q0 -51 31.5 -83t79.5 -32z" glyph-name="aogonek" horiz-adv-x="610" unicode="ą"/><glyph d="M527 908q20 0 12 -17l-60 -126q-5 -12 -17 -12h-108q-20 0 -12 17l60 126q5 12 17 12h108zM581 194l77 -83q10 -11 0 -21q-98 -103 -247 -103q-151 0 -256.5 104.5t-105.5 255.5t105.5 256t256.5 105q148 0 247 -102q9 -10 0 -21l-77 -84q-9 -11 -21 -1q-66 56 -150 56 q-85 0 -143 -60t-58 -149q0 -88 58 -148t143 -60q84 0 150 56q12 10 21 -1z" glyph-name="Cacute" horiz-adv-x="707" unicode="Ć"/><glyph d="M436 728q20 0 12 -17l-60 -126q-5 -12 -17 -12h-108q-20 0 -12 17l60 126q5 12 17 12h108zM299 132q49 0 93 38q12 10 22 0l72 -69q10 -10 1 -21q-76 -87 -192 -87q-106 0 -178.5 74t-72.5 181q0 105 73 178.5t178 73.5q113 0 189 -87q9 -11 -1 -21l-72 -70 q-10 -10 -22 1q-43 38 -90 38q-48 0 -79.5 -32.5t-31.5 -80.5q0 -49 31.5 -82.5t79.5 -33.5z" glyph-name="cacute" horiz-adv-x="577" unicode="ć"/><glyph d="M404 766q-30 0 -52 21.5t-22 53.5q0 31 22 52.5t52 21.5t52 -21.5t22 -52.5q0 -32 -22 -53.5t-52 -21.5zM581 194l77 -83q10 -11 0 -21q-98 -103 -247 -103q-151 0 -256.5 104.5t-105.5 255.5t105.5 256t256.5 105q148 0 247 -102q9 -10 0 -21l-77 -84q-9 -11 -21 -1 q-66 56 -150 56q-85 0 -143 -60t-58 -149q0 -88 58 -148t143 -60q84 0 150 56q12 10 21 -1z" glyph-name="Cdotaccent" horiz-adv-x="707" unicode="Ċ"/><glyph d="M303 556q-30 0 -52 21.5t-22 53.5q0 31 22 52.5t52 21.5t52 -21.5t22 -52.5q0 -32 -22 -53.5t-52 -21.5zM299 132q49 0 93 38q12 10 22 0l72 -69q10 -10 1 -21q-76 -87 -192 -87q-106 0 -178.5 74t-72.5 181q0 105 73 178.5t178 73.5q113 0 189 -87q9 -11 -1 -21l-72 -70 q-10 -10 -22 1q-43 38 -90 38q-48 0 -79.5 -32.5t-31.5 -80.5q0 -49 31.5 -82.5t79.5 -33.5z" glyph-name="cdotaccent" horiz-adv-x="577" unicode="ċ"/><glyph d="M447 772h-86q-11 0 -18 8l-98 110q-6 7 -3.5 12.5t12.5 5.5h75q11 0 18 -8l57 -67l57 67q7 8 18 8h75q10 0 13 -5.5t-3 -12.5l-99 -110q-7 -8 -18 -8zM581 194l77 -83q10 -11 0 -21q-98 -103 -247 -103q-151 0 -256.5 104.5t-105.5 255.5t105.5 256t256.5 105 q148 0 247 -102q9 -10 0 -21l-77 -84q-9 -11 -21 -1q-66 56 -150 56q-85 0 -143 -60t-58 -149q0 -88 58 -148t143 -60q84 0 150 56q12 10 21 -1z" glyph-name="Ccaron" horiz-adv-x="707" unicode="Č"/><glyph d="M315 564h-86q-11 0 -18 8l-98 110q-6 7 -3.5 12.5t12.5 5.5h75q11 0 18 -8l57 -67l57 67q7 8 18 8h75q10 0 13 -5.5t-3 -12.5l-99 -110q-7 -8 -18 -8zM299 132q49 0 93 38q12 10 22 0l72 -69q10 -10 1 -21q-76 -87 -192 -87q-106 0 -178.5 74t-72.5 181q0 105 73 178.5 t178 73.5q113 0 189 -87q9 -11 -1 -21l-72 -70q-10 -10 -22 1q-43 38 -90 38q-48 0 -79.5 -32.5t-31.5 -80.5q0 -49 31.5 -82.5t79.5 -33.5z" glyph-name="ccaron" horiz-adv-x="577" unicode="č"/><glyph d="M281 780l-98 110q-6 7 -3.5 12.5t12.5 5.5h75q11 0 18 -8l57 -67l57 67q7 8 18 8h75q10 0 13 -5.5t-3 -12.5l-99 -110q-7 -8 -18 -8h-86q-11 0 -18 8zM293 700q174 0 271 -99t97 -251t-97 -251t-271 -99h-209q-15 0 -15 15v670q0 15 15 15h209zM293 137q104 0 157 55 t53 158t-53 158t-157 55h-69v-426h69z" glyph-name="Dcaron" horiz-adv-x="704" unicode="Ď"/><glyph d="M544 730q15 0 15 -15v-700q0 -15 -15 -15h-102q-13 0 -15 15l-6 42q-52 -64 -140 -64q-102 0 -169.5 72.5t-67.5 178.5q0 108 67.5 182t169.5 74q76 0 128 -55v270q0 15 15 15h120zM779 730q20 0 12 -17l-60 -126q-5 -12 -17 -12h-108q-20 0 -12 17l60 126q5 12 17 12 h108zM299 130q49 0 79.5 32t30.5 83q0 50 -30.5 84t-79.5 34q-48 0 -79.5 -33t-31.5 -85q0 -51 31.5 -83t79.5 -32z" glyph-name="dcaron" horiz-adv-x="792" unicode="ď"/><glyph d="M301 700q174 0 271 -99t97 -251t-97 -251t-271 -99h-209q-15 0 -15 15v270h-37q-15 0 -15 15v86q0 15 15 15h37v284q0 15 15 15h209zM301 137q104 0 157 55t53 158t-53 158t-157 55h-69v-162h118q15 0 15 -15v-86q0 -15 -15 -15h-118v-148h69z" glyph-name="Dcroat" horiz-adv-x="712" unicode="Đ"/><glyph d="M593 648q15 0 15 -15v-86q0 -15 -15 -15h-34v-517q0 -15 -15 -15h-102q-13 0 -15 15l-6 42q-52 -64 -140 -64q-102 0 -169.5 72.5t-67.5 178.5q0 108 67.5 182t169.5 74q76 0 128 -55v87h-126q-15 0 -15 15v86q0 15 15 15h126v67q0 15 15 15h120q15 0 15 -15v-67h34z M299 130q49 0 79.5 32t30.5 83q0 50 -30.5 84t-79.5 34q-48 0 -79.5 -33t-31.5 -85q0 -51 31.5 -83t79.5 -32z" glyph-name="dcroat" horiz-adv-x="623" unicode="đ"/><glyph d="M431 908q15 0 15 -15v-86q0 -15 -15 -15h-310q-15 0 -15 15v86q0 15 15 15h310zM460 137q15 0 15 -15v-107q0 -15 -15 -15h-376q-15 0 -15 15v670q0 15 15 15h375q15 0 15 -15v-107q0 -15 -15 -15h-235v-137h221q15 0 15 -15v-107q0 -15 -15 -15h-221v-152h236z" glyph-name="Emacron" horiz-adv-x="540" unicode="Ē"/><glyph d="M131 582q-15 0 -15 15v86q0 15 15 15h310q15 0 15 -15v-86q0 -15 -15 -15h-310zM526 256q0 -33 -7 -47.5t-29 -14.5h-297q23 -81 126 -81q49 0 95 29q12 8 22 -2l52 -50q9 -11 -2 -22q-75 -75 -182 -75q-114 0 -187 73.5t-73 180.5t71 180t178 73q104 0 168.5 -71 t64.5 -173zM294 373q-39 0 -67 -21.5t-36 -62.5h202q-7 41 -34 62.5t-65 21.5z" glyph-name="emacron" horiz-adv-x="570" unicode="ē"/><glyph d="M276 766q-30 0 -52 21.5t-22 53.5q0 31 22 52.5t52 21.5t52 -21.5t22 -52.5q0 -32 -22 -53.5t-52 -21.5zM460 137q15 0 15 -15v-107q0 -15 -15 -15h-376q-15 0 -15 15v670q0 15 15 15h375q15 0 15 -15v-107q0 -15 -15 -15h-235v-137h221q15 0 15 -15v-107q0 -15 -15 -15 h-221v-152h236z" glyph-name="Edotaccent" horiz-adv-x="540" unicode="Ė"/><glyph d="M286 556q-30 0 -52 21.5t-22 53.5q0 31 22 52.5t52 21.5t52 -21.5t22 -52.5q0 -32 -22 -53.5t-52 -21.5zM526 256q0 -33 -7 -47.5t-29 -14.5h-297q23 -81 126 -81q49 0 95 29q12 8 22 -2l52 -50q9 -11 -2 -22q-75 -75 -182 -75q-114 0 -187 73.5t-73 180.5t71 180t178 73 q104 0 168.5 -71t64.5 -173zM294 373q-39 0 -67 -21.5t-36 -62.5h202q-7 41 -34 62.5t-65 21.5z" glyph-name="edotaccent" horiz-adv-x="570" unicode="ė"/><glyph d="M460 137q15 0 15 -15v-107q0 -15 -15 -15h-35q-41 -20 -41 -62q0 -18 14.5 -29.5t46.5 -5.5v-91q-23 -10 -53.5 -10.5t-59.5 8.5t-49 34.5t-20 63.5q0 52 42 92h-221q-15 0 -15 15v670q0 15 15 15h375q15 0 15 -15v-107q0 -15 -15 -15h-235v-137h221q15 0 15 -15v-107 q0 -15 -15 -15h-221v-152h236z" glyph-name="Eogonek" horiz-adv-x="540" unicode="Ę"/><glyph d="M526 256q0 -33 -7 -47.5t-29 -14.5h-297q23 -81 126 -81q49 0 95 29q12 8 22 -2l52 -50q9 -11 -2 -22q-44 -44 -106 -64v-4q-92 -23 -92 -77q0 -18 15 -29.5t46 -5.5v-91q-23 -10 -53.5 -10.5t-59 8.5t-48.5 34.5t-20 63.5q0 65 66 108q-86 22 -138 89.5t-52 156.5 q0 107 71 180t178 73q104 0 168.5 -71t64.5 -173zM294 373q-39 0 -67 -21.5t-36 -62.5h202q-7 41 -34 62.5t-65 21.5z" glyph-name="eogonek" horiz-adv-x="560" unicode="ę"/><glyph d="M319 772h-86q-11 0 -18 8l-98 110q-6 7 -3.5 12.5t12.5 5.5h75q11 0 18 -8l57 -67l57 67q7 8 18 8h75q10 0 13 -5.5t-3 -12.5l-99 -110q-7 -8 -18 -8zM460 137q15 0 15 -15v-107q0 -15 -15 -15h-376q-15 0 -15 15v670q0 15 15 15h375q15 0 15 -15v-107q0 -15 -15 -15 h-235v-137h221q15 0 15 -15v-107q0 -15 -15 -15h-221v-152h236z" glyph-name="Ecaron" horiz-adv-x="540" unicode="Ě"/><glyph d="M225 570l-98 110q-6 7 -3.5 12.5t12.5 5.5h75q11 0 18 -8l57 -67l57 67q7 8 18 8h75q10 0 13 -5.5t-3 -12.5l-99 -110q-7 -8 -18 -8h-86q-11 0 -18 8zM526 256q0 -33 -7 -47.5t-29 -14.5h-297q23 -81 126 -81q49 0 95 29q12 8 22 -2l52 -50q9 -11 -2 -22 q-75 -75 -182 -75q-114 0 -187 73.5t-73 180.5t71 180t178 73q104 0 168.5 -71t64.5 -173zM294 373q-39 0 -67 -21.5t-36 -62.5h202q-7 41 -34 62.5t-65 21.5z" glyph-name="ecaron" horiz-adv-x="570" unicode="ě"/><glyph d="M409 764q-70 0 -112.5 37t-48.5 93q-2 15 14 15h60q13 0 16 -14q5 -19 23.5 -33.5t47.5 -14.5q56 0 71 48q3 14 16 14h60q16 0 14 -15q-5 -56 -48.5 -93t-112.5 -37zM721 401q15 0 15 -15v-68q0 -141 -87.5 -236t-232.5 -95q-154 0 -260.5 105.5t-106.5 257.5 q0 149 105.5 253.5t256.5 104.5q148 0 247 -102q9 -10 0 -21l-77 -84q-9 -11 -21 -1q-66 56 -150 56q-85 0 -143 -59.5t-58 -146.5q0 -91 56.5 -151t148.5 -60q78 0 123.5 38.5t48.5 94.5h-168q-15 0 -15 15v99q0 15 15 15h303z" glyph-name="Gbreve" horiz-adv-x="780" unicode="Ğ"/><glyph d="M311 554q-70 0 -112.5 37t-48.5 93q-2 15 14 15h60q13 0 16 -14q5 -19 23.5 -33.5t47.5 -14.5q56 0 71 48q3 14 16 14h60q16 0 14 -15q-5 -56 -48.5 -93t-112.5 -37zM547 490q15 0 15 -15v-471q0 -56 -24.5 -97.5t-64.5 -63t-83 -31.5t-89 -10q-130 0 -218 64 q-10 7 -4 20l39 70q9 12 20 6q65 -38 151 -38q51 0 93 21.5t42 71.5v46q-58 -66 -144 -66q-101 0 -168.5 73.5t-67.5 178.5t67.5 178.5t168.5 73.5q82 0 140 -65l3 39q2 15 15 15h109zM299 134q46 0 78 35t32 81t-32 80.5t-78 34.5q-47 0 -79 -33.5t-32 -81.5 q0 -49 31.5 -82.5t79.5 -33.5z" glyph-name="gbreve" horiz-adv-x="621" unicode="ğ"/><glyph d="M409 766q-30 0 -52 21.5t-22 53.5q0 31 22 52.5t52 21.5t52 -21.5t22 -52.5q0 -32 -22 -53.5t-52 -21.5zM721 401q15 0 15 -15v-68q0 -141 -87.5 -236t-232.5 -95q-154 0 -260.5 105.5t-106.5 257.5q0 149 105.5 253.5t256.5 104.5q148 0 247 -102q9 -10 0 -21l-77 -84 q-9 -11 -21 -1q-66 56 -150 56q-85 0 -143 -59.5t-58 -146.5q0 -91 56.5 -151t148.5 -60q78 0 123.5 38.5t48.5 94.5h-168q-15 0 -15 15v99q0 15 15 15h303z" glyph-name="Gdotaccent" horiz-adv-x="780" unicode="Ġ"/><glyph d="M311 556q-30 0 -52 21.5t-22 53.5q0 31 22 52.5t52 21.5t52 -21.5t22 -52.5q0 -32 -22 -53.5t-52 -21.5zM547 490q15 0 15 -15v-471q0 -56 -24.5 -97.5t-64.5 -63t-83 -31.5t-89 -10q-130 0 -218 64q-10 7 -4 20l39 70q9 12 20 6q65 -38 151 -38q51 0 93 21.5t42 71.5v46 q-58 -66 -144 -66q-101 0 -168.5 73.5t-67.5 178.5t67.5 178.5t168.5 73.5q82 0 140 -65l3 39q2 15 15 15h109zM299 134q46 0 78 35t32 81t-32 80.5t-78 34.5q-47 0 -79 -33.5t-32 -81.5q0 -49 31.5 -82.5t79.5 -33.5z" glyph-name="gdotaccent" horiz-adv-x="621" unicode="ġ"/><glyph d="M721 401q15 0 15 -15v-68q0 -141 -87.5 -236t-232.5 -95q-154 0 -260.5 105.5t-106.5 257.5q0 149 105.5 253.5t256.5 104.5q148 0 247 -102q9 -10 0 -21l-77 -84q-9 -11 -21 -1q-66 56 -150 56q-85 0 -143 -59.5t-58 -146.5q0 -91 56.5 -151t148.5 -60q78 0 123.5 38.5 t48.5 94.5h-168q-15 0 -15 15v99q0 15 15 15h303zM396 -38q36 0 59 -26t23 -71q0 -104 -103 -212l-37 22q36 55 44 125q-30 5 -50 28t-20 53q0 34 24.5 57.5t59.5 23.5z" glyph-name="Gcommaaccent" horiz-adv-x="780" unicode="Ģ"/><glyph d="M299 548q-36 0 -59 26t-23 71q0 104 103 212l37 -22q-36 -55 -44 -125q30 -5 50 -28t20 -53q0 -34 -24.5 -57.5t-59.5 -23.5zM547 490q15 0 15 -15v-471q0 -56 -24.5 -97.5t-64.5 -63t-83 -31.5t-89 -10q-130 0 -218 64q-10 7 -4 20l39 70q9 12 20 6q65 -38 151 -38 q51 0 93 21.5t42 71.5v46q-58 -66 -144 -66q-101 0 -168.5 73.5t-67.5 178.5t67.5 178.5t168.5 73.5q82 0 140 -65l3 39q2 15 15 15h109zM299 134q46 0 78 35t32 81t-32 80.5t-78 34.5q-47 0 -79 -33.5t-32 -81.5q0 -49 31.5 -82.5t79.5 -33.5z" glyph-name="gcommaaccent" horiz-adv-x="611" unicode="ģ"/><glyph d="M608 700q15 0 15 -15v-670q0 -15 -15 -15h-125q-15 0 -15 15v260h-244v-260q0 -15 -15 -15h-125q-15 0 -15 15v670q0 15 15 15h125q15 0 15 -15v-93h244v93q0 15 15 15h125zM224 412h244v56h-244v-56z" glyph-name="Hbar" horiz-adv-x="692" unicode="Ħ"/><glyph d="M371 501q76 0 127 -57.5t51 -153.5v-275q0 -15 -15 -15h-120q-15 0 -15 15v245q0 54 -24.5 78t-59.5 24q-44 0 -69.5 -32t-25.5 -58v-257q0 -15 -15 -15h-120q-15 0 -15 15v504h-40q-15 0 -15 15v86q0 15 15 15h40v80q0 15 15 15h120q15 0 15 -15v-80h120q15 0 15 -15 v-86q0 -15 -15 -15h-120v-106q53 88 151 88z" glyph-name="hbar" horiz-adv-x="598" unicode="ħ"/><glyph d="M302 908q15 0 15 -15v-86q0 -15 -15 -15h-310q-15 0 -15 15v86q0 15 15 15h310zM69 685q0 15 15 15h125q15 0 15 -15v-670q0 -15 -15 -15h-125q-15 0 -15 15v670z" glyph-name="Imacron" horiz-adv-x="293" unicode="Ī"/><glyph d="M284 698q15 0 15 -15v-86q0 -15 -15 -15h-310q-15 0 -15 15v86q0 15 15 15h310zM54 475q0 15 15 15h120q15 0 15 -15v-460q0 -15 -15 -15h-120q-15 0 -15 15v460z" glyph-name="imacron" horiz-adv-x="258" unicode="ī"/><glyph d="M129 556q-30 0 -52 21.5t-22 53.5q0 31 22 52.5t52 21.5t52 -21.5t22 -52.5q0 -32 -22 -53.5t-52 -21.5zM189 490q15 0 15 -15v-460q0 -15 -15 -15q-40 0 -62.5 -22.5t-22.5 -49.5q0 -18 14.5 -29.5t46.5 -5.5v-91q-23 -10 -53.5 -10.5t-59.5 8.5t-49 34.5t-20 63.5 q0 69 71 115v2v460q0 15 15 15h120z" glyph-name="iogonek" horiz-adv-x="258" unicode="į"/><glyph d="M147 766q-30 0 -52 21.5t-22 53.5q0 31 22 52.5t52 21.5t52 -21.5t22 -52.5q0 -32 -22 -53.5t-52 -21.5zM69 685q0 15 15 15h125q15 0 15 -15v-670q0 -15 -15 -15h-125q-15 0 -15 15v670z" glyph-name="Idotaccent" horiz-adv-x="293" unicode="İ"/><glyph d="M54 475q0 15 15 15h120q15 0 15 -15v-460q0 -15 -15 -15h-120q-15 0 -15 15v460z" glyph-name="dotlessi" horiz-adv-x="258" unicode="ı"/><glyph d="M69 685q0 15 15 15h125q15 0 15 -15v-670q0 -15 -15 -15h-125q-15 0 -15 15v670zM407 175q8 11 22 1q1 -1 7.5 -5t9 -5.5t9.5 -5.5t11.5 -5.5t12 -4.5t14.5 -4.5t15.5 -2.5t17.5 -1q101 0 101 129v414q0 15 15 15h125q15 0 15 -15v-419q0 -140 -67 -207.5t-184 -67.5 q-125 0 -188 74q-7 8 0 21z" glyph-name="IJ" horiz-adv-x="851" unicode="Ĳ"/><glyph d="M139 576q-34 0 -57 23.5t-23 56.5q0 34 23 57.5t57 23.5t57 -23.5t23 -57.5q0 -33 -23 -56.5t-57 -23.5zM453 576q-33 0 -56.5 23.5t-23.5 56.5q0 34 23.5 57.5t56.5 23.5q34 0 57.5 -23.5t23.5 -57.5q0 -33 -23.5 -56.5t-57.5 -23.5zM64 475q0 15 15 15h120q15 0 15 -15 v-460q0 -15 -15 -15h-120q-15 0 -15 15v460zM395 490h120q15 0 15 -15v-464q0 -100 -57 -153t-154 -56q-10 0 -12 8l-38 122q-4 11 7 11q42 3 73 26.5t31 71.5v434q0 15 15 15z" glyph-name="ij" horiz-adv-x="593" unicode="ĳ"/><glyph d="M646 18q5 -8 2.5 -13t-11.5 -5h-148q-12 0 -18 9l-194 271l-53 -61v-204q0 -15 -15 -15h-125q-15 0 -15 15v670q0 15 15 15h125q15 0 15 -15v-260l219 267q7 8 18 8h156q9 0 11.5 -5.5t-3.5 -12.5l-245 -283zM383 -38q36 0 59 -26t23 -71q0 -104 -103 -212l-37 22 q36 55 44 125q-30 5 -50 28t-20 53q0 34 24.5 57.5t59.5 23.5z" glyph-name="Kcommaaccent" horiz-adv-x="753" unicode="Ķ"/><glyph d="M560 18q5 -8 2.5 -13t-11.5 -5h-129q-12 0 -18 9l-136 181l-59 -64v-111q0 -15 -15 -15h-120q-15 0 -15 15v700q0 15 15 15h120q15 0 15 -15v-407l160 174q7 8 17 8h136q10 0 12.5 -5.5t-4.5 -12.5l-171 -184zM305 -38q36 0 59 -26t23 -71q0 -104 -103 -212l-37 22 q36 55 44 125q-30 5 -50 28t-20 53q0 34 24.5 57.5t59.5 23.5z" glyph-name="kcommaaccent" horiz-adv-x="594" unicode="ķ"/><glyph d="M111 751q-20 0 -12 17l60 126q5 12 17 12h108q20 0 12 -17l-60 -126q-5 -12 -17 -12h-108zM440 137q15 0 15 -15v-107q0 -15 -15 -15h-356q-15 0 -15 15v670q0 15 15 15h125q15 0 15 -15v-548h216z" glyph-name="Lacute" horiz-adv-x="494" unicode="Ĺ"/><glyph d="M257 938q20 0 12 -17l-60 -126q-5 -12 -17 -12h-108q-20 0 -12 17l60 126q5 12 17 12h108zM59 715q0 15 15 15h120q15 0 15 -15v-700q0 -15 -15 -15h-120q-15 0 -15 15v700z" glyph-name="lacute" horiz-adv-x="268" unicode="ĺ"/><glyph d="M440 137q15 0 15 -15v-107q0 -15 -15 -15h-356q-15 0 -15 15v670q0 15 15 15h125q15 0 15 -15v-548h216zM253 -38q36 0 59 -26t23 -71q0 -104 -103 -212l-37 22q36 55 44 125q-30 5 -50 28t-20 53q0 34 24.5 57.5t59.5 23.5z" glyph-name="Lcommaaccent" horiz-adv-x="504" unicode="Ļ"/><glyph d="M74 0q-15 0 -15 15v700q0 15 15 15h120q15 0 15 -15v-700q0 -15 -15 -15h-120zM137 -38q36 0 59 -26t23 -71q0 -104 -103 -212l-37 22q36 55 44 125q-30 5 -50 28t-20 53q0 34 24.5 57.5t59.5 23.5z" glyph-name="lcommaaccent" horiz-adv-x="268" unicode="ļ"/><glyph d="M364 586q-30 5 -50 28t-20 53q0 34 24.5 57.5t59.5 23.5q36 0 59 -26t23 -71q0 -104 -103 -212l-37 22q36 55 44 125zM440 137q15 0 15 -15v-107q0 -15 -15 -15h-356q-15 0 -15 15v670q0 15 15 15h125q15 0 15 -15v-548h216z" glyph-name="Lcaron" horiz-adv-x="494" unicode="Ľ"/><glyph d="M344 748q36 0 59 -26t23 -71q0 -104 -103 -212l-37 22q36 55 44 125q-30 5 -50 28t-20 53q0 34 24.5 57.5t59.5 23.5zM194 730q15 0 15 -15v-700q0 -15 -15 -15h-120q-15 0 -15 15v700q0 15 15 15h120z" glyph-name="lcaron" horiz-adv-x="447" unicode="ľ"/><glyph d="M440 137q15 0 15 -15v-107q0 -15 -15 -15h-356q-15 0 -15 15v670q0 15 15 15h125q15 0 15 -15v-548h216zM408 447q33 0 56.5 -23.5t23.5 -56.5q0 -34 -23.5 -57.5t-56.5 -23.5q-34 0 -57.5 23.5t-23.5 57.5q0 33 23.5 56.5t57.5 23.5z" glyph-name="Ldot" horiz-adv-x="518" unicode="Ŀ"/><glyph d="M59 715q0 15 15 15h120q15 0 15 -15v-700q0 -15 -15 -15h-120q-15 0 -15 15v700zM329 284q-34 0 -57.5 23.5t-23.5 57.5q0 33 23.5 56.5t57.5 23.5q33 0 56.5 -23.5t23.5 -56.5q0 -34 -23.5 -57.5t-56.5 -23.5z" glyph-name="ldot" horiz-adv-x="443" unicode="ŀ"/><glyph d="M462 137q15 0 15 -15v-107q0 -15 -15 -15h-356q-15 0 -15 15v188l-43 -42q-8 -7 -13 -4.5t-5 12.5v99q0 11 8 19l53 52v346q0 15 15 15h125q15 0 15 -15v-194l88 86q8 7 13 4.5t5 -12.5v-98q0 -11 -8 -19l-98 -96v-219h216z" glyph-name="Lslash" horiz-adv-x="516" unicode="Ł"/><glyph d="M306 558v-128l-62 -65v-350q0 -15 -15 -15h-120q-15 0 -15 15v192l-49 -52v129l49 52v379q0 15 15 15h120q15 0 15 -15v-221l61 64h1z" glyph-name="lslash" horiz-adv-x="351" unicode="ł"/><glyph d="M307 753q-20 0 -12 17l60 126q5 12 17 12h108q20 0 12 -17l-60 -126q-5 -12 -17 -12h-108zM630 700q15 0 15 -15v-670q0 -15 -15 -15h-142q-12 0 -18 10l-246 441v-436q0 -15 -15 -15h-125q-15 0 -15 15v670q0 15 15 15h141q12 0 18 -10l247 -442v437q0 15 15 15h125z " glyph-name="Nacute" horiz-adv-x="714" unicode="Ń"/><glyph d="M248 543q-20 0 -12 17l60 126q5 12 17 12h108q20 0 12 -17l-60 -126q-5 -12 -17 -12h-108zM360 501q76 0 127 -57.5t51 -153.5v-275q0 -15 -15 -15h-120q-15 0 -15 15v245q0 54 -24.5 78t-59.5 24q-44 0 -69.5 -32t-25.5 -58v-257q0 -15 -15 -15h-120q-15 0 -15 15v460 q0 15 15 15h116q13 0 15 -15l4 -62q53 88 151 88z" glyph-name="nacute" horiz-adv-x="597" unicode="ń"/><glyph d="M630 700q15 0 15 -15v-670q0 -15 -15 -15h-142q-12 0 -18 10l-246 441v-436q0 -15 -15 -15h-125q-15 0 -15 15v670q0 15 15 15h141q12 0 18 -10l247 -442v437q0 15 15 15h125zM360 -38q36 0 59 -26t23 -71q0 -104 -103 -212l-37 22q36 55 44 125q-30 5 -50 28t-20 53 q0 34 24.5 57.5t59.5 23.5z" glyph-name="Ncommaaccent" horiz-adv-x="714" unicode="Ņ"/><glyph d="M360 501q76 0 127 -57.5t51 -153.5v-275q0 -15 -15 -15h-120q-15 0 -15 15v245q0 54 -24.5 78t-59.5 24q-44 0 -69.5 -32t-25.5 -58v-257q0 -15 -15 -15h-120q-15 0 -15 15v460q0 15 15 15h116q13 0 15 -15l4 -62q53 88 151 88zM301 -38q36 0 59 -26t23 -71 q0 -104 -103 -212l-37 22q36 55 44 125q-30 5 -50 28t-20 53q0 34 24.5 57.5t59.5 23.5z" glyph-name="ncommaaccent" horiz-adv-x="597" unicode="ņ"/><glyph d="M296 780l-98 110q-6 7 -3.5 12.5t12.5 5.5h75q11 0 18 -8l57 -67l57 67q7 8 18 8h75q10 0 13 -5.5t-3 -12.5l-99 -110q-7 -8 -18 -8h-86q-11 0 -18 8zM630 700q15 0 15 -15v-670q0 -15 -15 -15h-142q-12 0 -18 10l-246 441v-436q0 -15 -15 -15h-125q-15 0 -15 15v670 q0 15 15 15h141q12 0 18 -10l247 -442v437q0 15 15 15h125z" glyph-name="Ncaron" horiz-adv-x="714" unicode="Ň"/><glyph d="M237 570l-98 110q-6 7 -3.5 12.5t12.5 5.5h75q11 0 18 -8l57 -67l57 67q7 8 18 8h75q10 0 13 -5.5t-3 -12.5l-99 -110q-7 -8 -18 -8h-86q-11 0 -18 8zM360 501q76 0 127 -57.5t51 -153.5v-275q0 -15 -15 -15h-120q-15 0 -15 15v245q0 54 -24.5 78t-59.5 24 q-44 0 -69.5 -32t-25.5 -58v-257q0 -15 -15 -15h-120q-15 0 -15 15v460q0 15 15 15h116q13 0 15 -15l4 -62q53 88 151 88z" glyph-name="ncaron" horiz-adv-x="597" unicode="ň"/><glyph d="M630 700q15 0 15 -15v-670q0 -5 -4 -11q-15 -107 -80 -159t-167 -52q-125 0 -188 74q-7 8 0 21l64 89q8 11 22 1q1 -1 7.5 -5t9 -5.5t9.5 -5.5t11.5 -5.5t12 -4.5t14.5 -4.5t15.5 -2.5t17.5 -1q67 0 90 58q-6 1 -9 8l-246 441v-436q0 -15 -15 -15h-125q-15 0 -15 15v670 q0 15 15 15h141q12 0 18 -10l247 -442v437q0 15 15 15h125z" glyph-name="Eng" horiz-adv-x="704" unicode="Ŋ"/><glyph d="M360 501q76 0 127 -57.5t51 -153.5v-275q0 -7 -5 -12q-2 -97 -59.5 -149t-151.5 -52q-9 0 -12 8l-38 122q-4 11 7 11q41 0 72.5 25t31.5 73v59h5v160q0 54 -24.5 78t-59.5 24q-44 0 -69.5 -32t-25.5 -58v-257q0 -15 -15 -15h-120q-15 0 -15 15v460q0 15 15 15h116 q13 0 15 -15l4 -62q53 88 151 88z" glyph-name="eng" horiz-adv-x="587" unicode="ŋ"/><glyph d="M564 908q15 0 15 -15v-86q0 -15 -15 -15h-310q-15 0 -15 15v86q0 15 15 15h310zM409 -13q-149 0 -254.5 105t-105.5 255t105.5 255.5t254.5 105.5q150 0 255.5 -105.5t105.5 -255.5t-105.5 -255t-255.5 -105zM409 139q86 0 144.5 60t58.5 148q0 89 -58.5 149t-144.5 60 t-144 -60t-58 -149q0 -88 58.5 -148t143.5 -60z" glyph-name="Omacron" horiz-adv-x="819" unicode="Ō"/><glyph d="M454 698q15 0 15 -15v-86q0 -15 -15 -15h-310q-15 0 -15 15v86q0 15 15 15h310zM299 -10q-106 0 -180.5 74.5t-74.5 180.5q0 107 74.5 181.5t180.5 74.5q107 0 181.5 -74.5t74.5 -181.5q0 -106 -74.5 -180.5t-181.5 -74.5zM299 129q47 0 79 33t32 83q0 51 -32 84t-79 33 q-46 0 -78.5 -33.5t-32.5 -83.5t32.5 -83t78.5 -33z" glyph-name="omacron" horiz-adv-x="599" unicode="ō"/><glyph d="M469 908q20 0 12 -17l-60 -126q-5 -12 -17 -12h-108q-20 0 -12 17l60 126q5 12 17 12h108zM664 908q20 0 12 -17l-60 -126q-5 -12 -17 -12h-108q-20 0 -12 17l60 126q5 12 17 12h108zM409 -13q-149 0 -254.5 105t-105.5 255t105.5 255.5t254.5 105.5q150 0 255.5 -105.5 t105.5 -255.5t-105.5 -255t-255.5 -105zM409 139q86 0 144.5 60t58.5 148q0 89 -58.5 149t-144.5 60t-144 -60t-58 -149q0 -88 58.5 -148t143.5 -60z" glyph-name="Ohungarumlaut" horiz-adv-x="819" unicode="Ő"/><glyph d="M359 698q20 0 12 -17l-60 -126q-5 -12 -17 -12h-108q-20 0 -12 17l60 126q5 12 17 12h108zM554 698q20 0 12 -17l-60 -126q-5 -12 -17 -12h-108q-20 0 -12 17l60 126q5 12 17 12h108zM299 -10q-106 0 -180.5 74.5t-74.5 180.5q0 107 74.5 181.5t180.5 74.5 q107 0 181.5 -74.5t74.5 -181.5q0 -106 -74.5 -180.5t-181.5 -74.5zM299 129q47 0 79 33t32 83q0 51 -32 84t-79 33q-46 0 -78.5 -33.5t-32.5 -83.5t32.5 -83t78.5 -33z" glyph-name="ohungarumlaut" horiz-adv-x="599" unicode="ő"/><glyph d="M1005 137q15 0 15 -15v-107q0 -15 -15 -15h-376q-15 0 -15 15v35q-91 -63 -205 -63q-149 0 -254.5 105t-105.5 255t105.5 255.5t254.5 105.5q114 0 205 -63v40q0 15 15 15h375q15 0 15 -15v-107q0 -15 -15 -15h-235v-137h221q15 0 15 -15v-107q0 -15 -15 -15h-221v-152 h236zM409 139q86 0 144.5 60t58.5 148q0 89 -58.5 149t-144.5 60t-144 -60t-58 -149q0 -88 58.5 -148t143.5 -60z" glyph-name="OE" horiz-adv-x="1075" unicode="Œ"/><glyph d="M893 256q0 -33 -7 -47.5t-29 -14.5h-297q23 -81 126 -81q49 0 95 29q12 8 22 -2l52 -50q9 -11 -2 -22q-75 -75 -182 -75q-114 0 -188 74q-74 -77 -184 -77q-106 0 -180.5 74.5t-74.5 180.5q0 107 74.5 181.5t180.5 74.5q107 0 182 -75q72 74 179 74q104 0 168.5 -71 t64.5 -173zM661 373q-39 0 -67 -21.5t-36 -62.5h202q-7 41 -34 62.5t-65 21.5zM299 129q47 0 79 33t32 83q0 51 -32 84t-79 33q-46 0 -78.5 -33.5t-32.5 -83.5t32.5 -83t78.5 -33z" glyph-name="oe" horiz-adv-x="927" unicode="œ"/><glyph d="M243 753q-20 0 -12 17l60 126q5 12 17 12h108q20 0 12 -17l-60 -126q-5 -12 -17 -12h-108zM571 18q11 -18 -10 -18h-133q-12 0 -18 10l-145 226h-41v-221q0 -15 -15 -15h-125q-15 0 -15 15v670q0 15 15 15h213q123 0 191.5 -63.5t68.5 -168.5q0 -76 -36.5 -131.5 t-105.5 -80.5zM224 563v-190h70q48 0 81.5 22t33.5 73t-33.5 73t-81.5 22h-70z" glyph-name="Racute" horiz-adv-x="623" unicode="Ŕ"/><glyph d="M148 543q-20 0 -12 17l60 126q5 12 17 12h108q20 0 12 -17l-60 -126q-5 -12 -17 -12h-108zM402 476q10 -9 5 -22l-33 -86q-5 -16 -25 -11q-27 8 -41 8q-45 0 -72 -30t-27 -76v-244q0 -15 -15 -15h-120q-15 0 -15 15v460q0 15 15 15h115q13 0 15 -15l4 -57q43 83 126 83 q41 0 68 -25z" glyph-name="racute" horiz-adv-x="422" unicode="ŕ"/><glyph d="M571 18q11 -18 -10 -18h-133q-12 0 -18 10l-145 226h-41v-221q0 -15 -15 -15h-125q-15 0 -15 15v670q0 15 15 15h213q123 0 191.5 -63.5t68.5 -168.5q0 -76 -36.5 -131.5t-105.5 -80.5zM224 563v-190h70q48 0 81.5 22t33.5 73t-33.5 73t-81.5 22h-70zM296 -38 q36 0 59 -26t23 -71q0 -104 -103 -212l-37 22q36 55 44 125q-30 5 -50 28t-20 53q0 34 24.5 57.5t59.5 23.5z" glyph-name="Rcommaaccent" horiz-adv-x="623" unicode="Ŗ"/><glyph d="M402 476q10 -9 5 -22l-33 -86q-5 -16 -25 -11q-27 8 -41 8q-45 0 -72 -30t-27 -76v-244q0 -15 -15 -15h-120q-15 0 -15 15v460q0 15 15 15h115q13 0 15 -15l4 -57q43 83 126 83q41 0 68 -25zM136 -38q36 0 59 -26t23 -71q0 -104 -103 -212l-37 22q36 55 44 125 q-30 5 -50 28t-20 53q0 34 24.5 57.5t59.5 23.5z" glyph-name="rcommaaccent" horiz-adv-x="422" unicode="ŗ"/><glyph d="M232 780l-98 110q-6 7 -3.5 12.5t12.5 5.5h75q11 0 18 -8l57 -67l57 67q7 8 18 8h75q10 0 13 -5.5t-3 -12.5l-99 -110q-7 -8 -18 -8h-86q-11 0 -18 8zM571 18q11 -18 -10 -18h-133q-12 0 -18 10l-145 226h-41v-221q0 -15 -15 -15h-125q-15 0 -15 15v670q0 15 15 15h213 q123 0 191.5 -63.5t68.5 -168.5q0 -76 -36.5 -131.5t-105.5 -80.5zM224 563v-190h70q48 0 81.5 22t33.5 73t-33.5 73t-81.5 22h-70z" glyph-name="Rcaron" horiz-adv-x="623" unicode="Ř"/><glyph d="M155 562q-11 0 -18 8l-98 110q-6 7 -3.5 12.5t12.5 5.5h75q11 0 18 -8l57 -67l57 67q7 8 18 8h75q10 0 13 -5.5t-3 -12.5l-99 -110q-7 -8 -18 -8h-86zM402 476q10 -9 5 -22l-33 -86q-5 -16 -25 -11q-27 8 -41 8q-45 0 -72 -30t-27 -76v-244q0 -15 -15 -15h-120 q-15 0 -15 15v460q0 15 15 15h115q13 0 15 -15l4 -57q43 83 126 83q41 0 68 -25z" glyph-name="rcaron" horiz-adv-x="422" unicode="ř"/><glyph d="M407 908q20 0 12 -17l-60 -126q-5 -12 -17 -12h-108q-20 0 -12 17l60 126q5 12 17 12h108zM219 503q0 -25 23.5 -43.5t58.5 -29.5t76.5 -28.5t76.5 -39t58.5 -63.5t23.5 -99q0 -99 -74 -155.5t-172 -56.5q-75 0 -141.5 32t-100.5 78q-8 11 1 21l69 77q9 13 22 2 q78 -64 154 -64q38 0 64 18.5t26 50.5q0 22 -17.5 39t-45.5 29t-61.5 24.5t-67.5 29.5t-62 39.5t-45.5 58.5t-17.5 83q0 92 66 147t157 55q123 0 218 -93q11 -9 2 -21l-65 -79q-9 -13 -21 -4q-73 51 -129 51q-36 0 -56 -17t-20 -42z" glyph-name="Sacute" horiz-adv-x="580" unicode="Ś"/><glyph d="M355 698q20 0 12 -17l-60 -126q-5 -12 -17 -12h-108q-20 0 -12 17l60 126q5 12 17 12h108zM196 348q0 -18 23.5 -29.5t57 -20.5t67 -23t57 -47t23.5 -83q0 -71 -59.5 -113t-133.5 -42q-59 0 -109 24t-79 58q-7 9 0 20l44 64q7 9 23 0q66 -41 116 -41q52 0 52 32 q0 18 -23.5 30t-56.5 22t-66 24.5t-56.5 46t-23.5 77.5q0 71 51.5 112.5t121.5 41.5q109 0 172 -74q8 -10 -1 -21l-45 -59q-7 -9 -22 1q-59 34 -89 34q-21 0 -32.5 -10t-11.5 -24z" glyph-name="sacute" horiz-adv-x="462" unicode="ś"/><glyph d="M536 200q0 -91 -62.5 -146t-151.5 -64l-25 -22q37 -3 64 -25t27 -59q0 -64 -53.5 -89t-128.5 -14q-9 1 -9 11v52q0 10 11 10q82 -9 82 24q0 8 -10.5 13.5t-28.5 6.5t-42 -6q-12 -5 -12 7v54q0 9 5 12l31 28q-59 11 -108.5 40t-76.5 65q-8 11 1 21l69 77q9 13 22 2 q78 -64 154 -64q38 0 64 18.5t26 50.5q0 22 -17.5 39t-45.5 29t-61.5 24.5t-67.5 29.5t-62 39.5t-45.5 58.5t-17.5 83q0 92 66 147t157 55q123 0 218 -93q11 -9 2 -21l-65 -79q-9 -13 -21 -4q-73 51 -129 51q-36 0 -56 -17t-20 -42t23.5 -43.5t58.5 -29.5t76.5 -28.5 t76.5 -39t58.5 -63.5t23.5 -99z" glyph-name="Scedilla" horiz-adv-x="580" unicode="Ş"/><glyph d="M424 145q0 -59 -43 -99t-106 -52l-30 -26q37 -3 64 -25t27 -59q0 -64 -53.5 -89t-128.5 -14q-9 1 -9 11v52q0 10 11 10q82 -9 82 24q0 8 -10.5 13.5t-28.5 6.5t-42 -6q-12 -5 -12 7v54q0 9 5 12l32 30q-87 15 -139 77q-7 9 0 20l44 64q7 9 23 0q66 -41 116 -41 q52 0 52 32q0 18 -23.5 30t-56.5 22t-66 24.5t-56.5 46t-23.5 77.5q0 71 51.5 112.5t121.5 41.5q109 0 172 -74q8 -10 -1 -21l-45 -59q-7 -9 -22 1q-59 34 -89 34q-21 0 -32.5 -10t-11.5 -24q0 -18 23.5 -29.5t57 -20.5t67 -23t57 -47t23.5 -83z" glyph-name="scedilla" horiz-adv-x="462" unicode="ş"/><glyph d="M327 772h-86q-11 0 -18 8l-98 110q-6 7 -3.5 12.5t12.5 5.5h75q11 0 18 -8l57 -67l57 67q7 8 18 8h75q10 0 13 -5.5t-3 -12.5l-99 -110q-7 -8 -18 -8zM219 503q0 -25 23.5 -43.5t58.5 -29.5t76.5 -28.5t76.5 -39t58.5 -63.5t23.5 -99q0 -99 -74 -155.5t-172 -56.5 q-75 0 -141.5 32t-100.5 78q-8 11 1 21l69 77q9 13 22 2q78 -64 154 -64q38 0 64 18.5t26 50.5q0 22 -17.5 39t-45.5 29t-61.5 24.5t-67.5 29.5t-62 39.5t-45.5 58.5t-17.5 83q0 92 66 147t157 55q123 0 218 -93q11 -9 2 -21l-65 -79q-9 -13 -21 -4q-73 51 -129 51 q-36 0 -56 -17t-20 -42z" glyph-name="Scaron" horiz-adv-x="580" unicode="Š"/><glyph d="M275 562h-86q-11 0 -18 8l-98 110q-6 7 -3.5 12.5t12.5 5.5h75q11 0 18 -8l57 -67l57 67q7 8 18 8h75q10 0 13 -5.5t-3 -12.5l-99 -110q-7 -8 -18 -8zM196 348q0 -18 23.5 -29.5t57 -20.5t67 -23t57 -47t23.5 -83q0 -71 -59.5 -113t-133.5 -42q-59 0 -109 24t-79 58 q-7 9 0 20l44 64q7 9 23 0q66 -41 116 -41q52 0 52 32q0 18 -23.5 30t-56.5 22t-66 24.5t-56.5 46t-23.5 77.5q0 71 51.5 112.5t121.5 41.5q109 0 172 -74q8 -10 -1 -21l-45 -59q-7 -9 -22 1q-59 34 -89 34q-21 0 -32.5 -10t-11.5 -24z" glyph-name="scaron" horiz-adv-x="462" unicode="š"/><glyph d="M517 700q15 0 15 -15v-107q0 -15 -15 -15h-149v-548q0 -15 -15 -15h-12l-37 -32q37 -3 64 -25t27 -59q0 -64 -53.5 -89t-128.5 -14q-9 1 -9 11v52q0 10 11 10q82 -9 82 24q0 8 -10.5 13.5t-28.5 6.5t-42 -6q-12 -5 -12 7v54q0 9 5 12l38 35h-19q-15 0 -15 15v548h-149 q-15 0 -15 15v107q0 15 15 15h453z" glyph-name="Tcommaaccent" horiz-adv-x="581" unicode="Ţ"/><glyph d="M359 490q15 0 15 -15v-91q0 -15 -15 -15h-80v-354q0 -15 -15 -15h-11l-34 -29q37 -3 64 -25t27 -59q0 -64 -53.5 -89t-128.5 -14q-9 2 -9 11v52q0 10 11 10q82 -9 82 24q0 8 -10.5 13.5t-28.5 6.5t-42 -6q-12 -5 -12 7v54q0 9 5 12l35 32h-15q-15 0 -15 15v354h-80 q-15 0 -15 15v91q0 15 15 15h80v135q0 15 15 15h120q15 0 15 -15v-135h80z" glyph-name="tcommaaccent" horiz-adv-x="408" unicode="ţ"/><glyph d="M334 772h-86q-11 0 -18 8l-98 110q-6 7 -3.5 12.5t12.5 5.5h75q11 0 18 -8l57 -67l57 67q7 8 18 8h75q10 0 13 -5.5t-3 -12.5l-99 -110q-7 -8 -18 -8zM517 700q15 0 15 -15v-107q0 -15 -15 -15h-149v-548q0 -15 -15 -15h-125q-15 0 -15 15v548h-149q-15 0 -15 15v107 q0 15 15 15h453z" glyph-name="Tcaron" horiz-adv-x="581" unicode="Ť"/><glyph d="M491 700q20 0 12 -17l-60 -126q-5 -12 -17 -12h-108q-20 0 -12 17l60 126q5 12 17 12h108zM359 490q15 0 15 -15v-91q0 -15 -15 -15h-80v-354q0 -15 -15 -15h-120q-15 0 -15 15v354h-80q-15 0 -15 15v91q0 15 15 15h80v135q0 15 15 15h120q15 0 15 -15v-135h80z" glyph-name="tcaron" horiz-adv-x="520" unicode="ť"/><glyph d="M517 700q15 0 15 -15v-107q0 -15 -15 -15h-149v-73h73q15 0 15 -15v-86q0 -15 -15 -15h-73v-359q0 -15 -15 -15h-125q-15 0 -15 15v359h-82q-15 0 -15 15v86q0 15 15 15h82v73h-149q-15 0 -15 15v107q0 15 15 15h453z" glyph-name="Tbar" horiz-adv-x="571" unicode="Ŧ"/><glyph d="M359 490q15 0 15 -15v-91q0 -15 -15 -15h-80v-41h60q15 0 15 -15v-92q0 -15 -15 -15h-60v-191q0 -15 -15 -15h-120q-15 0 -15 15v191h-80q-15 0 -15 15v92q0 15 15 15h80v41h-80q-15 0 -15 15v91q0 15 15 15h80v135q0 15 15 15h120q15 0 15 -15v-135h80z" glyph-name="tbar" horiz-adv-x="388" unicode="ŧ"/><glyph d="M489 908q15 0 15 -15v-86q0 -15 -15 -15h-310q-15 0 -15 15v86q0 15 15 15h310zM588 700q15 0 15 -15v-413q0 -135 -74.5 -210t-194.5 -75q-121 0 -195.5 75t-74.5 210v413q0 15 15 15h125q15 0 15 -15v-413q0 -132 115 -132q56 0 85 34t29 98v413q0 15 15 15h125z" glyph-name="Umacron" horiz-adv-x="667" unicode="Ū"/><glyph d="M138 582q-15 0 -15 15v86q0 15 15 15h310q15 0 15 -15v-86q0 -15 -15 -15h-310zM518 490q15 0 15 -15v-460q0 -15 -15 -15h-116q-13 0 -15 15l-4 53q-57 -81 -142 -81q-83 0 -135 57t-52 154v277q0 15 15 15h120q15 0 15 -15v-247q0 -54 25.5 -77.5t60.5 -23.5 q44 0 68.5 27.5t24.5 59.5v261q0 15 15 15h120z" glyph-name="umacron" horiz-adv-x="592" unicode="ū"/><glyph d="M405 895q3 14 16 14h60q15 0 14 -15q-5 -56 -48.5 -93t-112.5 -37q-70 0 -112.5 37t-48.5 93q-1 15 14 15h60q13 0 16 -14q5 -19 23.5 -33.5t47.5 -14.5q56 0 71 48zM588 700q15 0 15 -15v-413q0 -135 -74.5 -210t-194.5 -75q-121 0 -195.5 75t-74.5 210v413q0 15 15 15 h125q15 0 15 -15v-413q0 -132 115 -132q56 0 85 34t29 98v413q0 15 15 15h125z" glyph-name="Ubreve" horiz-adv-x="667" unicode="Ŭ"/><glyph d="M293 554q-70 0 -112.5 37t-48.5 93q-2 15 14 15h60q13 0 16 -14q5 -19 23.5 -33.5t47.5 -14.5q56 0 71 48q3 14 16 14h60q16 0 14 -15q-5 -56 -48.5 -93t-112.5 -37zM518 490q15 0 15 -15v-460q0 -15 -15 -15h-116q-13 0 -15 15l-4 53q-57 -81 -142 -81q-83 0 -135 57 t-52 154v277q0 15 15 15h120q15 0 15 -15v-247q0 -54 25.5 -77.5t60.5 -23.5q44 0 68.5 27.5t24.5 59.5v261q0 15 15 15h120z" glyph-name="ubreve" horiz-adv-x="592" unicode="ŭ"/><glyph d="M335 955q42 0 73.5 -31.5t31.5 -74.5t-31.5 -74t-73.5 -31q-45 0 -77 31t-32 74q0 44 31.5 75t77.5 31zM333 827q10 0 17 7t7 16q0 10 -7 16.5t-17 6.5q-9 0 -16 -6.5t-7 -16.5q0 -9 7 -16t16 -7zM588 700q15 0 15 -15v-413q0 -135 -74.5 -210t-194.5 -75 q-121 0 -195.5 75t-74.5 210v413q0 15 15 15h125q15 0 15 -15v-413q0 -132 115 -132q56 0 85 34t29 98v413q0 15 15 15h125z" glyph-name="Uring" horiz-adv-x="667" unicode="Ů"/><glyph d="M294 534q-45 0 -77 31t-32 74q0 44 31.5 75t77.5 31q42 0 73.5 -31.5t31.5 -74.5t-31.5 -74t-73.5 -31zM292 663q-9 0 -16 -6.5t-7 -16.5q0 -9 7 -16t16 -7q10 0 17 7t7 16q0 10 -7 16.5t-17 6.5zM518 490q15 0 15 -15v-460q0 -15 -15 -15h-116q-13 0 -15 15l-4 53 q-57 -81 -142 -81q-83 0 -135 57t-52 154v277q0 15 15 15h120q15 0 15 -15v-247q0 -54 25.5 -77.5t60.5 -23.5q44 0 68.5 27.5t24.5 59.5v261q0 15 15 15h120z" glyph-name="uring" horiz-adv-x="592" unicode="ů"/><glyph d="M394 908q20 0 12 -17l-60 -126q-5 -12 -17 -12h-108q-20 0 -12 17l60 126q5 12 17 12h108zM589 908q20 0 12 -17l-60 -126q-5 -12 -17 -12h-108q-20 0 -12 17l60 126q5 12 17 12h108zM588 700q15 0 15 -15v-413q0 -135 -74.5 -210t-194.5 -75q-121 0 -195.5 75t-74.5 210 v413q0 15 15 15h125q15 0 15 -15v-413q0 -132 115 -132q56 0 85 34t29 98v413q0 15 15 15h125z" glyph-name="Uhungarumlaut" horiz-adv-x="667" unicode="Ű"/><glyph d="M180 543q-20 0 -12 17l60 126q5 12 17 12h108q20 0 12 -17l-60 -126q-5 -12 -17 -12h-108zM548 698q20 0 12 -17l-60 -126q-5 -12 -17 -12h-108q-20 0 -12 17l60 126q5 12 17 12h108zM518 490q15 0 15 -15v-460q0 -15 -15 -15h-116q-13 0 -15 15l-4 53q-57 -81 -142 -81 q-83 0 -135 57t-52 154v277q0 15 15 15h120q15 0 15 -15v-247q0 -54 25.5 -77.5t60.5 -23.5q44 0 68.5 27.5t24.5 59.5v261q0 15 15 15h120z" glyph-name="uhungarumlaut" horiz-adv-x="592" unicode="ű"/><glyph d="M588 700q15 0 15 -15v-413q0 -111 -51 -182t-139 -93q-63 -30 -63 -69q0 -18 14.5 -29.5t46.5 -5.5v-91q-23 -10 -53.5 -10.5t-59.5 8.5t-49 34.5t-20 63.5q0 54 48 94q-98 17 -155.5 89.5t-57.5 190.5v413q0 15 15 15h125q15 0 15 -15v-413q0 -132 115 -132q56 0 85 34 t29 98v413q0 15 15 15h125z" glyph-name="Uogonek" horiz-adv-x="657" unicode="Ų"/><glyph d="M518 490q15 0 15 -15v-460q0 -15 -15 -15h-1q-39 0 -62 -22.5t-23 -49.5q0 -18 14.5 -29.5t46.5 -5.5v-91q-23 -10 -53.5 -10.5t-59.5 8.5t-49 34.5t-20 63.5q0 70 76 119l-4 51q-57 -81 -142 -81q-83 0 -135 57t-52 154v277q0 15 15 15h120q15 0 15 -15v-247 q0 -54 25.5 -77.5t60.5 -23.5q44 0 68.5 27.5t24.5 59.5v261q0 15 15 15h120z" glyph-name="uogonek" horiz-adv-x="582" unicode="ų"/><glyph d="M415 772q-10 0 -12.5 5.5t3.5 12.5l98 110q7 8 18 8h86q11 0 18 -8l99 -110q6 -7 3 -12.5t-13 -5.5h-75q-11 0 -18 8l-57 67l-57 -67q-7 -8 -18 -8h-75zM1073 700q17 0 12 -17l-212 -671q-5 -12 -19 -12h-122q-14 0 -17 12l-151 455l-152 -455q-4 -12 -16 -12h-122 q-16 0 -19 12l-210 671q-7 17 12 17h130q13 0 17 -12l133 -482l151 482q1 7 8 10q4 2 8 2h120q5 0 9 -2q4 -3 7 -10l151 -482l134 482q3 12 17 12h131z" glyph-name="Wcircumflex" horiz-adv-x="1130" unicode="Ŵ"/><glyph d="M316 562q-10 0 -12.5 5.5t3.5 12.5l98 110q7 8 18 8h86q11 0 18 -8l99 -110q6 -7 3 -12.5t-13 -5.5h-75q-11 0 -18 8l-57 67l-57 -67q-7 -8 -18 -8h-75zM883 490q18 0 12 -17l-170 -461q-5 -12 -18 -12h-116q-13 0 -18 12l-108 284l-108 -284q-5 -12 -18 -12h-115 q-13 0 -18 12l-170 461q-6 17 12 17h118q14 0 18 -12l102 -302l106 302q3 9 10 10q4 2 8 2h111q4 0 8 -2q7 -1 10 -10l107 -302l101 302q5 12 18 12h118z" glyph-name="wcircumflex" horiz-adv-x="931" unicode="ŵ"/><glyph d="M179 772q-10 0 -12.5 5.5t3.5 12.5l98 110q7 8 18 8h86q11 0 18 -8l99 -110q6 -7 3 -12.5t-13 -5.5h-75q-11 0 -18 8l-57 67l-57 -67q-7 -8 -18 -8h-75zM601 700q20 0 10 -18l-204 -360v-307q0 -15 -15 -15h-126q-15 0 -15 15v310l-204 357q-10 18 10 18h132q12 0 18 -10 l122 -220l122 220q6 10 18 10h132z" glyph-name="Ycircumflex" horiz-adv-x="658" unicode="Ŷ"/><glyph d="M340 698q11 0 18 -8l99 -110q6 -7 3 -12.5t-13 -5.5h-75q-11 0 -18 8l-57 67l-57 -67q-7 -8 -18 -8h-75q-10 0 -12.5 5.5t3.5 12.5l98 110q7 8 18 8h86zM548 490q18 0 12 -17l-259 -651q-5 -12 -18 -12h-117q-21 0 -12 17l71 172l-189 474q-6 17 12 17h121q13 0 18 -12 l110 -302l110 302q5 12 18 12h123z" glyph-name="ycircumflex" horiz-adv-x="596" unicode="ŷ"/><glyph d="M215 766q-30 0 -52 21.5t-22 53.5q0 31 22 52.5t52 21.5t52 -21.5t22 -52.5q0 -32 -22 -53.5t-52 -21.5zM442 766q-30 0 -52 21.5t-22 53.5q0 31 22 52.5t52 21.5t52 -21.5t22 -52.5q0 -32 -22 -53.5t-52 -21.5zM601 700q20 0 10 -18l-204 -360v-307q0 -15 -15 -15h-126 q-15 0 -15 15v310l-204 357q-10 18 10 18h132q12 0 18 -10l122 -220l122 220q6 10 18 10h132z" glyph-name="Ydieresis" horiz-adv-x="658" unicode="Ÿ"/><glyph d="M428 908q20 0 12 -17l-60 -126q-5 -12 -17 -12h-108q-20 0 -12 17l60 126q5 12 17 12h108zM540 137q15 0 15 -15v-107q0 -15 -15 -15h-471q-15 0 -15 15v112q0 9 6 18l317 418h-298q-15 0 -15 15v107q0 15 15 15h451q15 0 15 -15v-112q0 -9 -6 -18l-318 -418h319z" glyph-name="Zacute" horiz-adv-x="608" unicode="Ź"/><glyph d="M372 698q20 0 12 -17l-60 -126q-5 -12 -17 -12h-108q-20 0 -12 17l60 126q5 12 17 12h108zM459 475v-95q0 -12 -7 -19l-233 -239h225q15 0 15 -15v-92q0 -15 -15 -15h-390q-15 0 -15 15v96q0 12 7 19l232 239h-224q-15 0 -15 15v91q0 15 15 15h390q15 0 15 -15z" glyph-name="zacute" horiz-adv-x="498" unicode="ź"/><glyph d="M305 766q-30 0 -52 21.5t-22 53.5q0 31 22 52.5t52 21.5t52 -21.5t22 -52.5q0 -32 -22 -53.5t-52 -21.5zM540 137q15 0 15 -15v-107q0 -15 -15 -15h-471q-15 0 -15 15v112q0 9 6 18l317 418h-298q-15 0 -15 15v107q0 15 15 15h451q15 0 15 -15v-112q0 -9 -6 -18 l-318 -418h319z" glyph-name="Zdotaccent" horiz-adv-x="608" unicode="Ż"/><glyph d="M249 556q-30 0 -52 21.5t-22 53.5q0 31 22 52.5t52 21.5t52 -21.5t22 -52.5q0 -32 -22 -53.5t-52 -21.5zM459 475v-95q0 -12 -7 -19l-233 -239h225q15 0 15 -15v-92q0 -15 -15 -15h-390q-15 0 -15 15v96q0 12 7 19l232 239h-224q-15 0 -15 15v91q0 15 15 15h390 q15 0 15 -15z" glyph-name="zdotaccent" horiz-adv-x="498" unicode="ż"/><glyph d="M348 772h-86q-11 0 -18 8l-98 110q-6 7 -3.5 12.5t12.5 5.5h75q11 0 18 -8l57 -67l57 67q7 8 18 8h75q10 0 13 -5.5t-3 -12.5l-99 -110q-7 -8 -18 -8zM540 137q15 0 15 -15v-107q0 -15 -15 -15h-471q-15 0 -15 15v112q0 9 6 18l317 418h-298q-15 0 -15 15v107q0 15 15 15 h451q15 0 15 -15v-112q0 -9 -6 -18l-318 -418h319z" glyph-name="Zcaron" horiz-adv-x="608" unicode="Ž"/><glyph d="M292 562h-86q-11 0 -18 8l-98 110q-6 7 -3.5 12.5t12.5 5.5h75q11 0 18 -8l57 -67l57 67q7 8 18 8h75q10 0 13 -5.5t-3 -12.5l-99 -110q-7 -8 -18 -8zM459 475v-95q0 -12 -7 -19l-233 -239h225q15 0 15 -15v-92q0 -15 -15 -15h-390q-15 0 -15 15v96q0 12 7 19l232 239 h-224q-15 0 -15 15v91q0 15 15 15h390q15 0 15 -15z" glyph-name="zcaron" horiz-adv-x="498" unicode="ž"/><glyph d="M386 699q10 -6 10 -18v-106q0 -9 -5.5 -12.5t-12.5 1.5q-28 17 -59 17q-32 0 -41.5 -14t-9.5 -44v-33h104q15 0 15 -15v-91q0 -15 -15 -15h-104v-386q0 -86 -48.5 -129.5t-132.5 -43.5q-56 0 -87 17q-10 6 -10 18v106q0 9 5 12t13 -1q28 -17 59 -17q32 0 41.5 14t9.5 44 v366h-58q-15 0 -15 15v91q0 15 15 15h58v53q0 86 48.5 129.5t131.5 43.5q57 0 88 -17z" glyph-name="florin" horiz-adv-x="386" unicode="ƒ"/><glyph d="M297 780l-98 110q-6 7 -3.5 12.5t12.5 5.5h75q11 0 18 -8l57 -67l57 67q7 8 18 8h75q10 0 13 -5.5t-3 -12.5l-99 -110q-7 -8 -18 -8h-86q-11 0 -18 8zM670 17q7 -17 -12 -17h-130q-13 0 -17 12l-35 108h-247l-35 -108q-4 -12 -17 -12h-130q-19 0 -12 17l242 671 q5 12 17 12h115q15 0 19 -12zM271 245h164l-82 251z" glyph-name="uni01CD" horiz-adv-x="705" unicode="Ǎ"/><glyph d="M238 570l-98 110q-6 7 -3.5 12.5t12.5 5.5h75q11 0 18 -8l57 -67l57 67q7 8 18 8h75q10 0 13 -5.5t-3 -12.5l-99 -110q-7 -8 -18 -8h-86q-11 0 -18 8zM544 490q15 0 15 -15v-460q0 -15 -15 -15h-102q-13 0 -15 15l-6 42q-52 -64 -140 -64q-102 0 -169.5 72.5t-67.5 178.5 q0 108 67.5 182t169.5 74q86 0 141 -70l5 45q2 15 15 15h102zM299 130q49 0 79.5 32t30.5 83q0 50 -30.5 84t-79.5 34q-48 0 -79.5 -33t-31.5 -85q0 -51 31.5 -83t79.5 -32z" glyph-name="uni01CE" unicode="ǎ"/><glyph d="M190 772h-86q-11 0 -18 8l-98 110q-6 7 -3.5 12.5t12.5 5.5h75q11 0 18 -8l57 -67l57 67q7 8 18 8h75q10 0 13 -5.5t-3 -12.5l-99 -110q-7 -8 -18 -8zM69 685q0 15 15 15h125q15 0 15 -15v-670q0 -15 -15 -15h-125q-15 0 -15 15v670z" glyph-name="uni01CF" horiz-adv-x="293" unicode="Ǐ"/><glyph d="M172 562h-86q-11 0 -18 8l-98 110q-6 7 -3.5 12.5t12.5 5.5h75q11 0 18 -8l57 -67l57 67q7 8 18 8h75q10 0 13 -5.5t-3 -12.5l-99 -110q-7 -8 -18 -8zM54 475q0 15 15 15h120q15 0 15 -15v-460q0 -15 -15 -15h-120q-15 0 -15 15v460z" glyph-name="uni01D0" horiz-adv-x="258" unicode="ǐ"/><glyph d="M452 772h-86q-11 0 -18 8l-98 110q-6 7 -3.5 12.5t12.5 5.5h75q11 0 18 -8l57 -67l57 67q7 8 18 8h75q10 0 13 -5.5t-3 -12.5l-99 -110q-7 -8 -18 -8zM409 -13q-149 0 -254.5 105t-105.5 255t105.5 255.5t254.5 105.5q150 0 255.5 -105.5t105.5 -255.5t-105.5 -255 t-255.5 -105zM409 139q86 0 144.5 60t58.5 148q0 89 -58.5 149t-144.5 60t-144 -60t-58 -149q0 -88 58.5 -148t143.5 -60z" glyph-name="uni01D1" horiz-adv-x="819" unicode="Ǒ"/><glyph d="M342 562h-86q-11 0 -18 8l-98 110q-6 7 -3.5 12.5t12.5 5.5h75q11 0 18 -8l57 -67l57 67q7 8 18 8h75q10 0 13 -5.5t-3 -12.5l-99 -110q-7 -8 -18 -8zM299 -10q-106 0 -180.5 74.5t-74.5 180.5q0 107 74.5 181.5t180.5 74.5q107 0 181.5 -74.5t74.5 -181.5 q0 -106 -74.5 -180.5t-181.5 -74.5zM299 129q47 0 79 33t32 83q0 51 -32 84t-79 33q-46 0 -78.5 -33.5t-32.5 -83.5t32.5 -83t78.5 -33z" glyph-name="uni01D2" horiz-adv-x="599" unicode="ǒ"/><glyph d="M377 772h-86q-11 0 -18 8l-98 110q-6 7 -3.5 12.5t12.5 5.5h75q11 0 18 -8l57 -67l57 67q7 8 18 8h75q10 0 13 -5.5t-3 -12.5l-99 -110q-7 -8 -18 -8zM588 700q15 0 15 -15v-413q0 -135 -74.5 -210t-194.5 -75q-121 0 -195.5 75t-74.5 210v413q0 15 15 15h125 q15 0 15 -15v-413q0 -132 115 -132q56 0 85 34t29 98v413q0 15 15 15h125z" glyph-name="uni01D3" horiz-adv-x="667" unicode="Ǔ"/><glyph d="M232 570l-98 110q-6 7 -3.5 12.5t12.5 5.5h75q11 0 18 -8l57 -67l57 67q7 8 18 8h75q10 0 13 -5.5t-3 -12.5l-99 -110q-7 -8 -18 -8h-86q-11 0 -18 8zM518 490q15 0 15 -15v-460q0 -15 -15 -15h-116q-13 0 -15 15l-4 53q-57 -81 -142 -81q-83 0 -135 57t-52 154v277 q0 15 15 15h120q15 0 15 -15v-247q0 -54 25.5 -77.5t60.5 -23.5q44 0 68.5 27.5t24.5 59.5v261q0 15 15 15h120z" glyph-name="uni01D4" horiz-adv-x="592" unicode="ǔ"/><glyph d="M385 -12q-36 -23 -36 -60q0 -18 14.5 -29.5t46.5 -5.5v-91q-23 -10 -53.5 -10.5t-59.5 8.5t-49 34.5t-20 63.5q0 64 63 109q-107 37 -174.5 130t-67.5 210q0 150 105.5 255.5t254.5 105.5q150 0 255.5 -105.5t105.5 -255.5t-105.5 -255t-255.5 -105q-16 0 -24 1zM207 347 q0 -88 58.5 -148t143.5 -60q86 0 144.5 60t58.5 148q0 89 -58.5 149t-144.5 60t-144 -60t-58 -149z" glyph-name="uni01EA" horiz-adv-x="809" unicode="Ǫ"/><glyph d="M340 -7q-56 -23 -56 -65q0 -18 15 -29.5t46 -5.5v-91q-23 -10 -53.5 -10.5t-59.5 8.5t-49 34.5t-20 63.5q0 61 59 104q-78 24 -128 91t-50 152q0 107 74.5 181.5t180.5 74.5q107 0 181.5 -74.5t74.5 -181.5q0 -95 -61.5 -166.5t-153.5 -85.5zM188 245q0 -50 32.5 -83 t78.5 -33q47 0 79 33t32 83q0 51 -32 84t-79 33q-46 0 -78.5 -33.5t-32.5 -83.5z" glyph-name="uni01EB" horiz-adv-x="589" unicode="ǫ"/><glyph d="M219 503q0 -25 23.5 -43.5t58.5 -29.5t76.5 -28.5t76.5 -39t58.5 -63.5t23.5 -99q0 -99 -74 -155.5t-172 -56.5q-75 0 -141.5 32t-100.5 78q-8 11 1 21l69 77q9 13 22 2q78 -64 154 -64q38 0 64 18.5t26 50.5q0 22 -17.5 39t-45.5 29t-61.5 24.5t-67.5 29.5t-62 39.5 t-45.5 58.5t-17.5 83q0 92 66 147t157 55q123 0 218 -93q11 -9 2 -21l-65 -79q-9 -13 -21 -4q-73 51 -129 51q-36 0 -56 -17t-20 -42zM287 -38q36 0 59 -26t23 -71q0 -104 -103 -212l-37 22q36 55 44 125q-30 5 -50 28t-20 53q0 34 24.5 57.5t59.5 23.5z" glyph-name="Scommaaccent" horiz-adv-x="580" unicode="Ș"/><glyph d="M196 348q0 -18 23.5 -29.5t57 -20.5t67 -23t57 -47t23.5 -83q0 -71 -59.5 -113t-133.5 -42q-59 0 -109 24t-79 58q-7 9 0 20l44 64q7 9 23 0q66 -41 116 -41q52 0 52 32q0 18 -23.5 30t-56.5 22t-66 24.5t-56.5 46t-23.5 77.5q0 71 51.5 112.5t121.5 41.5q109 0 172 -74 q8 -10 -1 -21l-45 -59q-7 -9 -22 1q-59 34 -89 34q-21 0 -32.5 -10t-11.5 -24zM235 -38q36 0 59 -26t23 -71q0 -104 -103 -212l-37 22q36 55 44 125q-30 5 -50 28t-20 53q0 34 24.5 57.5t59.5 23.5z" glyph-name="scommaaccent" horiz-adv-x="462" unicode="ș"/><glyph d="M517 700q15 0 15 -15v-107q0 -15 -15 -15h-149v-548q0 -15 -15 -15h-125q-15 0 -15 15v548h-149q-15 0 -15 15v107q0 15 15 15h453zM294 -38q36 0 59 -26t23 -71q0 -104 -103 -212l-37 22q36 55 44 125q-30 5 -50 28t-20 53q0 34 24.5 57.5t59.5 23.5z" glyph-name="uni021A" horiz-adv-x="581" unicode="Ț"/><glyph d="M359 490q15 0 15 -15v-91q0 -15 -15 -15h-80v-354q0 -15 -15 -15h-120q-15 0 -15 15v354h-80q-15 0 -15 15v91q0 15 15 15h80v135q0 15 15 15h120q15 0 15 -15v-135h80zM209 -35q36 0 59 -26t23 -71q0 -104 -103 -212l-37 22q36 55 44 125q-30 5 -50 28t-20 53 q0 34 24.5 57.5t59.5 23.5z" glyph-name="uni021B" horiz-adv-x="408" unicode="ț"/><glyph d="M142 490h120q15 0 15 -15v-464q0 -100 -57 -153t-154 -56q-10 0 -12 8l-38 122q-4 11 7 11q42 3 73 26.5t31 71.5v434q0 15 15 15z" glyph-name="uni0237" horiz-adv-x="327" unicode="ȷ"/><glyph d="M222 700q11 0 18 -8l99 -110q6 -7 3 -12.5t-13 -5.5h-75q-11 0 -18 8l-57 67l-57 -67q-7 -8 -18 -8h-75q-10 0 -12.5 5.5t3.5 12.5l98 110q7 8 18 8h86z" glyph-name="circumflex" horiz-adv-x="359" unicode="ˆ"/><glyph d="M222 564h-86q-11 0 -18 8l-98 110q-6 7 -3.5 12.5t12.5 5.5h75q11 0 18 -8l57 -67l57 67q7 8 18 8h75q10 0 13 -5.5t-3 -12.5l-99 -110q-7 -8 -18 -8z" glyph-name="caron" horiz-adv-x="359" unicode="ˇ"/><glyph d="M248 686q3 14 16 14h60q16 0 14 -15q-5 -56 -48.5 -93t-112.5 -37q-70 0 -112.5 37t-48.5 93q-2 15 14 15h60q13 0 16 -14q5 -19 23.5 -33.5t47.5 -14.5q56 0 71 48z" glyph-name="breve" horiz-adv-x="354" unicode="˘"/><glyph d="M89 556q-30 0 -52 21.5t-22 53.5q0 31 22 52.5t52 21.5t52 -21.5t22 -52.5q0 -32 -22 -53.5t-52 -21.5z" glyph-name="dotaccent" horiz-adv-x="178" unicode="˙"/><glyph d="M124 745q42 0 73.5 -31.5t31.5 -74.5t-31.5 -74t-73.5 -31q-45 0 -77 31t-32 74q0 44 31.5 75t77.5 31zM122 617q10 0 17 7t7 16q0 10 -7 16.5t-17 6.5q-9 0 -16 -6.5t-7 -16.5q0 -9 7 -16t16 -7z" glyph-name="ring" horiz-adv-x="244" unicode="˚"/><glyph d="M221 0q-40 0 -62.5 -22.5t-22.5 -49.5q0 -18 14.5 -29.5t46.5 -5.5v-91q-23 -10 -53.5 -10.5t-59.5 8.5t-49 34.5t-20 63.5q0 49 39 87.5t84.5 55t82.5 16.5v-57z" glyph-name="ogonek" horiz-adv-x="236" unicode="˛"/><glyph d="M126 723q28 0 53.5 -11t41.5 -24.5t36 -24.5t38 -11q35 0 47 27q3 8 11 8h34q10 0 10 -10q-3 -54 -33.5 -82t-79.5 -28q-27 0 -52 11t-41 24.5t-36.5 24.5t-38.5 11q-34 0 -46 -27q-3 -8 -11 -8h-34q-10 0 -10 14q4 52 34 79t77 27z" glyph-name="tilde" horiz-adv-x="412" unicode="˜"/><glyph d="M202 728q20 0 12 -17l-60 -126q-5 -12 -17 -12h-108q-20 0 -12 17l60 126q5 12 17 12h108zM397 728q20 0 12 -17l-60 -126q-5 -12 -17 -12h-108q-20 0 -12 17l60 126q5 12 17 12h108z" glyph-name="hungarumlaut" horiz-adv-x="449" unicode="˝"/><glyph d="M-93 -38q36 0 59 -26t23 -71q0 -104 -103 -212l-37 22q36 55 44 125q-30 5 -50 28t-20 53q0 34 24.5 57.5t59.5 23.5z" glyph-name="uni0326" horiz-adv-x="0" unicode="̦"/><glyph d="M671 17q7 -17 -12 -17h-611q-19 0 -12 17l242 671q4 12 17 12h115q14 0 19 -12zM354 496l-123 -374h245z" glyph-name="Delta" horiz-adv-x="697" unicode="Δ"/><glyph d="M765 361q0 -65 -26.5 -130t-83.5 -109h110v-122h-274v167q54 26 86 76.5t32 117.5q0 86 -59 141.5t-146 55.5t-145.5 -55.5t-58.5 -141.5q0 -67 31.5 -117.5t85.5 -76.5v-167h-273v122h110q-57 44 -83.5 109t-26.5 130q0 147 105 247t255 100t255.5 -100t105.5 -247z" glyph-name="Omega" horiz-adv-x="809" unicode="Ω"/><glyph d="M518 490q15 0 15 -15v-460q0 -15 -15 -15h-116q-13 0 -15 15l-4 53q-57 -81 -142 -81q-25 0 -42 4v-166q0 -15 -15 -15h-120q-15 0 -15 15v558h5v92q0 15 15 15h120q15 0 15 -15v-247q0 -54 25.5 -77.5t60.5 -23.5q44 0 68.5 27.5t24.5 59.5v261q0 15 15 15h120z" glyph-name="mu" horiz-adv-x="582" unicode="μ"/><glyph d="M679 131q18 3 18 -14v-94q0 -30 -92 -30q-64 0 -106.5 36t-42.5 114v226h-146v-354q0 -15 -15 -15h-120q-15 0 -15 15v354h-84q-15 0 -15 15v91q0 15 15 15h582q15 0 15 -15v-91q0 -15 -15 -15h-52v-197q0 -43 39 -43q22 0 34 2z" glyph-name="pi" horiz-adv-x="730" unicode="π"/><glyph d="M162 766q-30 0 -52 21.5t-22 53.5q0 31 22 52.5t52 21.5t52 -21.5t22 -52.5q0 -32 -22 -53.5t-52 -21.5zM389 766q-30 0 -52 21.5t-22 53.5q0 31 22 52.5t52 21.5t52 -21.5t22 -52.5q0 -32 -22 -53.5t-52 -21.5zM460 137q15 0 15 -15v-107q0 -15 -15 -15h-376 q-15 0 -15 15v670q0 15 15 15h375q15 0 15 -15v-107q0 -15 -15 -15h-235v-137h221q15 0 15 -15v-107q0 -15 -15 -15h-221v-152h236z" glyph-name="afii10023" horiz-adv-x="540" unicode="Ё"/><glyph d="M207 753q-20 0 -12 17l60 126q5 12 17 12h108q20 0 12 -17l-60 -126q-5 -12 -17 -12h-108zM459 700q15 0 15 -15v-107q0 -15 -15 -15h-235v-548q0 -15 -15 -15h-125q-15 0 -15 15v670q0 15 15 15h375z" glyph-name="afii10052" horiz-adv-x="507" unicode="Ѓ"/><glyph d="M581 194l77 -83q10 -11 0 -21q-98 -103 -247 -103q-151 0 -256.5 104.5t-105.5 255.5t105.5 256t256.5 105q148 0 247 -102q9 -10 0 -21l-77 -84q-9 -11 -21 -1q-66 56 -150 56q-66 0 -117.5 -38t-71.5 -99h210q15 0 15 -15v-107q0 -15 -15 -15h-213q20 -64 72 -103.5 t120 -39.5q84 0 150 56q12 10 21 -1z" glyph-name="afii10053" horiz-adv-x="697" unicode="Є"/><glyph d="M69 685q0 15 15 15h125q15 0 15 -15v-670q0 -15 -15 -15h-125q-15 0 -15 15v670z" glyph-name="afii10055" horiz-adv-x="293" unicode="І"/><glyph d="M33 766q-30 0 -52 21.5t-22 53.5q0 31 22 52.5t52 21.5t52 -21.5t22 -52.5q0 -32 -22 -53.5t-52 -21.5zM260 766q-30 0 -52 21.5t-22 53.5q0 31 22 52.5t52 21.5t52 -21.5t22 -52.5q0 -32 -22 -53.5t-52 -21.5zM69 685q0 15 15 15h125q15 0 15 -15v-670q0 -15 -15 -15 h-125q-15 0 -15 15v670z" glyph-name="afii10056" horiz-adv-x="293" unicode="Ї"/><glyph d="M287 753q-20 0 -12 17l60 126q5 12 17 12h108q20 0 12 -17l-60 -126q-5 -12 -17 -12h-108zM646 18q5 -8 2.5 -13t-11.5 -5h-148q-12 0 -18 9l-194 271l-53 -61v-204q0 -15 -15 -15h-125q-15 0 -15 15v670q0 15 15 15h125q15 0 15 -15v-260l219 267q7 8 18 8h156 q9 0 11.5 -5.5t-3.5 -12.5l-245 -283z" glyph-name="afii10061" horiz-adv-x="684" unicode="Ќ"/><glyph d="M361 764q-70 0 -112.5 37t-48.5 93q-2 15 14 15h60q13 0 16 -14q5 -19 23.5 -33.5t47.5 -14.5q56 0 71 48q3 14 16 14h60q16 0 14 -15q-5 -56 -48.5 -93t-112.5 -37zM671 700q9 0 12 -5t-2 -13l-406 -672q-6 -10 -18 -10h-133q-20 0 -10 18l164 272l-236 392q-5 8 -2 13 t12 5h132q12 0 18 -10l159 -263l159 263q6 10 18 10h133z" glyph-name="afii10062" horiz-adv-x="722" unicode="Ў"/><glyph d="M670 17q7 -17 -12 -17h-130q-13 0 -17 12l-35 108h-247l-35 -108q-4 -12 -17 -12h-130q-19 0 -12 17l242 671q5 12 17 12h115q15 0 19 -12zM271 245h164l-82 251z" glyph-name="afii10017" horiz-adv-x="705" unicode="А"/><glyph d="M297 464q123 0 191.5 -63.5t68.5 -168.5t-68.5 -168.5t-191.5 -63.5h-213q-15 0 -15 15v670q0 15 15 15h375q15 0 15 -15v-107q0 -15 -15 -15h-235v-99h73zM294 137q48 0 81.5 22t33.5 73t-33.5 73t-81.5 22h-70v-190h70z" glyph-name="afii10018" horiz-adv-x="586" unicode="Б"/><glyph d="M454 374q56 -15 96.5 -61t40.5 -111q0 -202 -261 -202h-246q-15 0 -15 15v670q0 15 15 15h245q99 0 154.5 -51.5t55.5 -129.5q0 -52 -24.5 -91t-60.5 -54zM394 499q0 64 -79 64h-91v-134h91q79 0 79 70zM336 137q46 0 73 21t27 63q0 80 -100 80h-112v-164h112z" glyph-name="afii10019" horiz-adv-x="630" unicode="В"/><glyph d="M459 700q15 0 15 -15v-107q0 -15 -15 -15h-235v-548q0 -15 -15 -15h-125q-15 0 -15 15v670q0 15 15 15h375z" glyph-name="afii10020" horiz-adv-x="507" unicode="Г"/><glyph d="M788 137q15 0 15 -15v-176q0 -15 -15 -15h-126q-15 0 -15 15v54h-451v-54q0 -15 -15 -15h-126q-15 0 -15 15v176q0 5 1 7q2 7 8 7q2 1 6 1h10q36 5 62 29.5t26 67.5v451q0 15 15 15h529q15 0 15 -15v-548h76zM309 204q0 -35 -8 -67h256v426h-248v-359z" glyph-name="afii10021" horiz-adv-x="843" unicode="Д"/><glyph d="M460 137q15 0 15 -15v-107q0 -15 -15 -15h-376q-15 0 -15 15v670q0 15 15 15h375q15 0 15 -15v-107q0 -15 -15 -15h-235v-137h221q15 0 15 -15v-107q0 -15 -15 -15h-221v-152h236z" glyph-name="afii10022" horiz-adv-x="540" unicode="Е"/><glyph d="M1042 18q5 -8 2.5 -13t-11.5 -5h-148q-12 0 -18 9l-194 271l-53 -61v-204q0 -15 -15 -15h-135q-15 0 -15 15v204l-53 61l-194 -271q-6 -9 -18 -9h-148q-9 0 -11.5 5t2.5 13l266 381l-245 283q-6 7 -3.5 12.5t11.5 5.5h156q11 0 18 -8l219 -267v260q0 15 15 15h135 q15 0 15 -15v-260l219 267q7 8 18 8h156q9 0 11.5 -5.5t-3.5 -12.5l-245 -283z" glyph-name="afii10024" horiz-adv-x="1069" unicode="Ж"/><glyph d="M399 371q49 -21 83 -64t34 -100q0 -91 -71 -153t-183 -62q-66 0 -122 23.5t-91 63.5q-9 11 1 21l79 75q10 10 22 0q46 -36 104 -36q50 0 76 22t26 58q0 31 -30 55.5t-105 25.5q-15 0 -15 15v91q0 15 16 15q39 1 64.5 7.5t37 18t15 22t3.5 24.5q0 32 -25.5 50t-53.5 18 q-52 0 -92 -33q-12 -10 -22 0l-76 73q-10 10 -1 21q33 39 85.5 62.5t111.5 23.5q91 0 158 -53.5t67 -137.5q0 -49 -28 -88.5t-68 -57.5z" glyph-name="afii10025" horiz-adv-x="561" unicode="З"/><glyph d="M620 700q15 0 15 -15v-670q0 -15 -15 -15h-125q-15 0 -15 15v436l-246 -441q-6 -10 -18 -10h-142q-15 0 -15 15v670q0 15 15 15h125q15 0 15 -15v-437l247 442q6 10 18 10h141z" glyph-name="afii10026" horiz-adv-x="704" unicode="И"/><glyph d="M352 764q-70 0 -112.5 37t-48.5 93q-1 15 14 15h60q13 0 16 -14q5 -19 23.5 -33.5t47.5 -14.5q56 0 71 48q3 14 16 14h60q15 0 14 -15q-5 -56 -48.5 -93t-112.5 -37zM620 700q15 0 15 -15v-670q0 -15 -15 -15h-125q-15 0 -15 15v436l-246 -441q-6 -10 -18 -10h-142 q-15 0 -15 15v670q0 15 15 15h125q15 0 15 -15v-437l247 442q6 10 18 10h141z" glyph-name="afii10027" horiz-adv-x="704" unicode="Й"/><glyph d="M646 18q5 -8 2.5 -13t-11.5 -5h-148q-12 0 -18 9l-194 271l-53 -61v-204q0 -15 -15 -15h-125q-15 0 -15 15v670q0 15 15 15h125q15 0 15 -15v-260l219 267q7 8 18 8h156q9 0 11.5 -5.5t-3.5 -12.5l-245 -283z" glyph-name="afii10028" horiz-adv-x="684" unicode="К"/><glyph d="M676 700q15 0 15 -15v-670q0 -15 -15 -15h-125q-15 0 -15 15v548h-248v-359q0 -100 -60 -154.5t-157 -54.5q-9 0 -12 8l-38 122q-4 11 7 11q41 0 72.5 25t31.5 73v451q0 15 15 15h529z" glyph-name="afii10029" horiz-adv-x="750" unicode="Л"/><glyph d="M805 700q15 0 15 -15v-670q0 -15 -15 -15h-125q-15 0 -15 15v395l-13 -47l-134 -351q-4 -12 -18 -12h-110q-14 0 -19 12l-134 351l-13 48v-396q0 -15 -15 -15h-125q-15 0 -15 15v670q0 15 15 15h137q14 0 18 -10l206 -510l204 510q4 10 18 10h138z" glyph-name="afii10030" horiz-adv-x="889" unicode="М"/><glyph d="M608 700q15 0 15 -15v-670q0 -15 -15 -15h-125q-15 0 -15 15v260h-244v-260q0 -15 -15 -15h-125q-15 0 -15 15v670q0 15 15 15h125q15 0 15 -15v-273h244v273q0 15 15 15h125z" glyph-name="afii10031" horiz-adv-x="692" unicode="Н"/><glyph d="M409 -13q-149 0 -254.5 105t-105.5 255t105.5 255.5t254.5 105.5q150 0 255.5 -105.5t105.5 -255.5t-105.5 -255t-255.5 -105zM409 139q86 0 144.5 60t58.5 148q0 89 -58.5 149t-144.5 60t-144 -60t-58 -149q0 -88 58.5 -148t143.5 -60z" glyph-name="afii10032" horiz-adv-x="819" unicode="О"/><glyph d="M608 700q15 0 15 -15v-670q0 -15 -15 -15h-125q-15 0 -15 15v548h-244v-548q0 -15 -15 -15h-125q-15 0 -15 15v670q0 15 15 15h524z" glyph-name="afii10033" horiz-adv-x="682" unicode="П"/><glyph d="M297 700q123 0 191.5 -63.5t68.5 -168.5t-68.5 -168.5t-191.5 -63.5h-73v-221q0 -15 -15 -15h-125q-15 0 -15 15v670q0 15 15 15h213zM294 373q48 0 81.5 22t33.5 73t-33.5 73t-81.5 22h-70v-190h70z" glyph-name="afii10034" horiz-adv-x="596" unicode="Р"/><glyph d="M581 194l77 -83q10 -11 0 -21q-98 -103 -247 -103q-151 0 -256.5 104.5t-105.5 255.5t105.5 256t256.5 105q148 0 247 -102q9 -10 0 -21l-77 -84q-9 -11 -21 -1q-66 56 -150 56q-85 0 -143 -60t-58 -149q0 -88 58 -148t143 -60q84 0 150 56q12 10 21 -1z" glyph-name="afii10035" horiz-adv-x="707" unicode="С"/><glyph d="M517 700q15 0 15 -15v-107q0 -15 -15 -15h-149v-548q0 -15 -15 -15h-125q-15 0 -15 15v548h-149q-15 0 -15 15v107q0 15 15 15h453z" glyph-name="afii10036" horiz-adv-x="581" unicode="Т"/><glyph d="M671 700q9 0 12 -5t-2 -13l-406 -672q-6 -10 -18 -10h-133q-20 0 -10 18l164 272l-236 392q-5 8 -2 13t12 5h132q12 0 18 -10l159 -263l159 263q6 10 18 10h133z" glyph-name="afii10037" horiz-adv-x="722" unicode="У"/><glyph d="M570 640q148 0 236.5 -87.5t88.5 -202.5t-88.5 -202.5t-236.5 -87.5h-21v-45q0 -15 -15 -15h-125q-15 0 -15 15v45h-30q-148 0 -236.5 87.5t-88.5 202.5t88.5 202.5t236.5 87.5h30v45q0 15 15 15h125q15 0 15 -15v-45h21zM364 197h30v306h-30q-78 0 -122.5 -43 t-44.5 -110t44.5 -110t122.5 -43zM570 197q78 0 122.5 43t44.5 110t-44.5 110t-122.5 43h-21v-306h21z" glyph-name="afii10038" horiz-adv-x="934" unicode="Ф"/><glyph d="M619 18q10 -18 -10 -18h-132q-12 0 -18 10l-126 211l-126 -211q-6 -10 -18 -10h-132q-20 0 -10 18l204 340l-194 324q-10 18 10 18h132q12 0 18 -10l116 -194l116 194q6 10 18 10h132q20 0 10 -18l-194 -324z" glyph-name="afii10039" horiz-adv-x="666" unicode="Х"/><glyph d="M701 137q15 0 15 -15v-176q0 -15 -15 -15h-125q-15 0 -15 15v54h-477q-15 0 -15 15v670q0 15 15 15h125q15 0 15 -15v-548h244v548q0 15 15 15h125q15 0 15 -15v-548h78z" glyph-name="afii10040" horiz-adv-x="756" unicode="Ц"/><glyph d="M581 700q15 0 15 -15v-670q0 -15 -15 -15h-125q-15 0 -15 15v280q-71 -93 -197 -93q-83 0 -143.5 63.5t-60.5 159.5v260q0 15 15 15h126q15 0 15 -15v-230q0 -54 31 -77t69 -23q58 0 101.5 29.5t43.5 51.5v249q0 15 15 15h125z" glyph-name="afii10041" horiz-adv-x="660" unicode="Ч"/><glyph d="M1007 700q15 0 15 -15v-670q0 -15 -15 -15h-923q-15 0 -15 15v670q0 15 15 15h125q15 0 15 -15v-548h244v548q0 15 15 15h125q15 0 15 -15v-548h244v548q0 15 15 15h125z" glyph-name="afii10042" horiz-adv-x="1081" unicode="Ш"/><glyph d="M1100 137q15 0 15 -15v-176q0 -15 -15 -15h-126q-15 0 -15 15v54h-875q-15 0 -15 15v670q0 15 15 15h125q15 0 15 -15v-548h244v548q0 15 15 15h125q15 0 15 -15v-548h244v548q0 15 15 15h125q15 0 15 -15v-548h78z" glyph-name="afii10043" horiz-adv-x="1155" unicode="Щ"/><glyph d="M379 464q123 0 191.5 -63.5t68.5 -168.5t-68.5 -168.5t-191.5 -63.5h-213q-15 0 -15 15v548h-111q-15 0 -15 15v107q0 15 15 15h251q15 0 15 -15v-221h73zM376 137q48 0 81.5 22t33.5 73t-33.5 73t-81.5 22h-70v-190h70z" glyph-name="afii10044" horiz-adv-x="668" unicode="Ъ"/><glyph d="M297 0h-213q-15 0 -15 15v670q0 15 15 15h125q15 0 15 -15v-221h73q123 0 191.5 -63.5t68.5 -168.5t-68.5 -168.5t-191.5 -63.5zM677 685q0 15 15 15h125q15 0 15 -15v-670q0 -15 -15 -15h-125q-15 0 -15 15v670zM294 327h-70v-190h70q48 0 81.5 22t33.5 73t-33.5 73 t-81.5 22z" glyph-name="afii10045" horiz-adv-x="891" unicode="Ы"/><glyph d="M297 0h-213q-15 0 -15 15v670q0 15 15 15h125q15 0 15 -15v-221h73q123 0 191.5 -63.5t68.5 -168.5t-68.5 -168.5t-191.5 -63.5zM294 327h-70v-190h70q48 0 81.5 22t33.5 73t-33.5 73t-81.5 22z" glyph-name="afii10046" horiz-adv-x="586" unicode="Ь"/><glyph d="M291 708q151 0 256.5 -105t105.5 -256t-105.5 -255.5t-256.5 -104.5q-149 0 -247 103q-10 10 0 21l77 83q9 11 21 1q66 -56 150 -56q68 0 120 39.5t72 103.5h-213q-15 0 -15 15v107q0 15 15 15h210q-20 61 -71.5 99t-117.5 38q-84 0 -150 -56q-12 -10 -21 1l-77 84 q-9 11 0 21q99 102 247 102z" glyph-name="afii10047" horiz-adv-x="697" unicode="Э"/><glyph d="M633 708q150 0 255.5 -105.5t105.5 -255.5t-105.5 -255t-255.5 -105q-131 0 -231 84t-123 211h-55v-267q0 -15 -15 -15h-125q-15 0 -15 15v670q0 15 15 15h125q15 0 15 -15v-266h56q25 125 124 207t229 82zM633 139q86 0 144.5 60t58.5 148q0 89 -58.5 149t-144.5 60 t-144 -60t-58 -149q0 -88 58.5 -148t143.5 -60z" glyph-name="afii10048" horiz-adv-x="1032" unicode="Ю"/><glyph d="M539 700q15 0 15 -15v-670q0 -15 -15 -15h-125q-15 0 -15 15v221h-41l-145 -226q-6 -10 -18 -10h-133q-21 0 -10 18l156 238q-69 25 -105.5 80.5t-36.5 131.5q0 105 68.5 168.5t191.5 63.5h213zM329 563q-48 0 -81.5 -22t-33.5 -73t33.5 -73t81.5 -22h70v190h-70z" glyph-name="afii10049" horiz-adv-x="623" unicode="Я"/><glyph d="M544 490q15 0 15 -15v-460q0 -15 -15 -15h-102q-13 0 -15 15l-6 42q-52 -64 -140 -64q-102 0 -169.5 72.5t-67.5 178.5q0 108 67.5 182t169.5 74q86 0 141 -70l5 45q2 15 15 15h102zM299 130q49 0 79.5 32t30.5 83q0 50 -30.5 84t-79.5 34q-48 0 -79.5 -33t-31.5 -85 q0 -51 31.5 -83t79.5 -32z" glyph-name="afii10065" unicode="а"/><glyph d="M336 501q101 0 168.5 -74.5t67.5 -182.5t-67.5 -182.5t-168.5 -74.5q-82 0 -141 64l-3 -36q-2 -15 -15 -15h-108q-15 0 -15 15v501q0 184 163 184h118q53 0 75 20h114q-1 -152 -189 -152h-79q-32 0 -43.5 -15t-11.5 -46l1 -66q57 60 134 60zM317 124q48 0 79 34.5 t31 86.5q0 51 -31 85.5t-79 34.5q-47 0 -78.5 -35t-31.5 -85t31.5 -85.5t78.5 -35.5z" glyph-name="afii10066" horiz-adv-x="611" unicode="б"/><glyph d="M455 256q47 -11 75 -42.5t28 -72.5q0 -73 -61.5 -107t-166.5 -34h-261q-15 0 -15 15v460q0 15 15 15h261q84 0 137.5 -36.5t53.5 -103.5t-66 -94zM386 335q0 34 -62 34h-120v-70h122q27 0 41.5 7t16.5 13t2 16zM324 122q55 0 72.5 9.5t17.5 29.5q0 18 -17 27t-71 9h-122 v-75h120z" glyph-name="afii10067" horiz-adv-x="591" unicode="в"/><glyph d="M396 490q15 0 15 -15v-91q0 -15 -15 -15h-192v-354q0 -15 -15 -15h-120q-15 0 -15 15v460q0 15 15 15h327z" glyph-name="afii10068" horiz-adv-x="445" unicode="г"/><glyph d="M712 122q15 0 15 -15v-149q0 -15 -15 -15h-120q-15 0 -15 15v42h-387v-42q0 -15 -15 -15h-120q-15 0 -15 15v169q0 4 1 6q3 3 7 3q41 0 72.5 25t31.5 73v241q0 15 15 15h439q15 0 15 -15v-353h91zM302 369v-165q0 -46 -12 -82h181v247h-169z" glyph-name="afii10069" horiz-adv-x="767" unicode="д"/><glyph d="M526 256q0 -33 -7 -47.5t-29 -14.5h-297q23 -81 126 -81q49 0 95 29q12 8 22 -2l52 -50q9 -11 -2 -22q-75 -75 -182 -75q-114 0 -187 73.5t-73 180.5t71 180t178 73q104 0 168.5 -71t64.5 -173zM294 373q-39 0 -67 -21.5t-36 -62.5h202q-7 41 -34 62.5t-65 21.5z" glyph-name="afii10070" horiz-adv-x="570" unicode="е"/><glyph d="M935 18q6 -8 3.5 -13t-12.5 -5h-144q-11 0 -18 8l-151 172l-53 -55v-110q0 -15 -15 -15h-121q-15 0 -15 15v110l-53 55l-151 -172q-7 -8 -18 -8h-144q-10 0 -12.5 5t3.5 13l228 259l-190 195q-7 8 -4.5 13t12.5 5h143q12 0 19 -8l167 -173v166q0 15 15 15h121 q15 0 15 -15v-166l167 173q7 8 19 8h143q10 0 12.5 -5t-4.5 -13l-190 -195z" glyph-name="afii10072" horiz-adv-x="968" unicode="ж"/><glyph d="M330 262q75 -39 75 -119q0 -70 -54 -110.5t-126 -40.5q-123 0 -174 63q-13 16 2 31l54 55q10 10 27 -1q30 -24 74 -24q24 0 44.5 10.5t20.5 35.5q0 19 -20.5 32.5t-67.5 13.5q-11 0 -17.5 6t-6.5 16v51q0 23 24 23q70 0 70 37q0 33 -52 33q-21 0 -57 -15q-23 -15 -37 0 l-43 47q-14 14 -1 29q54 61 160 61q65 0 115.5 -35.5t50.5 -95.5q0 -61 -61 -103z" glyph-name="afii10073" horiz-adv-x="450" unicode="з"/><glyph d="M533 490q15 0 15 -15v-460q0 -15 -15 -15h-120q-15 0 -15 15v274l-188 -279q-7 -10 -19 -10h-123q-14 0 -14 15v460q0 15 15 15h120q15 0 15 -15v-273l187 278q7 10 19 10h123z" glyph-name="afii10074" horiz-adv-x="601" unicode="и"/><glyph d="M316 554q-70 0 -112.5 37t-48.5 93q-1 15 14 15h60q13 0 16 -14q5 -19 23.5 -33.5t47.5 -14.5q56 0 71 48q3 14 16 14h60q15 0 14 -15q-5 -56 -48.5 -93t-112.5 -37zM533 490q15 0 15 -15v-460q0 -15 -15 -15h-120q-15 0 -15 15v274l-188 -279q-7 -10 -19 -10h-123 q-14 0 -14 15v460q0 15 15 15h120q15 0 15 -15v-273l187 278q7 10 19 10h123z" glyph-name="afii10075" horiz-adv-x="601" unicode="й"/><glyph d="M579 18q6 -8 3.5 -13t-12.5 -5h-144q-11 0 -18 8l-151 172l-53 -55v-110q0 -15 -15 -15h-120q-15 0 -15 15v460q0 15 15 15h120q15 0 15 -15v-166l167 173q7 8 19 8h143q10 0 12.5 -5t-4.5 -13l-190 -195z" glyph-name="afii10076" horiz-adv-x="613" unicode="к"/><glyph d="M581 490q15 0 15 -15v-460q0 -15 -15 -15h-120q-15 0 -15 15v354h-169v-165q0 -101 -57.5 -155t-153.5 -54q-9 0 -12 8l-38 122q-4 11 7 11q41 0 72.5 25t31.5 73v241q0 15 15 15h439z" glyph-name="afii10077" horiz-adv-x="650" unicode="л"/><glyph d="M703 490q15 0 15 -15v-460q0 -15 -15 -15h-120q-15 0 -15 15v213l-101 -217q-5 -11 -17 -11h-128q-12 0 -17 11l-101 216v-212q0 -15 -15 -15h-120q-15 0 -15 15v460q0 15 15 15h143q11 0 17 -11l158 -323l156 323q6 11 17 11h143z" glyph-name="afii10078" horiz-adv-x="772" unicode="м"/><glyph d="M540 490q15 0 15 -15v-460q0 -15 -15 -15h-120q-15 0 -15 15v169h-201v-169q0 -15 -15 -15h-120q-15 0 -15 15v460q0 15 15 15h120q15 0 15 -15v-169h201v169q0 15 15 15h120z" glyph-name="afii10079" horiz-adv-x="609" unicode="н"/><glyph d="M299 -10q-106 0 -180.5 74.5t-74.5 180.5q0 107 74.5 181.5t180.5 74.5q107 0 181.5 -74.5t74.5 -181.5q0 -106 -74.5 -180.5t-181.5 -74.5zM299 129q47 0 79 33t32 83q0 51 -32 84t-79 33q-46 0 -78.5 -33.5t-32.5 -83.5t32.5 -83t78.5 -33z" glyph-name="afii10080" horiz-adv-x="599" unicode="о"/><glyph d="M540 490q15 0 15 -15v-460q0 -15 -15 -15h-120q-15 0 -15 15v354h-201v-354q0 -15 -15 -15h-120q-15 0 -15 15v460q0 15 15 15h471z" glyph-name="afii10081" horiz-adv-x="609" unicode="п"/><glyph d="M337 500q102 0 169.5 -74t67.5 -182q0 -106 -67.5 -178.5t-169.5 -72.5q-79 0 -128 51v-219q0 -15 -15 -15h-120q-15 0 -15 15v650q0 15 15 15h102q13 0 15 -15l5 -45q55 70 141 70zM319 130q48 0 79.5 32t31.5 83q0 52 -31.5 85t-79.5 33q-49 0 -79.5 -34t-30.5 -84 q0 -51 30.5 -83t79.5 -32z" glyph-name="afii10082" unicode="р"/><glyph d="M299 132q49 0 93 38q12 10 22 0l72 -69q10 -10 1 -21q-76 -87 -192 -87q-106 0 -178.5 74t-72.5 181q0 105 73 178.5t178 73.5q113 0 189 -87q9 -11 -1 -21l-72 -70q-10 -10 -22 1q-43 38 -90 38q-48 0 -79.5 -32.5t-31.5 -80.5q0 -49 31.5 -82.5t79.5 -33.5z" glyph-name="afii10083" horiz-adv-x="530" unicode="с"/><glyph d="M422 490q15 0 15 -15v-91q0 -15 -15 -15h-109v-354q0 -15 -15 -15h-120q-15 0 -15 15v354h-109q-15 0 -15 15v91q0 15 15 15h368z" glyph-name="afii10084" horiz-adv-x="476" unicode="т"/><glyph d="M548 490q18 0 12 -17l-259 -651q-5 -12 -18 -12h-117q-21 0 -12 17l71 172l-189 474q-6 17 12 17h121q13 0 18 -12l110 -302l110 302q5 12 18 12h123z" glyph-name="afii10085" horiz-adv-x="586" unicode="у"/><glyph d="M683 501q101 0 168.5 -74.5t67.5 -182.5t-67.5 -182.5t-168.5 -74.5q-74 0 -129 53v-215q0 -15 -15 -15h-120q-15 0 -15 15v219q-57 -55 -129 -55q-101 0 -168.5 75t-67.5 183t67.5 182.5t168.5 74.5q74 0 129 -52v214q0 15 15 15h120q15 0 15 -15v-220q57 55 129 55z M294 126q47 0 78.5 35.5t31.5 84.5q0 50 -31.5 85.5t-78.5 35.5q-48 0 -79.5 -34.5t-31.5 -86.5t31.5 -86t79.5 -34zM665 124q47 0 78.5 34.5t31.5 86.5q0 51 -31.5 85.5t-78.5 34.5t-79 -35.5t-32 -84.5q0 -50 32 -85.5t79 -35.5z" glyph-name="afii10086" horiz-adv-x="958" unicode="ф"/><glyph d="M544 18q5 -8 2 -13t-12 -5h-136q-11 0 -18 10l-83 129l-84 -129q-7 -10 -18 -10h-136q-9 0 -12 5t2 13l161 233l-153 221q-5 8 -2 13t12 5h136q11 0 18 -10l76 -116l75 116q7 10 18 10h136q9 0 12 -5t-2 -13l-153 -221z" glyph-name="afii10087" horiz-adv-x="593" unicode="х"/><glyph d="M614 122q15 0 15 -15v-149q0 -15 -15 -15h-120q-15 0 -15 15v42h-410q-15 0 -15 15v460q0 15 15 15h120q15 0 15 -15v-354h190v1h11v353q0 15 15 15h120q15 0 15 -15v-353h59z" glyph-name="afii10088" horiz-adv-x="669" unicode="ц"/><glyph d="M538 490q15 0 15 -15v-460q0 -15 -15 -15h-120q-15 0 -15 15v166q-58 -65 -151 -65q-95 0 -154 54.5t-59 162.5v142q0 15 15 15h120q15 0 15 -15v-144q0 -47 22.5 -79t71.5 -32q67 0 120 75v180q0 15 15 15h120z" glyph-name="afii10089" horiz-adv-x="606" unicode="ч"/><glyph d="M729 490q15 0 15 -15v-460q0 -15 -15 -15h-660q-15 0 -15 15v460q0 15 15 15h120q15 0 15 -15v-353h120v353q0 15 15 15h120q15 0 15 -15v-353h120v353q0 15 15 15h120z" glyph-name="afii10090" horiz-adv-x="798" unicode="ш"/><glyph d="M814 122q15 0 15 -15v-149q0 -15 -15 -15h-120q-15 0 -15 15v42h-610q-15 0 -15 15v460q0 15 15 15h120q15 0 15 -15v-353h120v353q0 15 15 15h120q15 0 15 -15v-353h120v353q0 15 15 15h120q15 0 15 -15v-353h70z" glyph-name="afii10091" horiz-adv-x="869" unicode="щ"/><glyph d="M353 326q216 0 216 -163t-216 -163h-245q-15 0 -15 15v354h-48q-15 0 -15 15v91q0 15 15 15h183q15 0 15 -15v-149h110zM355 109q36 0 53 12t17 42t-17 42t-53 12h-112v-108h112z" glyph-name="afii10092" horiz-adv-x="603" unicode="ъ"/><glyph d="M314 326q216 0 216 -163t-216 -163h-245q-15 0 -15 15v460q0 15 15 15h120q15 0 15 -15v-149h110zM743 490q15 0 15 -15v-460q0 -15 -15 -15h-120q-15 0 -15 15v460q0 15 15 15h120zM316 109q36 0 53 12t17 42t-17 42t-53 12h-112v-108h112z" glyph-name="afii10093" horiz-adv-x="811" unicode="ы"/><glyph d="M314 326q216 0 216 -163t-216 -163h-245q-15 0 -15 15v460q0 15 15 15h120q15 0 15 -15v-149h110zM316 109q36 0 53 12t17 42t-17 42t-53 12h-112v-108h112z" glyph-name="afii10094" horiz-adv-x="564" unicode="ь"/><glyph d="M230 500q105 0 178 -73.5t73 -178.5q0 -107 -72.5 -181t-178.5 -74q-116 0 -192 87q-9 11 1 21l72 69q10 10 22 0q44 -38 93 -38q67 0 97 58h-121q-15 0 -15 15v78q0 15 15 15h124q-13 29 -39.5 46t-60.5 17q-47 0 -90 -38q-12 -11 -22 -1l-72 70q-10 10 -1 21 q76 87 189 87z" glyph-name="afii10095" horiz-adv-x="520" unicode="э"/><glyph d="M529 501q107 0 181.5 -74.5t74.5 -181.5q0 -106 -74.5 -180.5t-181.5 -74.5q-89 0 -158 54t-90 139h-77v-169q0 -15 -15 -15h-120q-15 0 -15 15v460q0 15 15 15h120q15 0 15 -15v-169h77q20 86 89 141t159 55zM529 129q47 0 79 33t32 83q0 51 -32 84t-79 33 q-46 0 -78.5 -33.5t-32.5 -83.5t32.5 -83t78.5 -33z" glyph-name="afii10096" horiz-adv-x="819" unicode="ю"/><glyph d="M522 490q15 0 15 -15v-460q0 -15 -15 -15h-120q-15 0 -15 15v149h-51l-140 -156q-7 -8 -18 -8h-123q-10 0 -12.5 5.5t4.5 12.5l139 151q-147 23 -147 158q0 163 216 163h267zM253 381q-70 0 -70 -54t70 -54h134v108h-134z" glyph-name="afii10097" horiz-adv-x="591" unicode="я"/><glyph d="M184 586q-30 0 -52 21.5t-22 53.5q0 31 22 52.5t52 21.5t52 -21.5t22 -52.5q0 -32 -22 -53.5t-52 -21.5zM411 586q-30 0 -52 21.5t-22 53.5q0 31 22 52.5t52 21.5t52 -21.5t22 -52.5q0 -32 -22 -53.5t-52 -21.5zM526 256q0 -33 -7 -47.5t-29 -14.5h-297q23 -81 126 -81 q49 0 95 29q12 8 22 -2l52 -50q9 -11 -2 -22q-75 -75 -182 -75q-114 0 -187 73.5t-73 180.5t71 180t178 73q104 0 168.5 -71t64.5 -173zM294 373q-39 0 -67 -21.5t-36 -62.5h202q-7 41 -34 62.5t-65 21.5z" glyph-name="afii10071" horiz-adv-x="570" unicode="ё"/><glyph d="M171 543q-20 0 -12 17l60 126q5 12 17 12h108q20 0 12 -17l-60 -126q-5 -12 -17 -12h-108zM396 490q15 0 15 -15v-91q0 -15 -15 -15h-192v-354q0 -15 -15 -15h-120q-15 0 -15 15v460q0 15 15 15h327z" glyph-name="afii10100" horiz-adv-x="445" unicode="ѓ"/><glyph d="M486 101q10 -10 1 -21q-76 -87 -192 -87q-106 0 -178.5 74t-72.5 181q0 105 73 178.5t178 73.5q113 0 189 -87q9 -11 -1 -21l-72 -70q-10 -10 -22 1q-43 38 -90 38q-34 0 -60.5 -17t-39.5 -46h124q15 0 15 -15v-78q0 -15 -15 -15h-121q30 -58 97 -58q49 0 93 38 q12 10 22 0z" glyph-name="afii10101" horiz-adv-x="520" unicode="є"/><glyph d="M15 556q-30 0 -52 21.5t-22 53.5q0 31 22 52.5t52 21.5t52 -21.5t22 -52.5q0 -32 -22 -53.5t-52 -21.5zM242 556q-30 0 -52 21.5t-22 53.5q0 31 22 52.5t52 21.5t52 -21.5t22 -52.5q0 -32 -22 -53.5t-52 -21.5zM54 475q0 15 15 15h120q15 0 15 -15v-460q0 -15 -15 -15 h-120q-15 0 -15 15v460z" glyph-name="afii10104" horiz-adv-x="258" unicode="ї"/><glyph d="M257 543q-20 0 -12 17l60 126q5 12 17 12h108q20 0 12 -17l-60 -126q-5 -12 -17 -12h-108zM579 18q6 -8 3.5 -13t-12.5 -5h-144q-11 0 -18 8l-151 172l-53 -55v-110q0 -15 -15 -15h-120q-15 0 -15 15v460q0 15 15 15h120q15 0 15 -15v-166l167 173q7 8 19 8h143 q10 0 12.5 -5t-4.5 -13l-190 -195z" glyph-name="afii10109" horiz-adv-x="613" unicode="ќ"/><glyph d="M368 685q3 14 16 14h60q16 0 14 -15q-5 -56 -48.5 -93t-112.5 -37q-70 0 -112.5 37t-48.5 93q-2 15 14 15h60q13 0 16 -14q5 -19 23.5 -33.5t47.5 -14.5q56 0 71 48zM548 490q18 0 12 -17l-259 -651q-5 -12 -18 -12h-117q-21 0 -12 17l71 172l-189 474q-6 17 12 17h121 q13 0 18 -12l110 -302l110 302q5 12 18 12h123z" glyph-name="afii10110" horiz-adv-x="586" unicode="ў"/><glyph d="M459 751q15 0 15 -15v-158q0 -15 -15 -15h-235v-548q0 -15 -15 -15h-125q-15 0 -15 15v670q0 15 15 15h253v36q0 15 15 15h107z" glyph-name="afii10050" horiz-adv-x="507" unicode="Ґ"/><glyph d="M396 552q15 0 15 -15v-153q0 -15 -15 -15h-192v-354q0 -15 -15 -15h-120q-15 0 -15 15v460q0 15 15 15h192v47q0 15 15 15h120z" glyph-name="afii10098" horiz-adv-x="445" unicode="ґ"/><glyph d="M481 765l-60 126q-8 17 12 17h108q12 0 17 -12l60 -126q8 -17 -12 -17h-108q-12 0 -17 12zM1073 700q17 0 12 -17l-212 -671q-5 -12 -19 -12h-122q-14 0 -17 12l-151 455l-152 -455q-4 -12 -16 -12h-122q-16 0 -19 12l-210 671q-7 17 12 17h130q13 0 17 -12l133 -482 l151 482q1 7 8 10q4 2 8 2h120q5 0 9 -2q4 -3 7 -10l151 -482l134 482q3 12 17 12h131z" glyph-name="Wgrave" horiz-adv-x="1130" unicode="Ẁ"/><glyph d="M382 555l-60 126q-8 17 12 17h108q12 0 17 -12l60 -126q8 -17 -12 -17h-108q-12 0 -17 12zM883 490q18 0 12 -17l-170 -461q-5 -12 -18 -12h-116q-13 0 -18 12l-108 284l-108 -284q-5 -12 -18 -12h-115q-13 0 -18 12l-170 461q-6 17 12 17h118q14 0 18 -12l102 -302 l106 302q3 9 10 10q4 2 8 2h111q4 0 8 -2q7 -1 10 -10l107 -302l101 302q5 12 18 12h118z" glyph-name="wgrave" horiz-adv-x="931" unicode="ẁ"/><glyph d="M515 753q-20 0 -12 17l60 126q5 12 17 12h108q20 0 12 -17l-60 -126q-5 -12 -17 -12h-108zM1073 700q17 0 12 -17l-212 -671q-5 -12 -19 -12h-122q-14 0 -17 12l-151 455l-152 -455q-4 -12 -16 -12h-122q-16 0 -19 12l-210 671q-7 17 12 17h130q13 0 17 -12l133 -482 l151 482q1 7 8 10q4 2 8 2h120q5 0 9 -2q4 -3 7 -10l151 -482l134 482q3 12 17 12h131z" glyph-name="Wacute" horiz-adv-x="1130" unicode="Ẃ"/><glyph d="M416 543q-20 0 -12 17l60 126q5 12 17 12h108q20 0 12 -17l-60 -126q-5 -12 -17 -12h-108zM883 490q18 0 12 -17l-170 -461q-5 -12 -18 -12h-116q-13 0 -18 12l-108 284l-108 -284q-5 -12 -18 -12h-115q-13 0 -18 12l-170 461q-6 17 12 17h118q14 0 18 -12l102 -302 l106 302q3 9 10 10q4 2 8 2h111q4 0 8 -2q7 -1 10 -10l107 -302l101 302q5 12 18 12h118z" glyph-name="wacute" horiz-adv-x="931" unicode="ẃ"/><glyph d="M451 766q-30 0 -52 21.5t-22 53.5q0 31 22 52.5t52 21.5t52 -21.5t22 -52.5q0 -32 -22 -53.5t-52 -21.5zM678 766q-30 0 -52 21.5t-22 53.5q0 31 22 52.5t52 21.5t52 -21.5t22 -52.5q0 -32 -22 -53.5t-52 -21.5zM1073 700q17 0 12 -17l-212 -671q-5 -12 -19 -12h-122 q-14 0 -17 12l-151 455l-152 -455q-4 -12 -16 -12h-122q-16 0 -19 12l-210 671q-7 17 12 17h130q13 0 17 -12l133 -482l151 482q1 7 8 10q4 2 8 2h120q5 0 9 -2q4 -3 7 -10l151 -482l134 482q3 12 17 12h131z" glyph-name="Wdieresis" horiz-adv-x="1130" unicode="Ẅ"/><glyph d="M352 556q-30 0 -52 21.5t-22 53.5q0 31 22 52.5t52 21.5t52 -21.5t22 -52.5q0 -32 -22 -53.5t-52 -21.5zM579 556q-30 0 -52 21.5t-22 53.5q0 31 22 52.5t52 21.5t52 -21.5t22 -52.5q0 -32 -22 -53.5t-52 -21.5zM883 490q18 0 12 -17l-170 -461q-5 -12 -18 -12h-116 q-13 0 -18 12l-108 284l-108 -284q-5 -12 -18 -12h-115q-13 0 -18 12l-170 461q-6 17 12 17h118q14 0 18 -12l102 -302l106 302q3 9 10 10q4 2 8 2h111q4 0 8 -2q7 -1 10 -10l107 -302l101 302q5 12 18 12h118z" glyph-name="wdieresis" horiz-adv-x="931" unicode="ẅ"/><glyph d="M245 765l-60 126q-8 17 12 17h108q12 0 17 -12l60 -126q8 -17 -12 -17h-108q-12 0 -17 12zM601 700q20 0 10 -18l-204 -360v-307q0 -15 -15 -15h-126q-15 0 -15 15v310l-204 357q-10 18 10 18h132q12 0 18 -10l122 -220l122 220q6 10 18 10h132z" glyph-name="Ygrave" horiz-adv-x="658" unicode="Ỳ"/><glyph d="M165 698h108q12 0 17 -12l60 -126q8 -17 -12 -17h-108q-12 0 -17 12l-60 126q-8 17 12 17zM548 490q18 0 12 -17l-259 -651q-5 -12 -18 -12h-117q-21 0 -12 17l71 172l-189 474q-6 17 12 17h121q13 0 18 -12l110 -302l110 302q5 12 18 12h123z" glyph-name="ygrave" horiz-adv-x="596" unicode="ỳ"/><glyph d="M555 336q15 0 15 -15v-91q0 -15 -15 -15h-480q-15 0 -15 15v91q0 15 15 15h480z" glyph-name="endash" horiz-adv-x="630" unicode="–"/><glyph d="M615 336q15 0 15 -15v-91q0 -15 -15 -15h-540q-15 0 -15 15v91q0 15 15 15h540z" glyph-name="emdash" horiz-adv-x="690" unicode="—"/><glyph d="M136 570q30 -5 50 -28t20 -53q0 -34 -24.5 -57.5t-59.5 -23.5q-36 0 -59 26t-23 71q0 104 103 212l37 -22q-36 -55 -44 -125z" glyph-name="quoteleft" horiz-adv-x="246" unicode="‘"/><glyph d="M124 716q36 0 59 -26t23 -71q0 -104 -103 -212l-37 22q36 55 44 125q-30 5 -50 28t-20 53q0 34 24.5 57.5t59.5 23.5z" glyph-name="quoteright" horiz-adv-x="246" unicode="’"/><glyph d="M124 148q36 0 59 -26t23 -71q0 -104 -103 -212l-37 22q36 55 44 125q-30 5 -50 28t-20 53q0 34 24.5 57.5t59.5 23.5z" glyph-name="quotesinglbase" horiz-adv-x="242" unicode="‚"/><glyph d="M135 570q30 -5 50 -28t20 -53q0 -34 -24.5 -57.5t-59.5 -23.5q-36 0 -59 26t-23 71q0 104 103 212l37 -22q-36 -55 -44 -125zM337 570q30 -5 50 -28t20 -53q0 -34 -24.5 -57.5t-59.5 -23.5q-36 0 -59 26t-23 71q0 104 103 212l37 -22q-36 -55 -44 -125z" glyph-name="quotedblleft" horiz-adv-x="447" unicode="“"/><glyph d="M124 716q36 0 59 -26t23 -71q0 -104 -103 -212l-37 22q36 55 44 125q-30 5 -50 28t-20 53q0 34 24.5 57.5t59.5 23.5zM326 716q36 0 59 -26t23 -71q0 -104 -103 -212l-37 22q36 55 44 125q-30 5 -50 28t-20 53q0 34 24.5 57.5t59.5 23.5z" glyph-name="quotedblright" horiz-adv-x="447" unicode="”"/><glyph d="M124 148q36 0 59 -26t23 -71q0 -104 -103 -212l-37 22q36 55 44 125q-30 5 -50 28t-20 53q0 34 24.5 57.5t59.5 23.5zM334 148q36 0 59 -26t23 -71q0 -104 -103 -212l-37 22q36 55 44 125q-30 5 -50 28t-20 53q0 34 24.5 57.5t59.5 23.5z" glyph-name="quotedblbase" horiz-adv-x="455" unicode="„"/><glyph d="M414 573q15 0 15 -15v-79q0 -15 -15 -15h-112v-113q0 -15 -15 -15h-79q-15 0 -15 15v113h-113q-15 0 -15 15v79q0 15 15 15h113v113q0 15 15 15h79q15 0 15 -15v-113h112z" glyph-name="dagger" horiz-adv-x="494" unicode="†"/><glyph d="M414 573q15 0 15 -15v-79q0 -15 -15 -15h-112v-113q0 -15 -15 -15h-79q-15 0 -15 15v113h-113q-15 0 -15 15v79q0 15 15 15h113v113q0 15 15 15h79q15 0 15 -15v-113h112zM414 150q15 0 15 -15v-79q0 -15 -15 -15h-112v-113q0 -15 -15 -15h-79q-15 0 -15 15v113h-113 q-15 0 -15 15v79q0 15 15 15h113v113q0 15 15 15h79q15 0 15 -15v-113h112z" glyph-name="daggerdbl" horiz-adv-x="494" unicode="‡"/><glyph d="M173 167q-44 0 -76 32t-32 76t32 76t76 32t76 -32t32 -76t-32 -76t-76 -32z" glyph-name="bullet" horiz-adv-x="346" unicode="•"/><glyph d="M126 -13q-34 0 -57.5 23.5t-23.5 57.5q0 33 23.5 56.5t57.5 23.5q33 0 56.5 -23.5t23.5 -56.5q0 -34 -23.5 -57.5t-56.5 -23.5zM373 -13q-34 0 -57.5 23.5t-23.5 57.5q0 33 23.5 56.5t57.5 23.5q33 0 56.5 -23.5t23.5 -56.5q0 -34 -23.5 -57.5t-56.5 -23.5zM620 -13 q-34 0 -57.5 23.5t-23.5 57.5q0 33 23.5 56.5t57.5 23.5q33 0 56.5 -23.5t23.5 -56.5q0 -34 -23.5 -57.5t-56.5 -23.5z" glyph-name="ellipsis" horiz-adv-x="745" unicode="…"/><glyph d="M186 705q57 0 97 -39t40 -96t-40 -96.5t-97 -39.5t-96.5 39.5t-39.5 96.5t39.5 96t96.5 39zM537 695l83 -52l-429 -638l-83 52zM186 610q-16 0 -27.5 -11.5t-11.5 -28.5t11.5 -29t27.5 -12q17 0 29 12t12 29t-12 28.5t-29 11.5zM542 266q58 0 97 -39.5t39 -96.5t-39 -96 t-97 -39q-57 0 -97 39t-40 96t40 96.5t97 39.5zM895 266q57 0 96.5 -39.5t39.5 -96.5t-39.5 -96t-96.5 -39q-58 0 -97.5 39t-39.5 96t39.5 96.5t97.5 39.5zM542 171q-17 0 -28.5 -12t-11.5 -29t11.5 -28.5t28.5 -11.5q16 0 28 11.5t12 28.5t-12 29t-28 12zM895 171 q-17 0 -29 -12t-12 -29t12 -28.5t29 -11.5q16 0 27.5 11.5t11.5 28.5t-11.5 29t-27.5 12z" glyph-name="perthousand" horiz-adv-x="1081" unicode="‰"/><glyph d="M45 315q0 11 8 18l110 99q7 6 12.5 3t5.5 -13v-75q0 -11 -8 -18l-67 -57l67 -57q8 -7 8 -18v-75q0 -10 -5.5 -12.5t-12.5 3.5l-110 98q-8 7 -8 18v86z" glyph-name="guilsinglleft" horiz-adv-x="226" unicode="‹"/><glyph d="M181 366v-86q0 -11 -8 -18l-110 -98q-7 -6 -12.5 -3.5t-5.5 12.5v75q0 11 8 18l67 57l-67 57q-8 7 -8 18v75q0 10 5.5 13t12.5 -3l110 -99q8 -7 8 -18z" glyph-name="guilsinglright" horiz-adv-x="226" unicode="›"/><glyph d="M313 700l-430 -700h-48l436 700h42z" glyph-name="fraction" horiz-adv-x="148" unicode="⁄"/><glyph d="M616 194l77 -83q10 -11 0 -21q-98 -103 -247 -103q-114 0 -205.5 62.5t-131.5 164.5h-54q-15 0 -15 15v79q0 15 15 15h30q-1 8 -1 24v17h-29q-15 0 -15 15v79q0 15 15 15h51q39 105 131.5 170t208.5 65q148 0 247 -102q9 -10 0 -21l-77 -84q-9 -11 -21 -1q-66 56 -150 56 q-103 0 -162 -83h86q15 0 15 -15v-79q0 -15 -15 -15h-124q-1 -6 -1 -17q0 -16 1 -24h124q15 0 15 -15v-79q0 -15 -15 -15h-80q59 -75 156 -75q84 0 150 56q12 10 21 -1z" glyph-name="Euro" horiz-adv-x="732" unicode="€"/><glyph d="M583 364h-94q-29 -25 -65 -41h159q17 0 15 -15v-79q2 -15 -15 -15h-346q-1 -3 -1 -11q0 -32 26 -50.5t64 -18.5q76 0 154 64q13 11 22 -2l69 -77q9 -10 1 -21q-34 -46 -100.5 -78t-141.5 -32q-98 0 -172 56.5t-74 155.5v14h-30q-15 0 -15 15v79q0 15 15 15h69 q20 25 45 41h-114q-15 0 -15 15v79q0 15 15 15h337q10 15 10 30q0 25 -20 42t-56 17q-56 0 -129 -51q-12 -9 -21 4l-65 79q-9 12 2 21q95 93 218 93q91 0 157 -55t66 -147q0 -13 -2 -33h32q17 0 15 -15v-79q2 -15 -15 -15z" glyph-name="uni20B4" horiz-adv-x="637" unicode="₴"/><glyph d="M234 700q5 0 5 -5v-32q0 -5 -5 -5h-57v-133q0 -5 -5 -5h-40q-5 0 -5 5v133h-57q-5 0 -5 5v32q0 5 5 5h164zM510 700q5 0 5 -5v-170q0 -5 -5 -5h-38q-5 0 -5 5v91l-54 -93q-1 -3 -6 -3h-26q-5 0 -6 3l-53 93v-91q0 -5 -5 -5h-38q-5 0 -5 5v170q0 5 5 5h41q4 0 6 -3 l68 -114l68 114q2 3 6 3h42z" glyph-name="trademark" horiz-adv-x="580" unicode="™"/><glyph d="M104 701v-261h-37v225h-27v36h64zM525 700l-430 -700h-48l436 700h42zM451 263q36 0 57.5 -20t21.5 -47q0 -34 -30 -53q43 -21 43 -66q0 -34 -27 -56.5t-65 -22.5q-37 0 -64 22.5t-27 56.5q0 45 43 66q-30 19 -30 53q0 26 21.5 46.5t56.5 20.5zM451 232 q-20 0 -30.5 -10.5t-10.5 -25.5t12.5 -27t28.5 -12q17 0 29 11.5t12 27.5q0 36 -41 36zM451 126q-22 0 -38 -14t-16 -35q0 -20 16 -34t38 -14q24 0 39 13t15 35t-15 35.5t-39 13.5z" glyph-name="oneeighth" horiz-adv-x="583" unicode="⅛"/><glyph d="M131 703q32 0 56 -20.5t24 -47.5q0 -32 -30 -53q42 -18 42 -66q0 -34 -27.5 -57t-64.5 -23q-41 0 -67.5 27t-23.5 64h38q-5 -23 11.5 -41t41.5 -18q22 0 38 13.5t16 34.5q0 28 -20 39t-54 5v32q63 3 63 43q0 15 -12.5 26t-30.5 11q-22 0 -35 -15.5t-11 -41.5h-38 q-4 37 21 62.5t63 25.5zM548 700l-430 -700h-48l436 700h42zM472 263q36 0 57.5 -20t21.5 -47q0 -34 -30 -53q43 -21 43 -66q0 -34 -27 -56.5t-65 -22.5q-37 0 -64 22.5t-27 56.5q0 45 43 66q-30 19 -30 53q0 26 21.5 46.5t56.5 20.5zM472 232q-20 0 -30.5 -10.5 t-10.5 -25.5t12.5 -27t28.5 -12q18 0 29.5 11.5t11.5 27.5q0 36 -41 36zM472 126q-22 0 -38 -14t-16 -35q0 -20 16 -34t38 -14q24 0 39 13t15 35t-15 35.5t-39 13.5z" glyph-name="threeeighths" horiz-adv-x="604" unicode="⅜"/><glyph d="M201 701v-32h-104l-8 -58q22 10 45 10q35 0 63 -26.5t28 -65.5t-28 -66t-67 -27q-33 0 -58.5 18.5t-31.5 43.5l33 19q2 -20 17.5 -34.5t39.5 -14.5q23 0 40 17.5t17 43.5q0 25 -16.5 42.5t-36.5 17.5q-35 0 -57 -29l-32 8l18 133h138zM548 700l-430 -700h-48l436 700h42z M474 263q36 0 57.5 -20t21.5 -47q0 -34 -30 -53q43 -21 43 -66q0 -34 -27 -56.5t-65 -22.5q-37 0 -64 22.5t-27 56.5q0 45 43 66q-30 19 -30 53q0 26 21.5 46.5t56.5 20.5zM474 232q-20 0 -30.5 -10.5t-10.5 -25.5t12.5 -27t28.5 -12q18 0 29.5 11.5t11.5 27.5q0 36 -41 36z M474 126q-22 0 -38 -14t-16 -35q0 -20 16 -34t38 -14q24 0 39 13t15 35t-15 35.5t-39 13.5z" glyph-name="fiveeighths" horiz-adv-x="606" unicode="⅝"/><glyph d="M213 701l-102 -261h-39l89 229h-121v32h173zM526 700l-430 -700h-48l436 700h42zM452 263q36 0 57.5 -20t21.5 -47q0 -34 -30 -53q43 -21 43 -66q0 -34 -27 -56.5t-65 -22.5q-37 0 -64 22.5t-27 56.5q0 45 43 66q-30 19 -30 53q0 26 21.5 46.5t56.5 20.5zM452 232 q-20 0 -30.5 -10.5t-10.5 -25.5t12.5 -27t28.5 -12q18 0 29.5 11.5t11.5 27.5q0 36 -41 36zM452 126q-22 0 -38 -14t-16 -35q0 -20 16 -34t38 -14q24 0 39 13t15 35t-15 35.5t-39 13.5z" glyph-name="seveneighths" horiz-adv-x="584" unicode="⅞"/><glyph d="M440 443q90 -109 90 -212q0 -105 -72.5 -174.5t-178.5 -69.5q-107 0 -179.5 69.5t-72.5 174.5q0 94 60.5 159t153.5 81l-128 152q-9 10 3 21l83 71q11 9 21 -3zM279 126q44 0 75 30.5t31 74.5q0 47 -30.5 78.5t-75.5 31.5t-76 -31.5t-31 -78.5q0 -44 30.5 -74.5 t76.5 -30.5z" glyph-name="partialdiff" horiz-adv-x="570" unicode="∂"/><glyph d="M60 785q0 15 15 15h603q15 0 15 -15v-960q0 -15 -15 -15h-107q-15 0 -15 15v838h-359v-838q0 -15 -15 -15h-107q-15 0 -15 15v960z" glyph-name="product" horiz-adv-x="753" unicode="∏"/><glyph d="M641 800q15 0 15 -15v-108q0 -15 -15 -15h-405l268 -346q8 -11 0 -22l-268 -346h405q15 0 15 -15v-108q0 -15 -15 -15h-566q-15 0 -15 15v113q0 9 6 18l269 349l-269 349q-6 9 -6 18v113q0 15 15 15h566z" glyph-name="summation" horiz-adv-x="716" unicode="∑"/><glyph d="M434 340q15 0 15 -15v-79q0 -15 -15 -15h-354q-15 0 -15 15v79q0 15 15 15h354z" glyph-name="minus" horiz-adv-x="514" unicode="−"/><glyph d="M721 800q18 0 13 -17l-264 -960q-3 -13 -16 -13h-126q-14 0 -17 12l-132 422h-104q-15 0 -15 15v108q0 15 15 15h182q14 0 17 -13l115 -396l222 814q3 13 16 13h94z" glyph-name="radical" horiz-adv-x="795" unicode="√"/><glyph d="M607 429q76 0 129.5 -46.5t53.5 -120.5q0 -76 -53.5 -123t-129.5 -47q-101 0 -190 91q-89 -91 -189 -91q-77 0 -130.5 47t-53.5 123q0 74 54 120.5t130 46.5q99 0 189 -90q90 90 190 90zM234 190q36 0 62 15t57 56q-31 40 -57.5 55.5t-61.5 15.5q-34 0 -55.5 -21.5 t-21.5 -49.5q0 -29 21.5 -50t55.5 -21zM600 190q34 0 55.5 21t21.5 50q0 28 -21.5 49.5t-55.5 21.5q-35 0 -61.5 -15.5t-58.5 -55.5q31 -41 57.5 -56t62.5 -15z" glyph-name="infinity" horiz-adv-x="834" unicode="∞"/><glyph d="M429 783q10 -6 10 -18v-106q0 -9 -5.5 -12t-12.5 1q-27 17 -58 17q-32 0 -41.5 -14t-9.5 -44v-624q0 -86 -48.5 -129.5t-132.5 -43.5q-56 0 -87 17q-10 6 -10 18v106q0 9 5 12t13 -1q27 -17 59 -17t41.5 14t9.5 44v624q0 86 48.5 129.5t131.5 43.5q57 0 87 -17z" glyph-name="integral" horiz-adv-x="429" unicode="∫"/><glyph d="M182 438q38 0 72 -19.5t62 -39t53 -19.5q18 0 31.5 9t18.5 21q6 9 12 9h37q11 0 11 -11q2 -59 -33 -89.5t-89 -30.5q-38 0 -71.5 19.5t-61.5 39t-52 19.5q-18 0 -32.5 -9t-19.5 -21q-3 -9 -12 -9h-37q-13 0 -11 14q7 58 39.5 87.5t82.5 29.5zM182 278q38 0 72 -19.5 t62 -39t53 -19.5q18 0 31.5 9t18.5 21q6 9 12 9h37q11 0 11 -11q2 -59 -33 -89.5t-89 -30.5q-38 0 -71.5 19.5t-61.5 39t-52 19.5q-18 0 -32.5 -9t-19.5 -21q-3 -9 -12 -9h-37q-13 0 -11 14q7 58 39.5 87.5t82.5 29.5z" glyph-name="approxequal" horiz-adv-x="539" unicode="≈"/><glyph d="M434 315h-100l-23 -59h123q15 0 15 -15v-79q0 -15 -15 -15h-165l-52 -135q-5 -12 -18 -12h-94q-18 0 -12 17l50 130h-63q-15 0 -15 15v79q0 15 15 15h106l22 59h-128q-15 0 -15 15v79q0 15 15 15h171l48 125q5 12 18 12h94q18 0 12 -17l-46 -120h57q15 0 15 -15v-79 q0 -15 -15 -15z" glyph-name="notequal" horiz-adv-x="514" unicode="≠"/><glyph d="M410 593q8 4 12.5 1t4.5 -11v-87q0 -10 -10 -15l-231 -98l231 -98q10 -5 10 -16v-87q0 -17 -17 -10l-340 164q-10 4 -10 14v65q0 9 10 15zM429 117q15 0 15 -15v-79q0 -15 -15 -15h-354q-15 0 -15 15v79q0 15 15 15h354z" glyph-name="lessequal" horiz-adv-x="490" unicode="≤"/><glyph d="M98 593l340 -163q10 -6 10 -15v-65q0 -10 -10 -14l-340 -164q-17 -7 -17 10v87q0 11 10 16l231 98l-231 98q-10 5 -10 15v87q0 8 4.5 11t12.5 -1zM79 117h354q15 0 15 -15v-79q0 -15 -15 -15h-354q-15 0 -15 15v79q0 15 15 15z" glyph-name="greaterequal" horiz-adv-x="515" unicode="≥"/><glyph d="M393 700q13 0 17 -11l146 -329q4 -10 0 -20l-146 -329q-4 -11 -17 -11h-166q-13 0 -17 11l-146 329q-4 10 0 20l146 329q4 11 17 11h166zM310 90l115 260l-115 261l-115 -261z" glyph-name="lozenge" horiz-adv-x="620" unicode="◊"/><glyph d="M785 584q10 -10 0 -21l-474 -474q-11 -10 -21 0l-252 252q-10 11 0 21l76 76q10 10 21 0l153 -152l387 387q11 11 21 0z" glyph-name="uni2713" horiz-adv-x="824" unicode="✓"/><glyph d="M129 556q-30 0 -52 21.5t-22 53.5q0 31 22 52.5t52 21.5t52 -21.5t22 -52.5q0 -32 -22 -53.5t-52 -21.5zM54 475q0 15 15 15h120q15 0 15 -15v-460q0 -15 -15 -15h-120q-15 0 -15 15v460z" glyph-name="i.aalt" horiz-adv-x="258"/><glyph d="M375 719q10 -6 10 -18v-106q0 -9 -5.5 -12t-12.5 2q-27 16 -59 16t-41.5 -14t-9.5 -44v-53h104q15 0 15 -15v-91q0 -15 -15 -15h-104v-354q0 -15 -15 -15h-120q-15 0 -15 15v354h-58q-15 0 -15 15v91q0 15 15 15h58v73q0 86 48.5 129.5t131.5 43.5q58 0 88 -17z" glyph-name="f.aalt" horiz-adv-x="425"/><glyph d="M512 117q13 -7 13 -17v-86q0 -16 -13 -17q-51 -8 -94.5 4.5t-62.5 50.5q-58 -65 -149 -65q-80 0 -123.5 37.5t-43.5 108.5q0 69 42 102t135 49l61 11q57 11 66 25q-6 56 -65 56t-72 -48q-2 -9 -14 -9h-112q-7 0 -12 4t-4 11q9 167 217 167q101 0 157 -49.5t56 -149.5 v-144q0 -32 18 -41zM188 152q0 -39 49 -39q62 0 107 44v75q-9 -17 -68 -28l-46 -9q-42 -9 -42 -43z" glyph-name="a.salt" horiz-adv-x="559"/><glyph d="M233 543q-20 0 -12 17l60 126q5 12 17 12h108q20 0 12 -17l-60 -126q-5 -12 -17 -12h-108zM512 117q13 -7 13 -17v-86q0 -16 -13 -17q-51 -8 -94.5 4.5t-62.5 50.5q-58 -65 -149 -65q-80 0 -123.5 37.5t-43.5 108.5q0 69 42 102t135 49l61 11q57 11 66 25q-6 56 -65 56 t-72 -48q-2 -9 -14 -9h-112q-7 0 -12 4t-4 11q9 167 217 167q101 0 157 -49.5t56 -149.5v-144q0 -32 18 -41zM188 152q0 -39 49 -39q62 0 107 44v75q-9 -17 -68 -28l-46 -9q-42 -9 -42 -43z" glyph-name="aacute.aalt" horiz-adv-x="559"/><glyph d="M283 554q-70 0 -112.5 37t-48.5 93q-2 15 14 15h60q13 0 16 -14q5 -19 23.5 -33.5t47.5 -14.5q56 0 71 48q3 14 16 14h60q16 0 14 -15q-5 -56 -48.5 -93t-112.5 -37zM512 117q13 -7 13 -17v-86q0 -16 -13 -17q-51 -8 -94.5 4.5t-62.5 50.5q-58 -65 -149 -65 q-80 0 -123.5 37.5t-43.5 108.5q0 69 42 102t135 49l61 11q57 11 66 25q-6 56 -65 56t-72 -48q-2 -9 -14 -9h-112q-7 0 -12 4t-4 11q9 167 217 167q101 0 157 -49.5t56 -149.5v-144q0 -32 18 -41zM188 152q0 -39 49 -39q62 0 107 44v75q-9 -17 -68 -28l-46 -9 q-42 -9 -42 -43z" glyph-name="abreve.aalt" horiz-adv-x="559"/><glyph d="M222 570l-98 110q-6 7 -3.5 12.5t12.5 5.5h75q11 0 18 -8l57 -67l57 67q7 8 18 8h75q10 0 13 -5.5t-3 -12.5l-99 -110q-7 -8 -18 -8h-86q-11 0 -18 8zM512 117q13 -7 13 -17v-86q0 -16 -13 -17q-51 -8 -94.5 4.5t-62.5 50.5q-58 -65 -149 -65q-80 0 -123.5 37.5 t-43.5 108.5q0 69 42 102t135 49l61 11q57 11 66 25q-6 56 -65 56t-72 -48q-2 -9 -14 -9h-112q-7 0 -12 4t-4 11q9 167 217 167q101 0 157 -49.5t56 -149.5v-144q0 -32 18 -41zM188 152q0 -39 49 -39q62 0 107 44v75q-9 -17 -68 -28l-46 -9q-42 -9 -42 -43z" glyph-name="uni01CE.aalt" horiz-adv-x="559"/><glyph d="M133 562q-10 0 -12.5 5.5t3.5 12.5l98 110q7 8 18 8h86q11 0 18 -8l99 -110q6 -7 3 -12.5t-13 -5.5h-75q-11 0 -18 8l-57 67l-57 -67q-7 -8 -18 -8h-75zM512 117q13 -7 13 -17v-86q0 -16 -13 -17q-51 -8 -94.5 4.5t-62.5 50.5q-58 -65 -149 -65q-80 0 -123.5 37.5 t-43.5 108.5q0 69 42 102t135 49l61 11q57 11 66 25q-6 56 -65 56t-72 -48q-2 -9 -14 -9h-112q-7 0 -12 4t-4 11q9 167 217 167q101 0 157 -49.5t56 -149.5v-144q0 -32 18 -41zM188 152q0 -39 49 -39q62 0 107 44v75q-9 -17 -68 -28l-46 -9q-42 -9 -42 -43z" glyph-name="acircumflex.aalt" horiz-adv-x="559"/><glyph d="M169 556q-30 0 -52 21.5t-22 53.5q0 31 22 52.5t52 21.5t52 -21.5t22 -52.5q0 -32 -22 -53.5t-52 -21.5zM396 556q-30 0 -52 21.5t-22 53.5q0 31 22 52.5t52 21.5t52 -21.5t22 -52.5q0 -32 -22 -53.5t-52 -21.5zM512 117q13 -7 13 -17v-86q0 -16 -13 -17 q-51 -8 -94.5 4.5t-62.5 50.5q-58 -65 -149 -65q-80 0 -123.5 37.5t-43.5 108.5q0 69 42 102t135 49l61 11q57 11 66 25q-6 56 -65 56t-72 -48q-2 -9 -14 -9h-112q-7 0 -12 4t-4 11q9 167 217 167q101 0 157 -49.5t56 -149.5v-144q0 -32 18 -41zM188 152q0 -39 49 -39 q62 0 107 44v75q-9 -17 -68 -28l-46 -9q-42 -9 -42 -43z" glyph-name="adieresis.aalt" horiz-adv-x="559"/><glyph d="M199 555l-60 126q-8 17 12 17h108q12 0 17 -12l60 -126q8 -17 -12 -17h-108q-12 0 -17 12zM512 117q13 -7 13 -17v-86q0 -16 -13 -17q-51 -8 -94.5 4.5t-62.5 50.5q-58 -65 -149 -65q-80 0 -123.5 37.5t-43.5 108.5q0 69 42 102t135 49l61 11q57 11 66 25q-6 56 -65 56 t-72 -48q-2 -9 -14 -9h-112q-7 0 -12 4t-4 11q9 167 217 167q101 0 157 -49.5t56 -149.5v-144q0 -32 18 -41zM188 152q0 -39 49 -39q62 0 107 44v75q-9 -17 -68 -28l-46 -9q-42 -9 -42 -43z" glyph-name="agrave.aalt" horiz-adv-x="559"/><glyph d="M128 582q-15 0 -15 15v86q0 15 15 15h310q15 0 15 -15v-86q0 -15 -15 -15h-310zM512 117q13 -7 13 -17v-86q0 -16 -13 -17q-51 -8 -94.5 4.5t-62.5 50.5q-58 -65 -149 -65q-80 0 -123.5 37.5t-43.5 108.5q0 69 42 102t135 49l61 11q57 11 66 25q-6 56 -65 56t-72 -48 q-2 -9 -14 -9h-112q-7 0 -12 4t-4 11q9 167 217 167q101 0 157 -49.5t56 -149.5v-144q0 -32 18 -41zM188 152q0 -39 49 -39q62 0 107 44v75q-9 -17 -68 -28l-46 -9q-42 -9 -42 -43z" glyph-name="amacron.aalt" horiz-adv-x="559"/><glyph d="M512 117q13 -7 13 -17v-86q0 -16 -13 -17l-31 -3q-28 -4 -43.5 -18.5t-15.5 -37.5q0 -18 14.5 -29.5t46.5 -5.5v-91q-23 -10 -53.5 -10.5t-59.5 8.5t-49 34.5t-20 63.5q0 78 79 114q-14 11 -25 30q-58 -65 -149 -65q-80 0 -123.5 37.5t-43.5 108.5q0 69 42 102t135 49 l61 11q57 11 66 25q-6 56 -65 56t-72 -48q-2 -9 -14 -9h-112q-7 0 -12 4t-4 11q9 167 217 167q101 0 157 -49.5t56 -149.5v-144q0 -32 18 -41zM188 152q0 -39 49 -39q62 0 107 44v75q-9 -17 -68 -28l-46 -9q-42 -9 -42 -43z" glyph-name="aogonek.aalt" horiz-adv-x="554"/><glyph d="M284 534q-45 0 -77 31t-32 74q0 44 31.5 75t77.5 31q42 0 73.5 -31.5t31.5 -74.5t-31.5 -74t-73.5 -31zM282 663q-9 0 -16 -6.5t-7 -16.5q0 -9 7 -16t16 -7q10 0 17 7t7 16q0 10 -7 16.5t-17 6.5zM512 117q13 -7 13 -17v-86q0 -16 -13 -17q-51 -8 -94.5 4.5t-62.5 50.5 q-58 -65 -149 -65q-80 0 -123.5 37.5t-43.5 108.5q0 69 42 102t135 49l61 11q57 11 66 25q-6 56 -65 56t-72 -48q-2 -9 -14 -9h-112q-7 0 -12 4t-4 11q9 167 217 167q101 0 157 -49.5t56 -149.5v-144q0 -32 18 -41zM188 152q0 -39 49 -39q62 0 107 44v75q-9 -17 -68 -28 l-46 -9q-42 -9 -42 -43z" glyph-name="aring.aalt" horiz-adv-x="559"/><glyph d="M102 601q-10 0 -10 14q4 52 34 79t77 27q45 0 95 -35.5t74 -35.5q35 0 47 27q3 8 11 8h34q10 0 10 -10q-3 -54 -33.5 -82t-79.5 -28q-27 0 -52 11t-41 24.5t-36.5 24.5t-38.5 11q-34 0 -46 -27q-3 -8 -11 -8h-34zM512 117q13 -7 13 -17v-86q0 -16 -13 -17 q-51 -8 -94.5 4.5t-62.5 50.5q-58 -65 -149 -65q-80 0 -123.5 37.5t-43.5 108.5q0 69 42 102t135 49l61 11q57 11 66 25q-6 56 -65 56t-72 -48q-2 -9 -14 -9h-112q-7 0 -12 4t-4 11q9 167 217 167q101 0 157 -49.5t56 -149.5v-144q0 -32 18 -41zM188 152q0 -39 49 -39 q62 0 107 44v75q-9 -17 -68 -28l-46 -9q-42 -9 -42 -43z" glyph-name="atilde.aalt" horiz-adv-x="559"/><glyph d="M381 70q79 0 115.5 -36t36.5 -92q0 -139 -260 -139q-234 0 -234 109q0 50 57 70q-44 39 -44 89q0 65 60 96q-51 54 -51 134q0 89 62 144.5t163 55.5q69 0 122 -28l96 17q6 1 10.5 -3.5t4.5 -11.5v-71q0 -15 -15 -15h-13q19 -41 19 -88q0 -89 -62 -144.5t-162 -55.5 q-60 0 -106 20q-24 0 -24 -20q0 -31 105 -31h120zM286 380q-34 0 -57.5 -22.5t-23.5 -56.5t23.5 -56.5t57.5 -22.5q33 0 56.5 22.5t23.5 56.5t-23.5 56.5t-56.5 22.5zM273 -105q126 0 126 29q0 20 -46 20h-152h-1q-46 0 -46 -20q0 -29 119 -29z" glyph-name="g.aalt" horiz-adv-x="572"/><glyph d="M294 554q-70 0 -112.5 37t-48.5 93q-1 15 14 15h60q13 0 16 -14q5 -19 23.5 -33.5t47.5 -14.5q56 0 71 48q3 14 16 14h60q15 0 14 -15q-5 -56 -48.5 -93t-112.5 -37zM381 70q79 0 115.5 -36t36.5 -92q0 -139 -260 -139q-234 0 -234 109q0 50 57 70q-44 39 -44 89 q0 65 60 96q-51 54 -51 134q0 89 62 144.5t163 55.5q69 0 122 -28l96 17q6 1 10.5 -3.5t4.5 -11.5v-71q0 -15 -15 -15h-13q19 -41 19 -88q0 -89 -62 -144.5t-162 -55.5q-60 0 -106 20q-24 0 -24 -20q0 -31 105 -31h120zM286 380q-34 0 -57.5 -22.5t-23.5 -56.5t23.5 -56.5 t57.5 -22.5q33 0 56.5 22.5t23.5 56.5t-23.5 56.5t-56.5 22.5zM273 -105q126 0 126 29q0 20 -46 20h-152h-1q-46 0 -46 -20q0 -29 119 -29z" glyph-name="gbreve.aalt" horiz-adv-x="572"/><glyph d="M288 555q-36 0 -59 26t-23 71q0 104 103 212l37 -22q-36 -55 -44 -125q30 -5 50 -28t20 -53q0 -34 -24.5 -57.5t-59.5 -23.5zM381 70q79 0 115.5 -36t36.5 -92q0 -139 -260 -139q-234 0 -234 109q0 50 57 70q-44 39 -44 89q0 65 60 96q-51 54 -51 134q0 89 62 144.5 t163 55.5q69 0 122 -28l96 17q6 1 10.5 -3.5t4.5 -11.5v-71q0 -15 -15 -15h-13q19 -41 19 -88q0 -89 -62 -144.5t-162 -55.5q-60 0 -106 20q-24 0 -24 -20q0 -31 105 -31h120zM286 380q-34 0 -57.5 -22.5t-23.5 -56.5t23.5 -56.5t57.5 -22.5q33 0 56.5 22.5t23.5 56.5 t-23.5 56.5t-56.5 22.5zM273 -105q126 0 126 29q0 20 -46 20h-152h-1q-46 0 -46 -20q0 -29 119 -29z" glyph-name="gcommaaccent.aalt" horiz-adv-x="587"/><glyph d="M294 556q-30 0 -52 21.5t-22 53.5q0 31 22 52.5t52 21.5t52 -21.5t22 -52.5q0 -32 -22 -53.5t-52 -21.5zM381 70q79 0 115.5 -36t36.5 -92q0 -139 -260 -139q-234 0 -234 109q0 50 57 70q-44 39 -44 89q0 65 60 96q-51 54 -51 134q0 89 62 144.5t163 55.5q69 0 122 -28 l96 17q6 1 10.5 -3.5t4.5 -11.5v-71q0 -15 -15 -15h-13q19 -41 19 -88q0 -89 -62 -144.5t-162 -55.5q-60 0 -106 20q-24 0 -24 -20q0 -31 105 -31h120zM286 380q-34 0 -57.5 -22.5t-23.5 -56.5t23.5 -56.5t57.5 -22.5q33 0 56.5 22.5t23.5 56.5t-23.5 56.5t-56.5 22.5z M273 -105q126 0 126 29q0 20 -46 20h-152h-1q-46 0 -46 -20q0 -29 119 -29z" glyph-name="gdotaccent.aalt" horiz-adv-x="572"/><glyph d="M336 132q18 3 18 -14v-94q0 -30 -92 -30q-64 0 -106.5 36t-42.5 114v225h-64q-15 0 -15 15v91q0 15 15 15h64v115q0 15 15 15h120q15 0 15 -15v-115h75q15 0 15 -15v-91q0 -15 -15 -15h-75v-196q0 -43 39 -43q22 0 34 2z" glyph-name="t.aalt" horiz-adv-x="392"/><glyph d="M370 708q118 0 202.5 -94.5t84.5 -266.5t-84 -266t-203 -94q-118 0 -202.5 94t-84.5 266t84.5 266.5t202.5 94.5zM370 569q-70 0 -106.5 -64.5t-36.5 -157.5t36.5 -157t106.5 -64t106 64t36 157t-36 157.5t-106 64.5z" glyph-name="zero.tnum" horiz-adv-x="730"/><glyph d="M517 700q15 0 15 -15v-670q0 -15 -15 -15h-120q-15 0 -15 15v564h-117q-16 0 -16 15v91q0 15 16 15h252z" glyph-name="one.tnum" horiz-adv-x="730"/><glyph d="M597 121q15 0 15 -15v-91q0 -15 -15 -15h-416q-15 0 -15 15v106l97 104q30 32 70 72t58.5 59.5t38.5 43.5t27 42.5t7 38.5q0 41 -28 66.5t-69 25.5q-34 0 -66.5 -18.5t-54.5 -46.5q-10 -14 -22 -2l-72 70q-9 9 -1 21q32 48 90 79.5t131 31.5q101 0 168 -63t67 -158 q0 -32 -9 -59.5t-32.5 -59.5t-42.5 -53.5t-62.5 -66.5t-68.5 -73l-47 -54h252z" glyph-name="two.tnum" horiz-adv-x="730"/><glyph d="M498 368q106 -57 106 -165q0 -93 -66.5 -154.5t-178.5 -61.5q-70 0 -130.5 27t-93.5 76q-8 12 1 21l73 69q12 12 22 0q47 -56 118 -56q51 0 79 26t28 64q0 33 -28 59t-95 28q-15 0 -15 15v83q0 15 17 15q113 3 113 83q0 33 -27.5 53.5t-60.5 20.5q-68 0 -108 -54 q-9 -13 -22 0l-73 69q-10 10 -1 21q34 46 91 73.5t120 27.5q88 0 150.5 -55t62.5 -140t-82 -145z" glyph-name="three.tnum" horiz-adv-x="730"/><glyph d="M610 252q15 0 15 -15v-92q0 -15 -15 -15h-60v-115q0 -15 -15 -15h-120q-15 0 -15 15v115h-279q-15 0 -15 15v97q0 9 5 19l283 429q6 10 18 10h123q15 0 15 -15v-433h60zM400 252v227l-148 -227h148z" glyph-name="four.tnum" horiz-adv-x="730"/><glyph d="M357 475q99 0 165.5 -69.5t66.5 -166.5q0 -115 -71 -183t-184 -68q-71 0 -125.5 32t-79.5 77q-8 11 4 18l87 60q12 9 22 -1q35 -49 92 -49q48 0 78.5 34t30.5 80q0 43 -31 76t-77 33q-49 0 -81 -34q-9 -10 -20 -6l-94 29q-13 4 -10 18l88 332q3 13 16 13h302q15 0 15 -15 v-91q0 -15 -15 -15h-213l-30 -115q1 0 9 2.5t23.5 5.5t31.5 3z" glyph-name="five.tnum" horiz-adv-x="730"/><glyph d="M409 471q93 -16 153.5 -81t60.5 -159q0 -105 -72.5 -174.5t-179.5 -69.5q-106 0 -178.5 69.5t-72.5 174.5q0 103 90 212l220 269q10 12 21 3l83 -71q12 -11 3 -21zM371 126q46 0 76.5 30.5t30.5 74.5q0 47 -31 78.5t-76 31.5t-75.5 -31.5t-30.5 -78.5q0 -44 31 -74.5 t75 -30.5z" glyph-name="six.tnum" horiz-adv-x="730"/><glyph d="M585 700q15 0 12 -15l-262 -670q-5 -15 -17 -15h-117q-7 0 -11.5 4.5t-1.5 10.5l223 564h-263q-15 0 -15 15v91q0 15 15 15h437z" glyph-name="seven.tnum" horiz-adv-x="730"/><glyph d="M370 -13q-98 0 -173.5 61t-75.5 165q0 63 31 111.5t84 73.5q-69 50 -69 133q0 73 56 125t147 52t147 -52t56 -125q0 -82 -68 -133q52 -25 83 -73.5t31 -111.5q0 -104 -75.5 -165t-173.5 -61zM370 452q30 0 50 20t21 48q0 30 -20.5 50t-50.5 20t-50.5 -20t-19.5 -50 q0 -28 20 -48t50 -20zM370 124q43 0 71.5 25t28.5 69t-29.5 70t-70.5 26q-40 0 -69.5 -26t-29.5 -70t28 -69t71 -25z" glyph-name="eight.tnum" horiz-adv-x="730"/><glyph d="M384 708q106 0 178.5 -69.5t72.5 -174.5q0 -103 -90 -212l-220 -269q-10 -12 -21 -3l-83 71q-12 11 -3 21l128 152q-93 16 -153.5 81t-60.5 159q0 105 72.5 174.5t179.5 69.5zM384 354q45 0 75.5 31.5t30.5 78.5q0 44 -31 74.5t-75 30.5q-46 0 -76.5 -30.5t-30.5 -74.5 q0 -47 31 -78.5t76 -31.5z" glyph-name="nine.tnum" horiz-adv-x="730"/><glyph d="M145 263q47 0 76 -35t29 -91v-13q0 -56 -29 -91t-76 -35q-45 0 -75 35t-30 91v13q0 56 30 91t75 35zM145 232q-29 0 -48.5 -25.5t-19.5 -69.5v-13q0 -44 19.5 -69.5t48.5 -25.5q31 0 49.5 25t18.5 70v13q0 45 -18.5 70t-49.5 25z" glyph-name="zero.dnom" horiz-adv-x="290"/><glyph d="M104 261v-261h-37v225h-27v36h64z" glyph-name="one.dnom" horiz-adv-x="144"/><glyph d="M124 264q34 0 59 -22.5t25 -52.5q0 -26 -14.5 -47t-53.5 -61l-47 -49h118v-32h-168v32l68 69q28 29 36.5 38.5t15.5 22.5t7 27q0 18 -14 31t-32 13q-19 0 -33 -13t-14 -37v-14h-37v14q0 35 24.5 58t59.5 23z" glyph-name="two.dnom" horiz-adv-x="251"/><glyph d="M131 263q32 0 56 -20.5t24 -47.5q0 -32 -30 -53q42 -18 42 -66q0 -34 -27.5 -57t-64.5 -23q-41 0 -67.5 27t-23.5 64h38q-5 -23 11.5 -41t41.5 -18q22 0 38 13.5t16 34.5q0 28 -20 39t-54 5v32q63 3 63 43q0 15 -12.5 26t-30.5 11q-22 0 -35 -15.5t-11 -41.5h-38 q-4 37 21 62.5t63 25.5z" glyph-name="three.dnom" horiz-adv-x="263"/><glyph d="M209 261v-154h27v-31h-27v-76h-37v76h-132l132 185h37zM172 207l-70 -100h70v100z" glyph-name="four.dnom" horiz-adv-x="276"/><glyph d="M201 261v-32h-104l-8 -58q22 10 45 10q35 0 63 -26.5t28 -65.5t-28 -66t-67 -27q-33 0 -58.5 18.5t-31.5 43.5l33 19q2 -20 17.5 -34.5t39.5 -14.5q23 0 40 17.5t17 43.5q0 25 -16.5 42.5t-36.5 17.5q-35 0 -57 -29l-32 8l18 133h138z" glyph-name="five.dnom" horiz-adv-x="265"/><glyph d="M189 261l-68 -96h6q34 0 60 -25t26 -59q0 -35 -26 -60t-60 -25t-60.5 25t-26.5 60q0 16 5.5 31.5t10 23t18 25t16.5 21.5l57 79h42zM127 133q-22 0 -36 -14t-14 -38q0 -23 15.5 -38t34.5 -15q18 0 33.5 15t15.5 38t-15 37.5t-34 14.5z" glyph-name="six.dnom" horiz-adv-x="253"/><glyph d="M213 261l-102 -261h-39l89 229h-121v32h173z" glyph-name="seven.dnom" horiz-adv-x="253"/><glyph d="M131 263q36 0 57.5 -20t21.5 -47q0 -34 -30 -53q43 -21 43 -66q0 -34 -27 -56.5t-65 -22.5q-37 0 -64 22.5t-27 56.5q0 45 43 66q-30 19 -30 53q0 26 21.5 46.5t56.5 20.5zM131 232q-20 0 -30.5 -10.5t-10.5 -25.5t12.5 -27t28.5 -12q17 0 29 11.5t12 27.5q0 36 -41 36z M131 126q-22 0 -38 -14t-16 -35q0 -20 16 -34t38 -14q24 0 39 13t15 35t-15 35.5t-39 13.5z" glyph-name="eight.dnom" horiz-adv-x="263"/><glyph d="M127 264q34 0 60.5 -24.5t26.5 -59.5q0 -13 -2.5 -24t-9 -22.5t-10.5 -18t-14.5 -19.5t-14.5 -18l-56 -78h-43l68 95h-5q-35 0 -61 25.5t-26 59.5q0 35 26.5 59.5t60.5 24.5zM127 232q-19 0 -34.5 -15t-15.5 -37q0 -23 15.5 -38t34.5 -15q22 0 35.5 14.5t13.5 38.5 q0 22 -15.5 37t-33.5 15z" glyph-name="nine.dnom" horiz-adv-x="254"/><glyph d="M145 703q47 0 76 -35t29 -91v-13q0 -56 -29 -91t-76 -35q-45 0 -75 35t-30 91v13q0 56 30 91t75 35zM145 672q-29 0 -48.5 -25.5t-19.5 -69.5v-13q0 -44 19.5 -69.5t48.5 -25.5q31 0 49.5 25t18.5 70v13q0 45 -18.5 70t-49.5 25z" glyph-name="zero.numr" horiz-adv-x="290"/><glyph d="M104 701v-261h-37v225h-27v36h64z" glyph-name="one.numr" horiz-adv-x="144"/><glyph d="M124 704q34 0 59 -22.5t25 -52.5q0 -26 -14.5 -47t-53.5 -61l-47 -49h118v-32h-168v32l68 69q28 29 36.5 38.5t15.5 22.5t7 27q0 18 -14 31t-32 13q-19 0 -33 -13t-14 -37v-14h-37v14q0 35 24.5 58t59.5 23z" glyph-name="two.numr" horiz-adv-x="251"/><glyph d="M131 703q32 0 56 -20.5t24 -47.5q0 -32 -30 -53q42 -18 42 -66q0 -34 -27.5 -57t-64.5 -23q-41 0 -67.5 27t-23.5 64h38q-5 -23 11.5 -41t41.5 -18q22 0 38 13.5t16 34.5q0 28 -20 39t-54 5v32q63 3 63 43q0 15 -12.5 26t-30.5 11q-22 0 -35 -15.5t-11 -41.5h-38 q-4 37 21 62.5t63 25.5z" glyph-name="three.numr" horiz-adv-x="263"/><glyph d="M209 701v-154h27v-31h-27v-76h-37v76h-132l132 185h37zM172 647l-70 -100h70v100z" glyph-name="four.numr" horiz-adv-x="276"/><glyph d="M201 701v-32h-104l-8 -58q22 10 45 10q35 0 63 -26.5t28 -65.5t-28 -66t-67 -27q-33 0 -58.5 18.5t-31.5 43.5l33 19q2 -20 17.5 -34.5t39.5 -14.5q23 0 40 17.5t17 43.5q0 25 -16.5 42.5t-36.5 17.5q-35 0 -57 -29l-32 8l18 133h138z" glyph-name="five.numr" horiz-adv-x="265"/><glyph d="M189 701l-68 -96h6q34 0 60 -25t26 -59q0 -35 -26 -60t-60 -25t-60.5 25t-26.5 60q0 16 5.5 31.5t10 23t18 25t16.5 21.5l57 79h42zM127 573q-22 0 -36 -14t-14 -38q0 -23 15.5 -38t34.5 -15q18 0 33.5 15t15.5 38t-15 37.5t-34 14.5z" glyph-name="six.numr" horiz-adv-x="253"/><glyph d="M213 701l-102 -261h-39l89 229h-121v32h173z" glyph-name="seven.numr" horiz-adv-x="253"/><glyph d="M131 703q36 0 57.5 -20t21.5 -47q0 -34 -30 -53q43 -21 43 -66q0 -34 -27 -56.5t-65 -22.5q-37 0 -64 22.5t-27 56.5q0 45 43 66q-30 19 -30 53q0 26 21.5 46.5t56.5 20.5zM131 672q-20 0 -30.5 -10.5t-10.5 -25.5t12.5 -27t28.5 -12q17 0 29 11.5t12 27.5q0 36 -41 36z M131 566q-22 0 -38 -14t-16 -35q0 -20 16 -34t38 -14q24 0 39 13t15 35t-15 35.5t-39 13.5z" glyph-name="eight.numr" horiz-adv-x="263"/><glyph d="M127 704q34 0 60.5 -24.5t26.5 -59.5q0 -13 -2.5 -24t-9 -22.5t-10.5 -18t-14.5 -19.5t-14.5 -18l-56 -78h-43l68 95h-5q-35 0 -61 25.5t-26 59.5q0 35 26.5 59.5t60.5 24.5zM127 672q-19 0 -34.5 -15t-15.5 -37q0 -23 15.5 -38t34.5 -15q22 0 35.5 14.5t13.5 38.5 q0 22 -15.5 37t-33.5 15z" glyph-name="nine.numr" horiz-adv-x="254"/><glyph d="M308 753q-20 0 -12 17l60 126q5 12 17 12h108q20 0 12 -17l-60 -126q-5 -12 -17 -12h-108zM670 17q7 -17 -12 -17h-130q-13 0 -17 12l-35 108h-247l-35 -108q-4 -12 -17 -12h-130q-19 0 -12 17l242 671q5 12 17 12h115q15 0 19 -12zM271 245h164l-82 251z" glyph-name="glyph499" horiz-adv-x="705"/><glyph d="M399 908q20 0 12 -17l-60 -126q-5 -12 -17 -12h-108q-20 0 -12 17l60 126q5 12 17 12h108zM460 137q15 0 15 -15v-107q0 -15 -15 -15h-376q-15 0 -15 15v670q0 15 15 15h375q15 0 15 -15v-107q0 -15 -15 -15h-235v-137h221q15 0 15 -15v-107q0 -15 -15 -15h-221v-152h236 z" glyph-name="glyph500" horiz-adv-x="540"/><glyph d="M302 753q-20 0 -12 17l60 126q5 12 17 12h108q20 0 12 -17l-60 -126q-5 -12 -17 -12h-108zM620 700q15 0 15 -15v-670q0 -15 -15 -15h-125q-15 0 -15 15v436l-246 -441q-6 -10 -18 -10h-142q-15 0 -15 15v670q0 15 15 15h125q15 0 15 -15v-437l247 442q6 10 18 10h141z " glyph-name="glyph501" horiz-adv-x="704"/><glyph d="M532 908q20 0 12 -17l-60 -126q-5 -12 -17 -12h-108q-20 0 -12 17l60 126q5 12 17 12h108zM409 -13q-149 0 -254.5 105t-105.5 255t105.5 255.5t254.5 105.5q150 0 255.5 -105.5t105.5 -255.5t-105.5 -255t-255.5 -105zM409 139q86 0 144.5 60t58.5 148q0 89 -58.5 149 t-144.5 60t-144 -60t-58 -149q0 -88 58.5 -148t143.5 -60z" glyph-name="glyph502" horiz-adv-x="819"/><glyph d="M311 753q-20 0 -12 17l60 126q5 12 17 12h108q20 0 12 -17l-60 -126q-5 -12 -17 -12h-108zM671 700q9 0 12 -5t-2 -13l-406 -672q-6 -10 -18 -10h-133q-20 0 -10 18l164 272l-236 392q-5 8 -2 13t12 5h132q12 0 18 -10l159 -263l159 263q6 10 18 10h133z" glyph-name="glyph503" horiz-adv-x="722"/><glyph d="M569 908q20 0 12 -17l-60 -126q-5 -12 -17 -12h-108q-20 0 -12 17l60 126q5 12 17 12h108zM297 0h-213q-15 0 -15 15v670q0 15 15 15h125q15 0 15 -15v-221h73q123 0 191.5 -63.5t68.5 -168.5t-68.5 -168.5t-191.5 -63.5zM677 685q0 15 15 15h125q15 0 15 -15v-670 q0 -15 -15 -15h-125q-15 0 -15 15v670zM294 327h-70v-190h70q48 0 81.5 22t33.5 73t-33.5 73t-81.5 22z" glyph-name="glyph504" horiz-adv-x="891"/><glyph d="M299 753q-20 0 -12 17l60 126q5 12 17 12h108q20 0 12 -17l-60 -126q-5 -12 -17 -12h-108zM291 708q151 0 256.5 -105t105.5 -256t-105.5 -255.5t-256.5 -104.5q-149 0 -247 103q-10 10 0 21l77 83q9 11 21 1q66 -56 150 -56q68 0 120 39.5t72 103.5h-213q-15 0 -15 15 v107q0 15 15 15h210q-20 61 -71.5 99t-117.5 38q-84 0 -150 -56q-12 -10 -21 1l-77 84q-9 11 0 21q99 102 247 102z" glyph-name="glyph505" horiz-adv-x="697"/><glyph d="M466 753q-20 0 -12 17l60 126q5 12 17 12h108q20 0 12 -17l-60 -126q-5 -12 -17 -12h-108zM633 708q150 0 255.5 -105.5t105.5 -255.5t-105.5 -255t-255.5 -105q-131 0 -231 84t-123 211h-55v-267q0 -15 -15 -15h-125q-15 0 -15 15v670q0 15 15 15h125q15 0 15 -15v-266 h56q25 125 124 207t229 82zM633 139q86 0 144.5 60t58.5 148q0 89 -58.5 149t-144.5 60t-144 -60t-58 -149q0 -88 58.5 -148t143.5 -60z" glyph-name="glyph506" horiz-adv-x="1032"/><glyph d="M280 753q-20 0 -12 17l60 126q5 12 17 12h108q20 0 12 -17l-60 -126q-5 -12 -17 -12h-108zM539 700q15 0 15 -15v-670q0 -15 -15 -15h-125q-15 0 -15 15v221h-41l-145 -226q-6 -10 -18 -10h-133q-21 0 -10 18l156 238q-69 25 -105.5 80.5t-36.5 131.5q0 105 68.5 168.5 t191.5 63.5h213zM329 563q-48 0 -81.5 -22t-33.5 -73t33.5 -73t81.5 -22h70v190h-70z" glyph-name="glyph507" horiz-adv-x="623"/><glyph d="M249 543q-20 0 -12 17l60 126q5 12 17 12h108q20 0 12 -17l-60 -126q-5 -12 -17 -12h-108zM544 490q15 0 15 -15v-460q0 -15 -15 -15h-102q-13 0 -15 15l-6 42q-52 -64 -140 -64q-102 0 -169.5 72.5t-67.5 178.5q0 108 67.5 182t169.5 74q86 0 141 -70l5 45q2 15 15 15 h102zM299 130q49 0 79.5 32t30.5 83q0 50 -30.5 84t-79.5 34q-48 0 -79.5 -33t-31.5 -85q0 -51 31.5 -83t79.5 -32z" glyph-name="glyph508"/><glyph d="M248 573q-20 0 -12 17l60 126q5 12 17 12h108q20 0 12 -17l-60 -126q-5 -12 -17 -12h-108zM526 256q0 -33 -7 -47.5t-29 -14.5h-297q23 -81 126 -81q49 0 95 29q12 8 22 -2l52 -50q9 -11 -2 -22q-75 -75 -182 -75q-114 0 -187 73.5t-73 180.5t71 180t178 73 q104 0 168.5 -71t64.5 -173zM294 373q-39 0 -67 -21.5t-36 -62.5h202q-7 41 -34 62.5t-65 21.5z" glyph-name="glyph509" horiz-adv-x="570"/><glyph d="M266 543q-20 0 -12 17l60 126q5 12 17 12h108q20 0 12 -17l-60 -126q-5 -12 -17 -12h-108zM533 490q15 0 15 -15v-460q0 -15 -15 -15h-120q-15 0 -15 15v274l-188 -279q-7 -10 -19 -10h-123q-14 0 -14 15v460q0 15 15 15h120q15 0 15 -15v-273l187 278q7 10 19 10h123z " glyph-name="glyph510" horiz-adv-x="601"/><glyph d="M422 698q20 0 12 -17l-60 -126q-5 -12 -17 -12h-108q-20 0 -12 17l60 126q5 12 17 12h108zM299 -10q-106 0 -180.5 74.5t-74.5 180.5q0 107 74.5 181.5t180.5 74.5q107 0 181.5 -74.5t74.5 -181.5q0 -106 -74.5 -180.5t-181.5 -74.5zM299 129q47 0 79 33t32 83 q0 51 -32 84t-79 33q-46 0 -78.5 -33.5t-32.5 -83.5t32.5 -83t78.5 -33z" glyph-name="glyph511" horiz-adv-x="599"/><glyph d="M420 698q20 0 12 -17l-60 -126q-5 -12 -17 -12h-108q-20 0 -12 17l60 126q5 12 17 12h108zM548 490q18 0 12 -17l-259 -651q-5 -12 -18 -12h-117q-21 0 -12 17l71 172l-189 474q-6 17 12 17h121q13 0 18 -12l110 -302l110 302q5 12 18 12h123z" glyph-name="glyph512" horiz-adv-x="586"/><glyph d="M529 698q20 0 12 -17l-60 -126q-5 -12 -17 -12h-108q-20 0 -12 17l60 126q5 12 17 12h108zM314 326q216 0 216 -163t-216 -163h-245q-15 0 -15 15v460q0 15 15 15h120q15 0 15 -15v-149h110zM743 490q15 0 15 -15v-460q0 -15 -15 -15h-120q-15 0 -15 15v460q0 15 15 15 h120zM316 109q36 0 53 12t17 42t-17 42t-53 12h-112v-108h112z" glyph-name="glyph513" horiz-adv-x="811"/><glyph d="M211 543q-20 0 -12 17l60 126q5 12 17 12h108q20 0 12 -17l-60 -126q-5 -12 -17 -12h-108zM230 500q105 0 178 -73.5t73 -178.5q0 -107 -72.5 -181t-178.5 -74q-116 0 -192 87q-9 11 1 21l72 69q10 10 22 0q44 -38 93 -38q67 0 97 58h-121q-15 0 -15 15v78q0 15 15 15 h124q-13 29 -39.5 46t-60.5 17q-47 0 -90 -38q-12 -11 -22 -1l-72 70q-10 10 -1 21q76 87 189 87z" glyph-name="glyph514" horiz-adv-x="520"/><glyph d="M360 543q-20 0 -12 17l60 126q5 12 17 12h108q20 0 12 -17l-60 -126q-5 -12 -17 -12h-108zM529 501q107 0 181.5 -74.5t74.5 -181.5q0 -106 -74.5 -180.5t-181.5 -74.5q-89 0 -158 54t-90 139h-77v-169q0 -15 -15 -15h-120q-15 0 -15 15v460q0 15 15 15h120q15 0 15 -15 v-169h77q20 86 89 141t159 55zM529 129q47 0 79 33t32 83q0 51 -32 84t-79 33q-46 0 -78.5 -33.5t-32.5 -83.5t32.5 -83t78.5 -33z" glyph-name="glyph515" horiz-adv-x="819"/><glyph d="M245 543q-20 0 -12 17l60 126q5 12 17 12h108q20 0 12 -17l-60 -126q-5 -12 -17 -12h-108zM522 490q15 0 15 -15v-460q0 -15 -15 -15h-120q-15 0 -15 15v149h-51l-140 -156q-7 -8 -18 -8h-123q-10 0 -12.5 5.5t4.5 12.5l139 151q-147 23 -147 158q0 163 216 163h267z M253 381q-70 0 -70 -54t70 -54h134v108h-134z" glyph-name="glyph516" horiz-adv-x="591"/></font>
</defs>
</svg>
