<?xml version="1.0" encoding="UTF-8"?>
<svg width="167px" height="39px" viewBox="0 0 167 39" version="1.1" xmlns="http://www.w3.org/2000/svg" xmlns:xlink="http://www.w3.org/1999/xlink">
    <!-- Generator: Sketch 52.6 (67491) - http://www.bohemiancoding.com/sketch -->
    <title>Artboard</title>
    <desc>Created with Sketch.</desc>
    <g id="Artboard" stroke="none" stroke-width="1" fill="none" fill-rule="evenodd">
        <path d="M12.9648,25.1456 L13.2904,23.9024 C13.4976,23.2216 13.5864,22.6592 13.5864,22.1856 C13.5864,21.3272 13.2608,20.7944 12.5504,20.3504 L12.5504,20.2912 L18.796,20.2912 L18.796,20.3504 C17.4936,21.0016 17.0496,21.9488 16.576,23.9024 L14.9184,30.296 L14.8592,30.296 L13.3496,27.2176 C12.0768,29.112 10.1528,30.296 7.844,30.296 C3.9072,30.296 1.2728,27.336 1.2728,22.9552 C1.2728,15.5552 6.808,8.984 12.6688,8.984 C14.9184,8.984 15.984,10.02 17.02,10.02 C17.7008,10.02 18.2928,9.6056 18.7368,9.1616 L17.4048,15.9992 L17.316,15.9992 C16.8424,12.4768 15.54,9.6648 12.8168,9.6648 C8.2584,9.6648 4.8248,18.2192 4.8248,24.1688 C4.8248,27.336 6.068,29.2896 8.3472,29.2896 C10.508,29.2896 12.284,27.8688 12.9648,25.1456 Z M24.3312,30.296 C21.4008,30.296 19.388,28.2832 19.388,24.8792 C19.388,20.1728 23.1176,15.2296 27.824,15.2296 C30.1032,15.2296 31.4944,16.4432 31.4944,18.1896 C31.4944,21.4752 27.6168,22.9552 22.792,23.192 C22.7032,23.784 22.644,24.4056 22.644,24.968 C22.644,27.632 23.8576,28.8752 25.752,28.8752 C27.4096,28.8752 28.6824,27.9872 29.9256,26.2704 L30.0736,26.2704 C28.9192,28.9344 26.788,30.296 24.3312,30.296 Z M27.7944,15.792 C25.6928,15.792 23.5616,19.344 22.8808,22.7776 C26.2848,22.304 28.9488,20.2616 28.9488,17.272 C28.9488,16.384 28.564,15.792 27.7944,15.792 Z M31.7904,24.7904 C31.7904,20.0248 35.2536,15.2296 39.7824,15.2296 C42.7424,15.2296 44.8736,17.3016 44.8736,20.7352 C44.8736,25.5008 41.4104,30.296 36.8816,30.296 C33.9216,30.296 31.7904,28.2536 31.7904,24.7904 Z M41.6768,19.2552 C41.6768,17.1832 41.2032,15.792 39.7528,15.792 C38.0064,15.792 36.4672,18.6928 35.6384,22.1264 C35.224,23.6952 34.9872,25.1456 34.9872,26.2704 C34.9872,28.3424 35.4608,29.7336 36.9112,29.7336 C38.6576,29.7336 40.1968,26.8328 41.0552,23.3992 C41.44,21.8304 41.6768,20.38 41.6768,19.2552 Z M54.464,19.8472 C55.204,19.7584 55.7664,19.196 55.7664,18.2784 C55.7664,17.6568 55.4112,17.2424 54.7008,17.2424 C53.1616,17.2424 51.4448,19.9656 50.6456,22.7184 L48.84,30 L45.584,30 L48.4256,18.5744 C48.544,18.0416 48.6032,17.6568 48.6032,17.3312 C48.6032,16.532 48.248,16.0584 47.5376,15.5848 L47.5376,15.5256 L52.4216,15.5256 L51.2968,20.0544 C52.4512,17.6272 53.9016,15.2592 56.092,15.2592 C57.424,15.2592 58.3416,16.1176 58.3416,17.42 C58.3416,19.1664 57.0688,20.232 55.6184,20.232 C55.056,20.232 54.6416,20.0248 54.464,19.8472 Z M67.044,17.7456 C67.044,16.5616 66.6592,15.7624 65.6528,15.7624 C64.1432,15.7624 63.048,17.8048 62.5448,20.084 C62.3672,20.9128 62.2488,21.712 62.2488,22.3336 C62.2488,23.5176 62.6336,24.3168 63.64,24.3168 C65.1496,24.3168 66.2448,22.2744 66.748,19.9952 C66.9552,19.1664 67.044,18.3672 67.044,17.7456 Z M69.5008,30.7696 C69.5008,34.4696 65.5048,36.8376 61.124,36.8376 C58.0752,36.8376 55.1152,35.7424 55.1152,33.3448 C55.1152,31.4504 57.0392,30.2368 59.496,30.148 C58.4304,29.852 57.4536,29.0232 57.4536,27.632 C57.4536,25.7672 59.1112,24.4944 60.7392,24.0208 C59.7624,23.3104 59.2,22.2152 59.2,20.9424 C59.2,18.012 61.6568,15.2296 65.6824,15.2296 C67.0144,15.2296 68.1096,15.644 68.8496,16.2952 C69.56,15.0224 70.6256,13.9864 71.8984,13.9864 C73.0528,13.9864 73.6448,14.6672 73.6448,15.5256 C73.6448,16.976 72.4904,17.6272 71.3656,17.7456 L71.3656,17.6864 C71.632,17.42 71.7504,17.124 71.7504,16.7392 C71.7504,16.1768 71.3656,15.792 70.6848,15.792 C70.0928,15.792 69.56,16.088 69.116,16.5616 C69.7672,17.2424 70.1224,18.1304 70.1224,19.1072 C70.1224,22.0672 67.6656,24.8496 63.6696,24.8496 C62.6632,24.8496 61.8048,24.6424 61.124,24.2576 C60.2952,24.5536 59.5848,25.2048 59.5848,26.0928 C59.5848,26.8624 60.1472,27.3064 61.0944,27.336 L65.1496,27.3952 C67.7544,27.4248 69.5008,28.52 69.5008,30.7696 Z M64.0248,30.3848 L61.0944,30.3552 C59.052,30.3552 57.5128,31.4504 57.5128,33.4632 C57.5128,35.2984 59.052,36.2752 61.3016,36.2752 C64.38,36.2752 66.748,34.6472 66.748,32.3088 C66.748,30.9472 65.8304,30.4144 64.0248,30.3848 Z M75.5688,10.9376 C75.5688,9.724 76.516,8.7472 77.7592,8.7472 C78.9432,8.7472 79.7128,9.576 79.7128,10.6416 C79.7128,11.8552 78.7656,12.832 77.552,12.832 C76.368,12.832 75.5688,12.0032 75.5688,10.9376 Z M78.4104,15.5256 L75.4504,27.4544 C75.4208,27.632 75.3912,27.8096 75.3912,27.9872 C75.3912,28.6088 75.776,28.9936 76.3976,28.9936 C76.7528,28.9936 77.1968,28.8752 77.7,28.5792 L77.7296,28.6384 C76.812,29.7336 75.776,30.296 74.5624,30.296 C73.0528,30.296 72.1648,29.408 72.1648,28.0168 C72.1648,27.7208 72.224,27.3952 72.3128,27.04 L74.4144,18.5744 C74.5328,18.0416 74.6216,17.6568 74.6216,17.3312 C74.6216,16.532 74.2368,16.0584 73.5264,15.5848 L73.5264,15.5256 L78.4104,15.5256 Z M92.4112,20.7056 L90.7832,27.4544 C90.4576,28.8752 91.5232,29.4376 93.0624,28.5792 L93.092,28.6384 C92.1448,29.7336 91.1384,30.296 89.8656,30.296 C88.4744,30.296 87.5272,29.408 87.5272,27.8984 C87.5272,27.5728 87.616,27.188 87.7344,26.7736 C86.6688,28.7568 85.2184,30.296 83.0576,30.296 C80.6896,30.296 79.2392,28.372 79.2392,25.412 C79.2392,20.3504 82.7024,15.2296 86.8168,15.2296 C88.8888,15.2296 89.9544,16.5616 90.2208,18.2784 C91.0496,16.7688 92.4408,15.6736 93.98,15.2296 C93.388,16.976 92.7664,19.2552 92.4112,20.7056 Z M84.4488,28.8456 C85.9584,28.8456 87.6456,26.892 88.3856,24.0504 L89.1552,20.9424 C89.3624,20.084 89.4808,19.344 89.4808,18.752 C89.4808,17.0648 88.6224,16.2656 87.5272,16.2656 C84.804,16.2656 82.5544,21.8304 82.5544,25.8856 C82.5544,27.7504 83.1464,28.8456 84.4488,28.8456 Z M98.0648,30 L98.0648,29.9408 C99.604,29.2896 100.0776,28.3424 100.5808,26.3888 L103.9552,12.8912 C104.1328,12.1512 104.2512,11.5592 104.2512,11.0856 C104.2512,10.2568 103.9552,9.7536 103.1856,9.3392 L103.2152,9.28 L109.7864,9.28 C114.9664,9.28 118.1928,12.1808 118.1928,16.828 C118.1928,24.376 112.7168,30 105.2872,30 L98.0648,30 Z M103.2448,29.26 L105.228,29.26 C111.148,29.26 114.6112,22.4224 114.6112,15.9696 C114.6112,12.2104 113.0128,10.02 109.5496,10.02 L108.0696,10.02 L103.2448,29.26 Z M131.868,20.7056 L130.24,27.4544 C129.9144,28.8752 130.98,29.4376 132.5192,28.5792 L132.5488,28.6384 C131.6016,29.7336 130.5952,30.296 129.3224,30.296 C127.9312,30.296 126.984,29.408 126.984,27.8984 C126.984,27.5728 127.0728,27.188 127.1912,26.7736 C126.1256,28.7568 124.6752,30.296 122.5144,30.296 C120.1464,30.296 118.696,28.372 118.696,25.412 C118.696,20.3504 122.1592,15.2296 126.2736,15.2296 C128.3456,15.2296 129.4112,16.5616 129.6776,18.2784 C130.5064,16.7688 131.8976,15.6736 133.4368,15.2296 C132.8448,16.976 132.2232,19.2552 131.868,20.7056 Z M123.9056,28.8456 C125.4152,28.8456 127.1024,26.892 127.8424,24.0504 L128.612,20.9424 C128.8192,20.084 128.9376,19.344 128.9376,18.752 C128.9376,17.0648 128.0792,16.2656 126.984,16.2656 C124.2608,16.2656 122.0112,21.8304 122.0112,25.8856 C122.0112,27.7504 122.6032,28.8456 123.9056,28.8456 Z M137.5512,24.9384 C137.5512,27.2176 138.4984,28.5792 140.2448,28.5792 C143.0272,28.5792 145.2176,24.376 145.2176,20.8832 C145.2176,18.8112 144.3592,17.864 143.0568,17.864 C142.3168,17.864 141.7544,18.16 141.4584,18.7816 C141.4288,18.604 141.4288,18.456 141.4288,18.308 C141.4288,16.5616 142.4648,15.2296 143.9744,15.2296 C145.8392,15.2296 146.7272,16.7688 146.7272,19.0776 C146.7272,23.9912 143.116,30.296 138.3208,30.296 C135.8048,30.296 134.384,28.6384 134.384,26.2704 C134.384,23.6656 136.4856,21.0016 139.2976,17.9824 L138.38,18.0416 C136.1304,18.2192 135.272,18.456 134.5616,19.7288 C134.532,19.64 134.532,19.5216 134.532,19.4328 C134.532,17.2424 135.568,15.4664 137.1664,15.4664 C138.1728,15.4664 138.7648,16.2064 139.9488,16.4136 L140.5704,15.348 L141.1624,15.348 C138.8536,19.6696 137.5512,22.3928 137.5512,24.9384 Z M151.1376,10.9376 C151.1376,9.724 152.0848,8.7472 153.328,8.7472 C154.512,8.7472 155.2816,9.576 155.2816,10.6416 C155.2816,11.8552 154.3344,12.832 153.1208,12.832 C151.9368,12.832 151.1376,12.0032 151.1376,10.9376 Z M153.9792,15.5256 L151.0192,27.4544 C150.9896,27.632 150.96,27.8096 150.96,27.9872 C150.96,28.6088 151.3448,28.9936 151.9664,28.9936 C152.3216,28.9936 152.7656,28.8752 153.2688,28.5792 L153.2984,28.6384 C152.3808,29.7336 151.3448,30.296 150.1312,30.296 C148.6216,30.296 147.7336,29.408 147.7336,28.0168 C147.7336,27.7208 147.7928,27.3952 147.8816,27.04 L149.9832,18.5744 C150.1016,18.0416 150.1904,17.6568 150.1904,17.3312 C150.1904,16.532 149.8056,16.0584 149.0952,15.5848 L149.0952,15.5256 L153.9792,15.5256 Z M156.3768,19.9656 C156.3768,17.3312 158.804,15.2296 161.8232,15.2296 C164.1912,15.2296 165.9672,16.2952 165.9672,17.8936 C165.9672,19.0776 165.1384,19.8176 164.0728,19.8176 C163.54,19.8176 162.9184,19.6104 162.6224,19.196 C163.244,19.1072 163.7472,18.4264 163.7472,17.5384 C163.7472,16.4432 163.0368,15.7624 161.6456,15.7624 C160.0176,15.7624 158.8928,16.8576 158.8928,18.3376 C158.8928,19.4624 159.4848,20.084 161.1424,21.1792 C163.4216,22.6592 164.6056,23.636 164.6056,25.4416 C164.6056,28.2536 162.0008,30.296 158.7744,30.296 C156.0216,30.296 154.0384,29.0232 154.0384,27.2176 C154.0384,25.9448 154.956,25.1456 156.1104,25.1456 C156.7024,25.1456 157.2056,25.3824 157.5904,25.7672 C156.8504,25.7968 156.3472,26.5072 156.3472,27.4248 C156.3472,28.8456 157.324,29.7632 158.952,29.7632 C160.728,29.7632 162.0008,28.6088 162.0008,26.9512 C162.0008,25.856 161.2608,25.116 159.544,24.0504 C157.6496,22.896 156.3768,21.86 156.3768,19.9656 Z" id="Georgia-Davis" fill="#2E3D49"></path>
    </g>
</svg>